<svg width="40" height="44" viewBox="0 0 40 44" fill="none" xmlns="http://www.w3.org/2000/svg">
<path d="M22.6666 1V10.3333C22.6666 10.9522 22.9125 11.5457 23.35 11.9832C23.7876 12.4208 24.3811 12.6667 25 12.6667H34.3333" stroke="#FAFAFA" stroke-opacity="0.8" stroke-width="2" stroke-linecap="round" stroke-linejoin="round"/>
<path d="M13.3333 43H6.33329C5.09562 43 3.90863 42.5083 3.03346 41.6332C2.15829 40.758 1.66663 39.571 1.66663 38.3333V5.66667C1.66663 4.42899 2.15829 3.242 3.03346 2.36683C3.90863 1.49167 5.09562 1 6.33329 1H22.6666L34.3333 12.6667V20.8333M11 15H13.3333M11 24.3333H16.8333M11 33.6667H13.3333" stroke="#FAFAFA" stroke-opacity="0.8" stroke-width="2" stroke-linecap="round" stroke-linejoin="round"/>
<path d="M22.6666 43V33.6667C22.6666 32.429 23.1583 31.242 24.0335 30.3668C24.9086 29.4917 26.0956 29 27.3333 29C28.571 29 29.758 29.4917 30.6331 30.3668C31.5083 31.242 32 32.429 32 33.6667V43M22.6666 38.3333H32M39 29V43" stroke="#FAFAFA" stroke-opacity="0.8" stroke-width="2" stroke-linecap="round" stroke-linejoin="round"/>
</svg>
