<svg width="176" height="176" viewBox="0 0 176 176" fill="none" xmlns="http://www.w3.org/2000/svg">
<path d="M87.0472 67.0607C115.369 47.8476 123.693 42.5602 123.693 41.1467C123.693 40.1521 119.923 40.8325 117.096 42.3507C101.81 50.5174 69.1428 73.7088 69.9283 75.9076C70.5566 77.792 73.3832 76.3265 87.0472 67.0607Z" fill="#F7B24D"/>
<path d="M171.332 31.0955C171.332 29.2632 166.987 27.4832 164.317 28.2162C162.328 28.7396 153.69 34.7601 137.042 45.2826C120.97 55.3863 117.306 58.1609 118.248 59.6265C119.714 61.9825 127.671 56.0669 156.15 40.3616C171.803 31.6714 171.332 31.933 171.332 31.0955Z" fill="#F7B24D"/>
<path d="M101.182 68.4212C68.305 87.1101 75.582 84.3357 49.773 97.2664C26.7386 108.836 23.6499 109.569 15.3261 105.852C6.00763 101.664 4.75128 102.868 8.57289 112.396C10.2481 116.584 10.6669 118.207 10.4574 119.935C9.98628 123.861 7.99696 129.567 6.11229 132.132C0.144298 140.403 12.4991 136.896 13.4414 136.477C18.3101 134.383 23.231 136.477 30.3508 143.649C35.0624 148.361 42.3916 149.303 40.6116 144.958C36.79 135.64 37.9941 126.059 50.4536 115.223C60.5575 106.48 75.7915 94.3349 89.2977 85.1213C109.034 71.6144 110.709 70.2011 109.087 68.3162C107.987 67.0079 103.537 67.0601 101.182 68.4212ZM41.0305 113.861C29.0944 125.85 30.1938 133.912 29.8797 134.855C23.0741 131.347 24.121 131.609 15.4308 131.138L16.792 128.206C19.776 121.767 17.4726 113.129 17.4726 113.077L21.3989 114.333C28.885 116.689 35.0624 115.537 42.915 110.354C44.5902 109.255 46.1085 108.313 46.2656 108.313C46.475 108.26 44.1191 110.773 41.0305 113.861Z" fill="#F7B24D"/>
</svg>
