<svg width="173" height="172" viewBox="0 0 173 172" fill="none" xmlns="http://www.w3.org/2000/svg">
<path d="M106.794 89.2176C120.569 91.9002 126.708 92.2216 126.046 90.2399C125.689 89.2174 125.343 88.9205 123.548 88.0668C120.036 86.4544 103.744 83.4514 102.763 84.2475C101.401 85.3516 104.04 88.6696 106.794 89.2176Z" fill="#F7B24D"/>
<path d="M88.746 67.4847C90.2898 67.9645 90.3651 67.7985 91.4786 60.1771C92.107 56.0985 92.157 53.1189 91.674 51.3588C91.0275 48.9441 89.2577 48.9624 88.9363 50.3778C86.1025 62.5434 86.0794 66.656 88.746 67.4847Z" fill="#F7B24D"/>
<path d="M101.279 104.03C100.283 101.637 95.4054 89.2184 95.0997 88.2592C94.9439 87.8082 95.3716 87.0414 96.3452 86.0417C103.539 78.4749 110.466 70.1263 110.793 68.6535C111.053 67.5504 109.342 65.894 108.14 66.0295C106.938 66.1649 97.0283 70.319 90.0735 73.6508L85.5303 75.8144C65.2468 62.4551 64.5774 61.371 68.6757 71.5354L72.2888 80.5192C74.3349 85.6301 74.3804 85.7502 73.5471 86.7935C72.3477 88.2912 66.9252 96.101 64.1799 99.64C58.2597 107.224 65.5285 106.997 81.5171 99.014L85.1844 97.194C85.5558 97.5226 87.7287 99.7484 98.3987 108.309C100.863 110.247 102.767 107.547 101.279 104.03ZM96.0817 100.793C95.6547 100.72 88.3534 95.1479 87.2492 93.7867C85.914 92.1405 84.8144 92.4026 75.86 96.5691C69.9517 99.3146 69.7803 99.2967 72.0645 96.2892C74.9484 92.5329 77.7143 87.4022 78.5159 86.3846C79.2483 85.4757 78.4434 83.1893 74.5175 74.9845C72.5418 70.8664 72.3902 70.0971 73.8227 71.0867C75.6072 72.3161 84.4308 78.0178 85.1498 78.9042C85.8431 79.759 87.0669 79.9735 88.222 79.4564L99.8486 74.1196C101.886 73.2019 101.886 73.2022 96.3346 79.7521C90.114 87.1597 90.3023 86.744 91.6762 89.4085C93.3858 92.7455 96.566 100.873 96.0817 100.793Z" fill="#F7B24D"/>
<path d="M82.9875 101.862C82.2911 102.427 80.6176 117.641 81.0929 119.197C82.0827 122.488 83.9262 122.042 84.4552 118.359C85.9602 108.373 85.2035 100.065 82.9875 101.862Z" fill="#F7B24D"/>
<path d="M61.1895 79.1298C52.144 76.3898 50.6293 76.4636 53.0944 79.5027C54.3013 80.9906 68.4489 85.103 69.0725 84.1247C70.0426 82.6031 67.6257 81.047 61.1895 79.1298Z" fill="#F7B24D"/>
</svg>
