<svg width="156" height="156" viewBox="0 0 156 156" fill="none" xmlns="http://www.w3.org/2000/svg">
<path d="M50.1082 4.7222C41.4044 8.48138 34.2923 15.7853 30.0759 24.1672C28.1511 28.0563 26.7174 32.0977 26.184 36.4185C25.6449 40.4684 26.1699 44.8485 26.9855 48.8701C27.3777 50.7864 27.9591 52.6716 28.5659 54.475C29.373 56.7893 30.1802 59.1035 31.2018 61.3048C33.214 65.5184 36.7277 68.9417 40.4699 71.6285C44.4323 74.4733 48.8942 76.5758 53.4013 78.2438C58.3995 80.0641 63.7701 81.5515 69.0675 82.1187C74.5539 82.655 80.252 81.6418 84.5954 78.0548C88.3518 74.9136 90.2032 70.1046 89.0997 65.2758C88.1148 60.9324 85.0809 57.1196 81.4262 54.7291C77.3876 52.1299 72.5757 51.4441 67.8795 52.4092C58.0017 54.4582 49.8849 62.9756 45.485 71.6596C43.1934 76.1525 41.6185 81.2269 41.6439 86.3492C41.7314 91.8497 43.7605 96.8761 47.2911 101.112C51.0983 105.614 55.9976 109.198 60.6768 112.624C65.7145 116.341 70.9102 119.838 76.3147 122.951C87.0166 129.233 98.4014 134.471 110.142 138.563C113.063 139.559 115.927 140.448 118.899 141.281C121.544 142.012 122.814 137.92 120.169 137.189C97.9188 130.822 77.0147 120.117 58.8283 105.859C54.8603 102.743 50.6157 99.3625 48.1378 94.9146C45.9421 91.003 45.468 86.4593 46.2724 82.1328C47.1529 77.5608 49.1229 73.2372 51.7278 69.4695C54.2001 65.8402 57.3271 62.414 61.044 59.9784C64.6536 57.5993 68.8221 56.0217 73.2191 56.3096C76.8287 56.5325 80.2887 58.6831 82.6509 61.4799C84.8494 64.2259 85.9247 67.7 84.745 70.923C83.2294 74.939 78.8832 77.0895 74.8305 77.7161C69.6432 78.5289 64.1342 76.9089 59.1728 75.5486C55.137 74.3858 51.1464 72.7884 47.3646 70.8072C43.6901 68.7696 40.1426 66.3227 37.3909 63.0461C34.7776 59.9022 33.5273 55.8353 32.2009 52.0141C30.9874 48.4073 30.4483 44.6509 30.2875 40.8324C30.0504 37.2595 30.7448 34.1551 31.8934 30.743C34.5012 23.2077 39.7477 16.1324 46.4562 11.5745C48.2737 10.344 50.0969 9.3845 52.0837 8.47575C53.1308 7.99316 53.4807 6.5764 52.9727 5.6112C52.4083 4.53876 51.1552 4.2396 50.1082 4.7222Z" fill="rgba(247, 178, 77, 1)"/>
<path d="M90.7959 106.359C98.6162 113.542 105.799 121.334 112.476 129.598C114.09 131.624 115.761 133.758 117.268 135.84C117.827 136.642 118.631 137.52 118.95 138.516C119.182 139.216 118.967 139.329 118.267 139.56C117.246 139.961 116.193 140.172 115.14 140.384C113.873 140.709 112.549 140.926 111.226 141.143C108.742 141.629 106.228 141.925 103.657 142.114C97.9726 142.504 92.1955 142.326 86.5962 141.575C85.4815 141.409 84.3949 142.597 84.4175 143.68C84.3892 144.928 85.3008 145.749 86.5228 145.859C92.0403 146.584 97.6283 146.793 103.23 146.378C106.072 146.184 108.94 145.907 111.694 145.416C114.26 144.956 116.989 144.547 119.41 143.683C122.128 142.732 123.898 140.5 123.186 137.587C122.481 134.946 120.319 132.66 118.73 130.552C115.219 125.963 111.494 121.487 107.611 117.231C103.256 112.47 98.7687 107.847 94.0161 103.5C93.1863 102.705 91.8825 102.569 91.0048 103.373C90.0706 104.071 89.9408 105.645 90.7959 106.359Z" fill="rgba(247, 178, 77, 1)"/>
</svg>
