<svg width="167" height="55" viewBox="0 0 167 55" fill="none" xmlns="http://www.w3.org/2000/svg">
<path d="M166.995 52.4341C166.368 39.6589 158.061 28.216 148.812 19.9866C140.113 12.3842 129.689 6.97626 118.559 3.76286C107.43 0.549461 95.5953 -0.626167 83.9957 0.314342C70.4367 1.4116 57.2696 5.09526 44.7295 10.268C32.0327 15.5192 20.0412 22.2595 8.52003 29.7052C7.10928 30.6457 5.62015 31.5862 4.20938 32.5267C2.09325 33.9375 4.05263 37.3076 6.16878 35.8968C17.2981 28.4512 28.8193 21.6325 41.0459 16.0678C53.0374 10.6599 65.6558 6.50602 78.6662 4.78176C89.8739 3.21424 101.395 3.60611 112.446 6.19251C123.183 8.62215 133.451 13.0896 142.307 19.7515C146.696 23.0432 150.615 26.8837 153.985 31.1943C157.825 36.0536 161.039 41.6966 162.371 47.7316C162.685 49.2991 162.92 50.7882 162.998 52.3557C163.233 54.9421 167.152 54.9421 166.995 52.4341Z" fill="#EB87AB"/>
<path d="M39.9485 36.7589C31.7191 36.4454 23.4113 36.1319 15.1818 35.8184C12.1252 35.6617 8.67665 35.5049 6.40376 33.232C4.44437 31.1943 3.81738 28.216 3.97413 25.4729C4.20926 21.319 6.32537 17.4785 8.20638 13.9517C9.38202 11.7571 6.01188 9.71937 4.83624 11.9923C1.30934 18.6542 -2.45268 26.962 2.0931 34.0942C4.28761 37.5427 7.81451 39.0318 11.7333 39.5021C15.8872 40.0507 20.1979 39.9723 24.4301 40.1291C29.6029 40.3642 34.6973 40.521 39.8701 40.7561C42.4565 40.7561 42.4565 36.8373 39.9485 36.7589Z" fill="#EB87AB"/>
</svg>
