<svg width="167" height="55" viewBox="0 0 167 55" fill="none" xmlns="http://www.w3.org/2000/svg">
<path d="M0.00457842 52.9341C0.631583 40.1589 8.93938 28.716 18.1877 20.4866C26.8874 12.8842 37.3113 7.47626 48.4407 4.26286C59.57 1.04946 71.4047 -0.126167 83.0043 0.814342C96.5633 1.9116 109.73 5.59526 122.27 10.768C134.967 16.0192 146.959 22.7595 158.48 30.2052C159.891 31.1457 161.38 32.0862 162.791 33.0267C164.907 34.4375 162.947 37.8076 160.831 36.3968C149.702 28.9512 138.181 22.1325 125.954 16.5678C113.963 11.1599 101.344 7.00602 88.3338 5.28176C77.1261 3.71424 65.6049 4.10611 54.554 6.69251C43.8165 9.12215 33.5493 13.5896 24.6929 20.2515C20.3039 23.5432 16.3851 27.3837 13.0149 31.6943C9.17453 36.5536 5.96112 42.1966 4.62873 48.2316C4.31523 49.7991 4.08011 51.2882 4.00174 52.8557C3.76661 55.4421 -0.152173 55.4421 0.00457842 52.9341Z" fill="#EB87AB"/>
<path d="M127.052 37.2592C135.281 36.9457 143.589 36.6322 151.818 36.3187C154.875 36.1619 158.323 36.0052 160.596 33.7323C162.556 31.6945 163.183 28.7163 163.026 25.9731C162.791 21.8192 160.675 17.9788 158.794 14.4519C157.618 12.2574 160.988 10.2196 162.164 12.4925C165.691 19.1544 169.453 27.4622 164.907 34.5944C162.712 38.0429 159.185 39.5321 155.267 40.0023C151.113 40.551 146.802 40.4726 142.57 40.6293C137.397 40.8645 132.303 41.0212 127.13 41.2563C124.543 41.2563 124.543 37.3376 127.052 37.2592Z" fill="#EB87AB"/>
</svg>
