<svg width="170" height="171" viewBox="0 0 170 171" fill="none" xmlns="http://www.w3.org/2000/svg">
<path d="M12.8461 56.0022C9.66896 64.9348 10.1711 75.117 13.4351 83.9137C14.9709 87.9721 16.9529 91.7747 19.7527 95.1087C22.3503 98.2622 25.9145 100.862 29.4143 103.004C31.0844 104.022 32.8606 104.881 34.5942 105.665C36.8382 106.651 39.0822 107.637 41.3897 108.388C45.8452 109.786 50.7449 109.545 55.2611 108.636C60.043 107.673 64.6218 105.839 68.9131 103.676C73.6506 101.257 78.398 98.3381 82.422 94.8464C86.552 91.1952 89.6919 86.3336 90.0247 80.7103C90.2841 75.8205 88.0247 71.1891 83.7379 68.7075C79.8872 66.4697 75.0292 66.0934 70.7896 67.1406C66.1355 68.3265 62.3555 71.382 59.863 75.4775C54.634 84.1046 55.3402 95.8489 58.7002 104.986C60.4283 109.724 63.0703 114.334 66.8375 117.805C70.9239 121.488 75.986 123.426 81.4923 123.727C87.3812 124.006 93.3426 122.861 99.0385 121.77C105.191 120.614 111.291 119.192 117.251 117.356C129.141 113.801 140.731 109.035 151.724 103.228C154.444 101.768 157.046 100.276 159.68 98.6681C162.016 97.2301 159.886 93.5126 157.549 94.9506C137.731 106.902 115.654 114.914 92.8268 118.515C87.8428 119.297 82.4761 120.101 77.5319 118.885C73.1726 117.828 69.5232 115.08 66.9038 111.544C64.1566 107.785 62.3333 103.397 61.3496 98.9236C60.3768 94.6413 59.9988 90.018 60.7478 85.6378C61.465 81.3746 63.1497 77.2483 66.3558 74.2254C68.9779 71.7348 72.9093 70.6667 76.566 70.8427C80.074 71.1038 83.3498 72.6833 84.9056 75.7425C86.8133 79.5878 85.4269 84.2345 83.1247 87.6283C80.1861 91.9794 75.2473 94.9089 70.8717 97.6144C67.2712 99.7768 63.3833 101.61 59.3567 103.029C55.3618 104.331 51.1539 105.261 46.8807 105.044C42.7988 104.815 38.9698 102.96 35.2687 101.328C31.8016 99.7592 28.6844 97.5949 25.7795 95.1115C23.0023 92.8511 21.2026 90.228 19.4872 87.0627C15.7472 80.0204 14.1415 71.3597 15.3747 63.3437C15.7121 61.1749 16.2516 59.1865 16.9398 57.1129C17.2997 56.0176 16.501 54.7963 15.4483 54.5107C14.2787 54.1933 13.2061 54.9069 12.8461 56.0022Z" fill="rgba(247, 178, 77, 1)"/>
<path d="M114.97 95.4527C125.556 94.6205 136.153 94.6704 146.751 95.4113C149.334 95.6099 152.035 95.8402 154.586 96.1558C155.553 96.2927 156.744 96.3018 157.69 96.747C158.361 97.0544 158.297 97.2883 157.99 97.9583C157.587 98.9793 157.025 99.8941 156.463 100.809C155.837 101.958 155.095 103.075 154.352 104.192C153.015 106.341 151.519 108.383 149.906 110.394C146.319 114.821 142.254 118.929 137.89 122.517C137.009 123.219 137.138 124.824 137.947 125.546C138.841 126.416 140.063 126.309 140.976 125.489C145.266 121.944 149.225 117.995 152.738 113.611C154.531 111.398 156.282 109.111 157.799 106.76C159.21 104.568 160.77 102.291 161.787 99.9304C162.942 97.2929 162.513 94.4767 159.896 93.0133C157.482 91.7303 154.336 91.7556 151.71 91.4827C145.959 90.9268 140.144 90.6049 134.383 90.5486C127.931 90.4932 121.49 90.6292 115.071 91.1477C113.923 91.213 112.936 92.0752 112.927 93.2657C112.8 94.4245 113.865 95.5923 114.97 95.4527Z" fill="rgba(247, 178, 77, 1)"/>
</svg>
