<svg width="211" height="174" viewBox="0 0 211 174" fill="none" xmlns="http://www.w3.org/2000/svg">
<path d="M165.896 1.70364C152.195 11.681 138.493 21.6583 124.929 31.6707C121.476 34.2127 118.023 36.7547 114.571 39.2967C111.556 41.4407 108.377 43.6885 108.213 47.8001C107.856 54.7046 116.241 58.525 121.557 60.0303C130.024 62.3414 138.436 64.5656 146.821 66.9286C149.15 67.5242 153.808 68.7155 153.753 71.9079C153.671 74.5102 150.712 76.7411 148.985 78.1943C136.27 89.3712 123.5 100.461 110.785 111.638C110.018 112.244 109.305 112.936 108.538 113.541C108.099 113.939 107.579 114.389 106.976 114.526C106.757 114.543 106.565 114.421 106.455 114.248C105.962 113.83 105.688 113.395 105.305 112.787C104.565 111.432 104.099 109.783 103.524 108.324C102.839 106.327 102.154 104.33 101.551 102.281C98.9758 94.1894 96.7293 85.8904 94.7568 77.6615C94.2911 75.6477 93.8528 73.4952 93.3871 71.4814C92.9214 69.1033 89.7975 69.2517 88.811 70.967C75.7938 93.872 62.1463 116.324 47.9235 138.411C43.8677 144.734 39.757 150.97 35.6464 157.206C34.9339 158.262 35.7284 160.069 36.7696 160.627C38.1397 161.341 39.3454 160.702 40.0579 159.646C54.5274 137.768 68.5036 115.473 81.9044 92.8114C85.7685 86.3666 89.4955 79.8868 93.1677 73.32C91.6881 73.1602 90.1535 72.9135 88.5916 72.8056C90.3723 81.2769 92.4544 89.6796 94.9748 98.0487C96.2351 102.233 97.5775 106.366 98.9748 110.586C100.016 113.694 101.358 117.462 104.509 118.997C108.565 121.054 111.798 117.436 114.511 114.996C117.745 112.107 121.116 109.252 124.349 106.363C130.871 100.67 137.393 94.9782 143.915 89.286C147.149 86.3964 150.355 83.6457 153.588 80.7561C155.945 78.6625 158.192 76.0308 158.412 72.7348C158.713 68.6582 155.891 65.4588 152.411 63.7672C148.52 61.9706 144.218 61.1618 140.19 60.0588C135.888 58.8857 131.586 57.7127 127.147 56.5046C123.667 55.5417 120.132 54.8563 116.899 53.0092C115.803 52.3646 114.542 51.4592 113.72 50.5203C113.035 49.6164 112.624 48.7825 112.981 47.7077C113.474 46.3035 114.735 45.3871 115.913 44.5225C117.612 43.2081 119.448 41.9286 121.202 40.7011C135.177 30.4294 149.208 20.2447 163.183 9.97303C164.937 8.74548 166.718 7.37924 168.472 6.15169C169.486 5.39077 169.924 3.89973 169.157 2.68331C168.664 1.53698 166.965 1.02962 165.896 1.70364Z" fill="#EB87AB"/>
<path d="M72.6658 149.038C60.6088 152.513 48.4422 155.45 35.9743 157.727C37.0703 158.736 38.0841 159.797 39.1801 160.806C41.1538 147.174 43.2645 133.576 45.2382 119.944C45.7317 116.718 40.8542 115.543 40.443 118.717C38.4693 132.35 36.3585 145.947 34.3848 159.58C34.1381 161.557 35.7273 162.984 37.5906 162.659C49.9216 160.347 62.2252 157.445 74.2823 153.97C77.2143 152.971 75.6527 148.126 72.6658 149.038Z" fill="#EB87AB"/>
</svg>
