<svg width="32" height="32" viewBox="0 0 32 32" fill="none" xmlns="http://www.w3.org/2000/svg">
<path d="M8.47864 19.4681L16.5758 27.5652L16.5543 19.3214C16.5623 22.3314 12.934 23.8561 10.7895 21.744L8.47864 19.4681Z" fill="#0D0D0D"/>
<path d="M8.47864 19.4681L16.5758 27.5652L16.5543 19.3214C16.5623 22.3314 12.934 23.8561 10.7895 21.744L8.47864 19.4681Z" fill="black" fill-opacity="0.2"/>
<path d="M8.47864 19.4681L16.5758 27.5652L16.5543 19.3214C16.5623 22.3314 12.934 23.8561 10.7895 21.744L8.47864 19.4681Z" fill="black" fill-opacity="0.2"/>
<path d="M8.47864 19.4681L16.5758 27.5652L16.5543 19.3214C16.5623 22.3314 12.934 23.8561 10.7895 21.744L8.47864 19.4681Z" fill="black" fill-opacity="0.2"/>
<path d="M16.5758 27.5652L21.9739 22.1671L24.6729 19.4681L22.3846 21.7398C20.2294 23.8795 16.5623 22.3584 16.5543 19.3214L16.5758 27.5652Z" fill="#0D0D0D"/>
<path d="M16.5758 27.5652L21.9739 22.1671L24.6729 19.4681L22.3846 21.7398C20.2294 23.8795 16.5623 22.3584 16.5543 19.3214L16.5758 27.5652Z" fill="black" fill-opacity="0.2"/>
<path d="M16.5758 27.5652L21.9739 22.1671L24.6729 19.4681L22.3846 21.7398C20.2294 23.8795 16.5623 22.3584 16.5543 19.3214L16.5758 27.5652Z" fill="black" fill-opacity="0.2"/>
<path d="M16.5758 27.5652L21.9739 22.1671L24.6729 19.4681L22.3846 21.7398C20.2294 23.8795 16.5623 22.3584 16.5543 19.3214L16.5758 27.5652Z" fill="black" fill-opacity="0.2"/>
<path d="M16.5758 4L16.5543 19.3214M16.5758 27.5652L21.9739 22.1671L24.6729 19.4681M16.5758 27.5652L8.47864 19.4681M16.5758 27.5652L16.5543 19.3214M27.3719 16.769L24.6729 19.4681M5.7796 16.769L8.47864 19.4681M24.6729 19.4681L22.3846 21.7398C20.2294 23.8795 16.5623 22.3584 16.5543 19.3214V19.3214M8.47864 19.4681L10.7895 21.744C12.934 23.8561 16.5623 22.3314 16.5543 19.3214V19.3214" stroke="#FAFAFA" stroke-width="2" stroke-linecap="round" stroke-linejoin="round"/>
</svg>
