<svg width="120" height="25" viewBox="0 0 120 25" fill="none" xmlns="http://www.w3.org/2000/svg">
<path d="M9.73675 12.156C9.73675 12.668 9.57675 13.172 9.25675 13.668C8.93675 14.148 8.51275 14.612 7.98475 15.06C7.45675 15.492 6.87275 15.9 6.23275 16.284C5.59275 16.668 4.95275 17.004 4.31275 17.292C3.67275 17.58 3.08875 17.812 2.56075 17.988C2.43275 18.612 2.36875 19.164 2.36875 19.644C2.36875 19.948 2.44075 20.164 2.58475 20.292C2.72875 20.42 2.95275 20.484 3.25675 20.484C3.92875 20.484 4.64075 20.364 5.39275 20.124C6.14475 19.884 6.91275 19.572 7.69675 19.188C8.48075 18.804 9.23275 18.396 9.95275 17.964C10.6728 17.532 11.3288 17.124 11.9208 16.74C12.5288 16.356 13.0328 16.044 13.4328 15.804C13.8328 15.564 14.0968 15.444 14.2248 15.444C14.4168 15.444 14.5608 15.508 14.6568 15.636C14.7688 15.748 14.8248 15.884 14.8248 16.044C14.8248 16.172 14.6248 16.42 14.2248 16.788C13.8408 17.156 13.3208 17.588 12.6648 18.084C12.0088 18.564 11.2728 19.06 10.4568 19.572C9.64075 20.084 8.79275 20.564 7.91275 21.012C7.04875 21.46 6.20875 21.82 5.39275 22.092C4.59275 22.364 3.87275 22.5 3.23275 22.5C2.40075 22.5 1.75275 22.188 1.28875 21.564C0.82475 20.94 0.59275 19.972 0.59275 18.66C0.59275 17.78 0.70475 16.892 0.92875 15.996C1.16875 15.1 1.48875 14.244 1.88875 13.428C2.30475 12.596 2.76075 11.86 3.25675 11.22C3.76875 10.564 4.30475 10.052 4.86475 9.684C5.42475 9.3 5.96875 9.108 6.49675 9.108C7.50475 9.108 8.29675 9.388 8.87275 9.948C9.44875 10.508 9.73675 11.244 9.73675 12.156ZM3.06475 16.14C3.56075 15.836 4.07275 15.516 4.60075 15.18C5.12875 14.844 5.61675 14.5 6.06475 14.148C6.51275 13.796 6.87275 13.428 7.14475 13.044C7.43275 12.644 7.57675 12.236 7.57675 11.82C7.57675 11.228 7.25675 10.932 6.61675 10.932C6.21675 10.932 5.79275 11.188 5.34475 11.7C4.91275 12.196 4.49675 12.844 4.09675 13.644C3.69675 14.444 3.35275 15.276 3.06475 16.14ZM16.3373 24.636C16.0653 24.636 15.8493 24.54 15.6893 24.348C15.5293 24.156 15.4493 23.836 15.4493 23.388C15.4493 22.588 15.4893 21.764 15.5693 20.916C15.6653 20.052 15.7133 19.252 15.7133 18.516C15.7133 16.836 15.5613 15.452 15.2573 14.364C14.9693 13.26 14.3373 12.516 13.3613 12.132C13.1373 12.052 12.9773 11.964 12.8813 11.868C12.7693 11.772 12.7133 11.62 12.7133 11.412C12.7133 11.188 12.8013 11.004 12.9773 10.86C13.1373 10.716 13.4413 10.644 13.8893 10.644C14.2573 10.644 14.7453 10.66 15.3533 10.692C15.9613 10.724 16.6173 10.756 17.3213 10.788C17.8173 9.012 18.3773 7.54 19.0013 6.372C19.6253 5.204 20.3053 4.284 21.0413 3.612C21.7933 2.94 22.5853 2.46 23.4173 2.172C24.2653 1.884 25.1453 1.74 26.0573 1.74C26.4573 1.74 26.7133 1.796 26.8253 1.908C26.9373 2.004 26.9933 2.156 26.9933 2.364C26.9933 2.62 26.9133 2.892 26.7533 3.18C26.5933 3.452 26.2653 3.628 25.7693 3.708C24.6813 3.9 23.7133 4.252 22.8653 4.764C22.0173 5.276 21.2813 6.02 20.6573 6.996C20.0333 7.956 19.5133 9.22 19.0973 10.788C20.6333 10.756 21.9533 10.676 23.0573 10.548C24.1613 10.404 25.0813 10.252 25.8173 10.092C26.5693 9.916 27.1693 9.772 27.6173 9.66C28.0653 9.532 28.4093 9.468 28.6493 9.468C28.9213 9.468 29.0893 9.54 29.1533 9.684C29.2173 9.828 29.2493 9.98 29.2493 10.14C29.2493 10.444 28.9613 10.74 28.3853 11.028C27.8093 11.3 27.0493 11.548 26.1053 11.772C25.1773 11.98 24.1533 12.148 23.0333 12.276C21.9133 12.404 20.8093 12.468 19.7213 12.468C19.5453 12.468 19.3693 12.468 19.1933 12.468C19.0333 12.468 18.8653 12.468 18.6893 12.468C18.6573 12.58 18.6333 12.7 18.6173 12.828C18.4573 13.756 18.2973 14.74 18.1373 15.78C17.9933 16.804 17.8573 17.812 17.7293 18.804C17.6173 19.78 17.5293 20.668 17.4653 21.468C17.4013 22.268 17.3693 22.908 17.3693 23.388C17.3693 23.788 17.2733 24.092 17.0813 24.3C16.8893 24.524 16.6413 24.636 16.3373 24.636ZM16.9133 12.372C16.4493 12.324 16.0173 12.26 15.6173 12.18C15.8253 12.42 16.0013 12.7 16.1453 13.02C16.3053 13.34 16.4413 13.684 16.5533 14.052C16.6653 13.46 16.7853 12.9 16.9133 12.372ZM27.4579 24.636C27.1859 24.636 26.9699 24.54 26.8099 24.348C26.6499 24.156 26.5699 23.836 26.5699 23.388C26.5699 22.588 26.6099 21.764 26.6899 20.916C26.7859 20.052 26.8339 19.252 26.8339 18.516C26.8339 16.836 26.6819 15.452 26.3779 14.364C26.0899 13.26 25.4579 12.516 24.4819 12.132C24.2579 12.052 24.0979 11.964 24.0019 11.868C23.8899 11.772 23.8339 11.62 23.8339 11.412C23.8339 11.188 23.9219 11.004 24.0979 10.86C24.2579 10.716 24.5619 10.644 25.0099 10.644C25.3779 10.644 25.8659 10.66 26.4739 10.692C27.0819 10.724 27.7379 10.756 28.4419 10.788C28.9379 9.012 29.4979 7.54 30.1219 6.372C30.7459 5.204 31.4259 4.284 32.1619 3.612C32.9139 2.94 33.7059 2.46 34.5379 2.172C35.3859 1.884 36.2659 1.74 37.1779 1.74C37.5779 1.74 37.8339 1.796 37.9459 1.908C38.0579 2.004 38.1139 2.156 38.1139 2.364C38.1139 2.62 38.0339 2.892 37.8739 3.18C37.7139 3.452 37.3859 3.628 36.8899 3.708C35.8019 3.9 34.8339 4.252 33.9859 4.764C33.1379 5.276 32.4019 6.02 31.7779 6.996C31.1539 7.956 30.6339 9.22 30.2179 10.788C31.7539 10.756 33.0739 10.676 34.1779 10.548C35.2819 10.404 36.2019 10.252 36.9379 10.092C37.6899 9.916 38.2899 9.772 38.7379 9.66C39.1859 9.532 39.5299 9.468 39.7699 9.468C40.0419 9.468 40.2099 9.54 40.2739 9.684C40.3379 9.828 40.3699 9.98 40.3699 10.14C40.3699 10.444 40.0819 10.74 39.5059 11.028C38.9299 11.3 38.1699 11.548 37.2259 11.772C36.2979 11.98 35.2739 12.148 34.1539 12.276C33.0339 12.404 31.9299 12.468 30.8419 12.468C30.6659 12.468 30.4899 12.468 30.3139 12.468C30.1539 12.468 29.9859 12.468 29.8099 12.468C29.7779 12.58 29.7539 12.7 29.7379 12.828C29.5779 13.756 29.4179 14.74 29.2579 15.78C29.1139 16.804 28.9779 17.812 28.8499 18.804C28.7379 19.78 28.6499 20.668 28.5859 21.468C28.5219 22.268 28.4899 22.908 28.4899 23.388C28.4899 23.788 28.3939 24.092 28.2019 24.3C28.0099 24.524 27.7619 24.636 27.4579 24.636ZM28.0339 12.372C27.5699 12.324 27.1379 12.26 26.7379 12.18C26.9459 12.42 27.1219 12.7 27.2659 13.02C27.4259 13.34 27.5619 13.684 27.6739 14.052C27.7859 13.46 27.9059 12.9 28.0339 12.372ZM40.2134 22.74C39.2694 22.74 38.5254 22.38 37.9814 21.66C37.4374 20.94 37.1654 20.004 37.1654 18.852C37.1654 18.436 37.2214 17.996 37.3334 17.532C37.4614 17.052 37.6214 16.62 37.8134 16.236C37.7014 16.124 37.6134 15.972 37.5494 15.78C37.4854 15.572 37.4534 15.316 37.4534 15.012C37.4534 14.068 37.6134 13.204 37.9334 12.42C38.2534 11.636 38.6774 10.956 39.2054 10.38C39.7334 9.788 40.3174 9.332 40.9574 9.012C41.6134 8.692 42.2774 8.532 42.9494 8.532C44.0534 8.532 44.9494 8.932 45.6374 9.732C46.3254 10.516 46.6694 11.716 46.6694 13.332C46.6694 14.18 46.5414 15.044 46.2854 15.924C46.0454 16.804 45.7094 17.652 45.2774 18.468C44.8614 19.284 44.3734 20.012 43.8134 20.652C43.2694 21.292 42.6854 21.804 42.0614 22.188C41.4534 22.556 40.8374 22.74 40.2134 22.74ZM39.3974 15.42C39.4934 15.548 39.5414 15.716 39.5414 15.924C39.5414 16.164 39.4934 16.404 39.3974 16.644C39.3174 16.884 39.2294 17.212 39.1334 17.628C39.0374 18.044 38.9894 18.636 38.9894 19.404C38.9894 20.172 39.2934 20.556 39.9014 20.556C40.5734 20.556 41.1974 20.292 41.7734 19.764C42.3494 19.22 42.8614 18.524 43.3094 17.676C43.7574 16.828 44.1014 15.924 44.3414 14.964C44.5974 13.988 44.7254 13.068 44.7254 12.204C44.7254 11.644 44.6214 11.252 44.4134 11.028C44.2054 10.788 43.8294 10.668 43.2854 10.668C42.7254 10.668 42.1414 10.86 41.5334 11.244C40.9414 11.612 40.4454 12.116 40.0454 12.756C39.6454 13.396 39.4454 14.116 39.4454 14.916C39.4454 15.092 39.4294 15.26 39.3974 15.42ZM50.6065 22.956C50.3505 22.956 50.1345 22.852 49.9585 22.644C49.7825 22.436 49.6945 22.148 49.6945 21.78C49.6945 21.508 49.7505 21.06 49.8625 20.436C49.9905 19.796 50.1265 19.052 50.2705 18.204C50.4305 17.356 50.5665 16.476 50.6785 15.564C50.7905 14.636 50.8465 13.748 50.8465 12.9C50.8465 12.484 50.9505 12.18 51.1585 11.988C51.3825 11.78 51.6305 11.676 51.9025 11.676C52.1585 11.676 52.3505 11.836 52.4785 12.156C52.6065 12.476 52.6305 13.116 52.5505 14.076C53.2865 12.444 54.0945 11.132 54.9745 10.14C55.8705 9.132 56.7585 8.412 57.6385 7.98C58.5185 7.532 59.3105 7.308 60.0145 7.308C60.4785 7.308 60.8145 7.404 61.0225 7.596C61.2465 7.772 61.3585 7.972 61.3585 8.196C61.3585 8.5 61.2305 8.74 60.9745 8.916C60.7345 9.076 60.3105 9.268 59.7025 9.492C58.9985 9.764 58.3505 10.084 57.7585 10.452C57.1825 10.804 56.6305 11.268 56.1025 11.844C55.5905 12.42 55.0865 13.156 54.5905 14.052C54.0945 14.932 53.5985 16.02 53.1025 17.316C52.6065 18.612 52.0785 20.172 51.5185 21.996C51.4225 22.348 51.2945 22.596 51.1345 22.74C50.9905 22.884 50.8145 22.956 50.6065 22.956ZM59.0273 14.82C58.5953 14.788 58.3953 14.508 58.4273 13.98C58.4433 13.852 58.5313 13.7 58.6913 13.524C58.8513 13.332 59.0353 13.228 59.2433 13.212C59.7393 13.164 60.3473 13.092 61.0673 12.996C61.8033 12.884 62.6113 12.756 63.4913 12.612C63.6513 11.828 63.8433 11.004 64.0673 10.14C64.2913 9.276 64.5393 8.436 64.8113 7.62C65.0833 6.788 65.3713 6.036 65.6753 5.364C65.9793 4.692 66.2993 4.164 66.6353 3.78C66.8113 3.604 66.9713 3.484 67.1153 3.42C67.2593 3.34 67.3873 3.3 67.4993 3.3C67.7233 3.3 67.8993 3.396 68.0273 3.588C68.1713 3.78 68.2433 3.996 68.2433 4.236C68.2433 4.364 68.2193 4.492 68.1713 4.62C67.8513 5.516 67.5073 6.62 67.1393 7.932C66.7713 9.244 66.3793 10.676 65.9633 12.228C67.4353 11.988 68.9073 11.732 70.3793 11.46C71.8513 11.188 73.1153 10.94 74.1713 10.716C74.4753 10.588 74.7073 10.612 74.8673 10.788C75.0433 10.964 75.1313 11.14 75.1313 11.316C75.1313 11.54 75.0673 11.708 74.9393 11.82C74.8273 11.932 74.7073 12.028 74.5793 12.108L74.5553 12.132C74.2353 12.26 73.7553 12.412 73.1153 12.588C72.4753 12.748 71.7393 12.924 70.9073 13.116C70.0753 13.292 69.1873 13.468 68.2433 13.644C67.3153 13.82 66.3953 13.98 65.4833 14.124C65.1153 15.532 64.7393 16.98 64.3553 18.468C63.9873 19.94 63.6193 21.388 63.2513 22.812C63.0913 23.388 62.9073 23.748 62.6993 23.892C62.5073 24.052 62.2993 24.132 62.0753 24.132C61.8193 24.132 61.5953 24.036 61.4033 23.844C61.2273 23.652 61.2033 23.26 61.3313 22.668L63.0833 14.484C62.1233 14.628 61.2753 14.732 60.5393 14.796C59.8193 14.86 59.3153 14.868 59.0273 14.82ZM77.5443 23.46C76.3123 23.46 75.3443 23.06 74.6403 22.26C73.9523 21.444 73.6083 20.308 73.6083 18.852C73.6083 17.956 73.7283 16.908 73.9683 15.708C74.2243 14.492 74.5443 13.212 74.9283 11.868C75.3283 10.508 75.7603 9.164 76.2243 7.836C76.6883 6.508 77.1363 5.276 77.5683 4.14C78.0163 2.988 78.4083 2.028 78.7443 1.26C78.9363 0.827999 79.2083 0.611999 79.5603 0.611999C80.0403 0.611999 80.2803 0.907999 80.2803 1.5C80.2803 1.692 80.1923 2.084 80.0163 2.676C79.8403 3.268 79.6083 4.004 79.3203 4.884C79.0323 5.748 78.7203 6.708 78.3843 7.764C78.0483 8.82 77.7043 9.908 77.3523 11.028C77.0163 12.132 76.7043 13.228 76.4163 14.316C76.1283 15.388 75.8963 16.396 75.7203 17.34C75.5443 18.284 75.4563 19.092 75.4563 19.764C75.4563 20.196 75.5683 20.54 75.7923 20.796C76.0323 21.036 76.3523 21.156 76.7523 21.156C77.4883 21.156 78.2243 21.012 78.9603 20.724C79.7123 20.42 80.4323 20.052 81.1203 19.62C81.8083 19.172 82.4323 18.732 82.9923 18.3C83.5683 17.852 84.0563 17.484 84.4563 17.196C84.8563 16.892 85.1363 16.74 85.2963 16.74C85.6483 16.74 85.8243 16.932 85.8243 17.316C85.8243 17.444 85.6963 17.684 85.4403 18.036C85.1843 18.372 84.8403 18.772 84.4083 19.236C83.9763 19.7 83.4723 20.18 82.8963 20.676C82.3363 21.156 81.7443 21.612 81.1203 22.044C80.5123 22.46 79.8963 22.796 79.2723 23.052C78.6643 23.324 78.0883 23.46 77.5443 23.46ZM94.7764 12.156C94.7764 12.668 94.6164 13.172 94.2964 13.668C93.9764 14.148 93.5524 14.612 93.0244 15.06C92.4964 15.492 91.9124 15.9 91.2724 16.284C90.6324 16.668 89.9924 17.004 89.3524 17.292C88.7124 17.58 88.1284 17.812 87.6004 17.988C87.4724 18.612 87.4084 19.164 87.4084 19.644C87.4084 19.948 87.4804 20.164 87.6244 20.292C87.7684 20.42 87.9924 20.484 88.2964 20.484C88.9684 20.484 89.6804 20.364 90.4324 20.124C91.1844 19.884 91.9524 19.572 92.7364 19.188C93.5204 18.804 94.2724 18.396 94.9924 17.964C95.7124 17.532 96.3684 17.124 96.9604 16.74C97.5684 16.356 98.0724 16.044 98.4724 15.804C98.8724 15.564 99.1364 15.444 99.2644 15.444C99.4564 15.444 99.6004 15.508 99.6964 15.636C99.8084 15.748 99.8644 15.884 99.8644 16.044C99.8644 16.172 99.6644 16.42 99.2644 16.788C98.8804 17.156 98.3604 17.588 97.7044 18.084C97.0484 18.564 96.3124 19.06 95.4964 19.572C94.6804 20.084 93.8324 20.564 92.9524 21.012C92.0884 21.46 91.2484 21.82 90.4324 22.092C89.6324 22.364 88.9124 22.5 88.2724 22.5C87.4404 22.5 86.7924 22.188 86.3284 21.564C85.8644 20.94 85.6324 19.972 85.6324 18.66C85.6324 17.78 85.7444 16.892 85.9684 15.996C86.2084 15.1 86.5284 14.244 86.9284 13.428C87.3444 12.596 87.8004 11.86 88.2964 11.22C88.8084 10.564 89.3444 10.052 89.9044 9.684C90.4644 9.3 91.0084 9.108 91.5364 9.108C92.5444 9.108 93.3364 9.388 93.9124 9.948C94.4884 10.508 94.7764 11.244 94.7764 12.156ZM88.1044 16.14C88.6004 15.836 89.1124 15.516 89.6404 15.18C90.1684 14.844 90.6564 14.5 91.1044 14.148C91.5524 13.796 91.9124 13.428 92.1844 13.044C92.4724 12.644 92.6164 12.236 92.6164 11.82C92.6164 11.228 92.2964 10.932 91.6564 10.932C91.2564 10.932 90.8324 11.188 90.3844 11.7C89.9524 12.196 89.5364 12.844 89.1364 13.644C88.7364 14.444 88.3924 15.276 88.1044 16.14ZM101.954 23.028C101.602 23.028 101.33 22.924 101.138 22.716C100.962 22.524 100.874 22.3 100.874 22.044C100.874 21.82 100.97 21.612 101.162 21.42C101.37 21.212 101.65 21.028 102.002 20.868C102.642 20.532 103.242 20.196 103.802 19.86C104.378 19.524 104.842 19.164 105.194 18.78C105.546 18.396 105.722 17.988 105.722 17.556C105.722 17.188 105.602 16.908 105.362 16.716C105.122 16.508 104.794 16.404 104.378 16.404C104.138 16.404 103.802 16.452 103.37 16.548C102.938 16.628 102.466 16.724 101.954 16.836C101.458 16.932 100.97 17.028 100.49 17.124C100.01 17.204 99.6019 17.244 99.2659 17.244C98.6579 17.244 98.2019 17.1 97.8979 16.812C97.5939 16.508 97.4419 16.1 97.4419 15.588C97.4419 15.332 97.5939 14.948 97.8979 14.436C98.2019 13.924 98.6019 13.356 99.0979 12.732C99.6099 12.092 100.17 11.452 100.778 10.812C101.386 10.172 102.002 9.58 102.626 9.036C103.266 8.492 103.858 8.052 104.402 7.716C104.962 7.38 105.426 7.212 105.794 7.212C106.162 7.212 106.442 7.332 106.634 7.572C106.826 7.812 106.922 8.116 106.922 8.484C106.922 8.772 106.874 9.02 106.778 9.228C106.682 9.42 106.482 9.572 106.178 9.684C105.89 9.796 105.442 9.86 104.834 9.876C104.21 10.372 103.546 10.94 102.842 11.58C102.154 12.204 101.522 12.852 100.946 13.524C100.386 14.18 99.9779 14.812 99.7219 15.42C100.25 15.244 100.89 15.092 101.642 14.964C102.41 14.82 103.186 14.748 103.97 14.748C105.202 14.748 106.114 15.028 106.706 15.588C107.314 16.132 107.618 16.852 107.618 17.748C107.618 18.324 107.434 18.924 107.066 19.548C106.714 20.156 106.25 20.724 105.674 21.252C105.098 21.78 104.482 22.204 103.826 22.524C103.17 22.86 102.546 23.028 101.954 23.028ZM114.176 23.028C113.824 23.028 113.552 22.924 113.36 22.716C113.184 22.524 113.096 22.3 113.096 22.044C113.096 21.82 113.192 21.612 113.384 21.42C113.592 21.212 113.872 21.028 114.224 20.868C114.864 20.532 115.464 20.196 116.024 19.86C116.6 19.524 117.064 19.164 117.416 18.78C117.768 18.396 117.944 17.988 117.944 17.556C117.944 17.188 117.824 16.908 117.584 16.716C117.344 16.508 117.016 16.404 116.6 16.404C116.36 16.404 116.024 16.452 115.592 16.548C115.16 16.628 114.688 16.724 114.176 16.836C113.68 16.932 113.192 17.028 112.712 17.124C112.232 17.204 111.824 17.244 111.488 17.244C110.88 17.244 110.424 17.1 110.12 16.812C109.816 16.508 109.664 16.1 109.664 15.588C109.664 15.332 109.816 14.948 110.12 14.436C110.424 13.924 110.824 13.356 111.32 12.732C111.832 12.092 112.392 11.452 113 10.812C113.608 10.172 114.224 9.58 114.848 9.036C115.488 8.492 116.08 8.052 116.624 7.716C117.184 7.38 117.648 7.212 118.016 7.212C118.384 7.212 118.664 7.332 118.856 7.572C119.048 7.812 119.144 8.116 119.144 8.484C119.144 8.772 119.096 9.02 119 9.228C118.904 9.42 118.704 9.572 118.4 9.684C118.112 9.796 117.664 9.86 117.056 9.876C116.432 10.372 115.768 10.94 115.064 11.58C114.376 12.204 113.744 12.852 113.168 13.524C112.608 14.18 112.2 14.812 111.944 15.42C112.472 15.244 113.112 15.092 113.864 14.964C114.632 14.82 115.408 14.748 116.192 14.748C117.424 14.748 118.336 15.028 118.928 15.588C119.536 16.132 119.84 16.852 119.84 17.748C119.84 18.324 119.656 18.924 119.288 19.548C118.936 20.156 118.472 20.724 117.896 21.252C117.32 21.78 116.704 22.204 116.048 22.524C115.392 22.86 114.768 23.028 114.176 23.028Z" fill="rgba(247, 178, 77, 1)"/>
</svg>
