<svg width="201" height="287" viewBox="0 0 201 287" fill="none" xmlns="http://www.w3.org/2000/svg">
<path d="M38.9368 98.524C37.8302 102.177 36.9149 105.873 35.9752 109.57" stroke="#F7B24D" stroke-width="8" stroke-miterlimit="1.5" stroke-linecap="round" stroke-linejoin="round"/>
<path d="M18.088 112.93C20.6589 113.682 23.2581 114.282 25.8467 114.958" stroke="#F7B24D" stroke-width="8" stroke-miterlimit="1.5" stroke-linecap="round" stroke-linejoin="round"/>
<path d="M41.0392 120.265C43.4009 120.561 45.757 120.849 48.1218 121.108" stroke="#F7B24D" stroke-width="8" stroke-miterlimit="1.5" stroke-linecap="round" stroke-linejoin="round"/>
<path d="M32.1734 125.798C30.782 129.244 29.3108 132.895 28.5884 136.567" stroke="#F7B24D" stroke-width="8" stroke-miterlimit="1.5" stroke-linecap="round" stroke-linejoin="round"/>
<path d="M33.8464 190.477C35.8599 190.918 37.9082 191.563 39.959 191.819" stroke="#F7B24D" stroke-width="8" stroke-miterlimit="1.5" stroke-linecap="round" stroke-linejoin="round"/>
<path d="M54.5805 174.239C53.1573 177.768 52.4369 181.505 51.3613 185.149" stroke="#F7B24D" stroke-width="8" stroke-miterlimit="1.5" stroke-linecap="round" stroke-linejoin="round"/>
<path d="M45.9135 202.541C44.7645 206.066 43.1754 210.078 42.6934 213.774" stroke="#F7B24D" stroke-width="8" stroke-miterlimit="1.5" stroke-linecap="round" stroke-linejoin="round"/>
<path d="M59.3155 197.346C62.1054 198.119 64.8283 198.725 67.6725 199.224" stroke="#F7B24D" stroke-width="8" stroke-miterlimit="1.5" stroke-linecap="round" stroke-linejoin="round"/>
<path d="M103.859 82.2326C102.897 86.0025 102.044 89.7879 100.943 93.5208" stroke="#F7B24D" stroke-width="8" stroke-miterlimit="1.5" stroke-linecap="round" stroke-linejoin="round"/>
<path d="M80.2107 99.9877C83.2014 100.483 86.1374 101.273 89.1109 101.779" stroke="#F7B24D" stroke-width="8" stroke-miterlimit="1.5" stroke-linecap="round" stroke-linejoin="round"/>
<path d="M96.1526 112.563C95.2954 117.444 93.7038 122.787 93.5323 127.761" stroke="#F7B24D" stroke-width="8" stroke-miterlimit="1.5" stroke-linecap="round" stroke-linejoin="round"/>
<path d="M109.873 106.223C112.788 106.81 115.621 107.663 118.514 108.324" stroke="#F7B24D" stroke-width="8" stroke-miterlimit="1.5" stroke-linecap="round" stroke-linejoin="round"/>
</svg>
