<svg width="225" height="251" viewBox="0 0 225 251" fill="none" xmlns="http://www.w3.org/2000/svg">
<path fill-rule="evenodd" clip-rule="evenodd" d="M106.504 30.0587C106.566 47.1186 100.764 77.9778 145.395 85.4366C117.69 89.4355 107.102 110.85 106.509 138.318C105.83 117.584 108.674 93.6427 63.2214 87.0805C106.845 83.6313 106.24 47.5907 106.504 30.0587Z" fill="#FBB13C" stroke="#0D0D0D" stroke-width="8" stroke-miterlimit="1.5" stroke-linecap="round" stroke-linejoin="round"/>
<path fill-rule="evenodd" clip-rule="evenodd" d="M149.82 113.285C149.881 130.344 138.261 162.02 182.892 169.479C155.186 173.478 150.418 194.076 149.825 221.544C149.145 200.809 147.756 176.686 116.229 169.766C146.788 166.119 146.273 136.565 149.82 113.285Z" fill="#FBB13C" stroke="#0D0D0D" stroke-width="8" stroke-miterlimit="1.5" stroke-linecap="round" stroke-linejoin="round"/>
<path d="M59.1643 25.1C66.368 33.434 72.0798 43.1013 79.4723 51.2553" stroke="#0D0D0D" stroke-width="8" stroke-miterlimit="1.5" stroke-linecap="round" stroke-linejoin="round"/>
<path d="M129.083 57.4224C134.476 52.9783 139.575 47.9183 143.944 42.4562" stroke="#0D0D0D" stroke-width="8" stroke-miterlimit="1.5" stroke-linecap="round" stroke-linejoin="round"/>
<path d="M81.321 114.838C74.0723 121.556 67.3407 129.036 60.7847 136.432" stroke="#0D0D0D" stroke-width="8" stroke-miterlimit="1.5" stroke-linecap="round" stroke-linejoin="round"/>
<path d="M126.392 130.244C127.184 131.454 128.138 132.557 129 133.718" stroke="#0D0D0D" stroke-width="8" stroke-miterlimit="1.5" stroke-linecap="round" stroke-linejoin="round"/>
<path d="M117.41 199.257C119.135 197.54 120.921 195.884 122.619 194.139" stroke="#0D0D0D" stroke-width="8" stroke-miterlimit="1.5" stroke-linecap="round" stroke-linejoin="round"/>
<path d="M168.146 143.373C175.779 136.466 182.418 128.878 188.844 120.856" stroke="#0D0D0D" stroke-width="8" stroke-miterlimit="1.5" stroke-linecap="round" stroke-linejoin="round"/>
<path d="M170.008 199.854C179.007 205.453 185.269 216.981 191.495 225.403" stroke="#0D0D0D" stroke-width="8" stroke-miterlimit="1.5" stroke-linecap="round" stroke-linejoin="round"/>
</svg>
