<svg width="237" height="237" viewBox="0 0 237 237" fill="none" xmlns="http://www.w3.org/2000/svg">
<path fill-rule="evenodd" clip-rule="evenodd" d="M74.5734 67.2365C80.4042 77.5256 87.3775 98.1457 116.883 87.4967C101.498 99.3222 102.371 115.86 111.341 132.661C103.889 120.361 97.4774 104.927 67.78 116.396C92.9727 99.4971 80.3677 77.9215 74.5734 67.2365Z" fill="#FBB13C" stroke="#0D0D0D" stroke-width="8" stroke-miterlimit="1.5" stroke-linecap="round" stroke-linejoin="round"/>
<path fill-rule="evenodd" clip-rule="evenodd" d="M129.014 102.824C134.845 113.113 138.579 136.203 168.085 125.554C152.699 137.379 156.812 151.447 165.782 168.249C158.33 155.949 149.298 141.842 127.895 148.366C145.125 135.784 134.777 118.098 129.014 102.824Z" fill="#FBB13C" stroke="#0D0D0D" stroke-width="8" stroke-miterlimit="1.5" stroke-linecap="round" stroke-linejoin="round"/>
<path d="M44.2798 80.3159C51.4636 82.9062 58.1984 86.809 65.4352 89.2264" stroke="#0D0D0D" stroke-width="8" stroke-miterlimit="1.5" stroke-linecap="round" stroke-linejoin="round"/>
<path d="M97.512 76.1056C99.2618 71.5885 100.625 66.799 101.411 62.0142" stroke="#0D0D0D" stroke-width="8" stroke-miterlimit="1.5" stroke-linecap="round" stroke-linejoin="round"/>
<path d="M88.1447 127.024C86.0454 133.546 84.5173 140.353 83.0669 147.049" stroke="#0D0D0D" stroke-width="8" stroke-miterlimit="1.5" stroke-linecap="round" stroke-linejoin="round"/>
<path d="M120.615 121.029C121.505 121.492 122.456 121.834 123.371 122.243" stroke="#0D0D0D" stroke-width="8" stroke-miterlimit="1.5" stroke-linecap="round" stroke-linejoin="round"/>
<path d="M138.624 165.788C139.083 164.164 139.6 162.557 140.034 160.926" stroke="#0D0D0D" stroke-width="8" stroke-miterlimit="1.5" stroke-linecap="round" stroke-linejoin="round"/>
<path d="M150.308 114.785C152.575 108.018 154.01 101.178 155.17 94.1473" stroke="#0D0D0D" stroke-width="8" stroke-miterlimit="1.5" stroke-linecap="round" stroke-linejoin="round"/>
<path d="M170.614 148.287C177.954 148.614 185.653 153.455 192.276 156.43" stroke="#0D0D0D" stroke-width="8" stroke-miterlimit="1.5" stroke-linecap="round" stroke-linejoin="round"/>
</svg>
