<svg width="828" height="378" viewBox="0 0 828 378" fill="none" xmlns="http://www.w3.org/2000/svg">
<g style="mix-blend-mode:soft-light" opacity="0.6">
<path d="M0 308.822V377.977C56.1222 376.805 101.257 330.872 101.257 274.38V137.244C101.257 104.572 122.241 89.1086 135.714 89.1086C149.188 89.1086 170.171 104.572 170.171 137.244V260.756C170.171 319.421 210.934 378 273.628 378C336.322 378 377.085 319.421 377.085 260.756V137.244C377.085 104.572 398.068 89.1086 411.542 89.1086C425.015 89.1086 445.999 104.572 445.999 137.244V260.756C445.999 319.421 486.761 378 549.456 378C612.15 378 652.912 319.421 652.912 260.756V137.244C652.912 104.572 673.896 89.1086 687.369 89.1086C700.843 89.1086 721.826 104.572 721.826 137.244V260.756C721.826 319.421 762.589 378 825.283 378C826.193 378 827.099 377.988 828 377.963V308.695C827.068 308.826 826.16 308.891 825.283 308.891C811.81 308.891 790.826 293.428 790.826 260.756V137.244C790.826 78.5792 750.063 20 687.369 20C624.675 20 583.912 78.5793 583.912 137.244V260.756C583.912 293.428 562.929 308.891 549.456 308.891C535.982 308.891 514.999 293.428 514.999 260.756V137.244C514.999 78.5793 474.236 20 411.542 20C348.848 20 308.085 78.5793 308.085 137.244V260.756C308.085 293.428 287.102 308.891 273.628 308.891C260.155 308.891 239.171 293.428 239.171 260.756V137.244C239.171 78.5793 198.409 20 135.714 20C73.0202 20 32.2575 78.5793 32.2575 137.244V274.38C32.2575 292.7 18.0052 307.686 0 308.822Z" fill="#FCE5C4" opacity=".5" />
</g>
</svg>
