<svg width="360" height="247" viewBox="0 0 360 247" fill="none" xmlns="http://www.w3.org/2000/svg">
<g opacity="0.6">
<g style="mix-blend-mode:soft-light">
<path fill-rule="evenodd" clip-rule="evenodd" d="M180.125 177.13C186.644 177.13 191.898 171.777 191.789 165.245L191.106 124.191C190.011 58.3622 242.959 4.40837 308.654 4.40836L327.198 4.40836C345.314 4.40836 360 19.1263 360 37.2817C360 55.4371 345.314 70.155 327.198 70.155L308.654 70.155C279.619 70.155 256.218 94.0008 256.702 123.095L257.385 164.149C258.105 207.415 223.304 242.877 180.125 242.877C136.947 242.877 102.147 207.416 102.866 164.151L103.548 123.096C104.031 94.0009 80.6292 70.155 51.5933 70.155L33.6158 70.155C15.4996 70.155 0.813399 55.4371 0.813398 37.2817C0.813396 19.1263 15.4996 4.40839 33.6158 4.40838L51.5933 4.40838C117.289 4.40838 170.237 58.3613 169.143 124.19L168.461 165.245C168.353 171.777 173.607 177.13 180.125 177.13Z" fill="#FCE5C4" opacity="0.5"/>
</g>
</g>
</svg>
