<svg width="188" height="188" viewBox="0 0 188 188" fill="none" xmlns="http://www.w3.org/2000/svg">
<g opacity="0.6">
<g style="mix-blend-mode:soft-light">
<path d="M67.8694 24.6342C93.6165 50.3528 93.8365 93.7047 93.8365 93.7047C93.8365 93.7047 52.3125 95.3588 26.5654 69.6402C0.818384 43.9217 0.598289 0.569757 0.598289 0.569757C0.598289 0.569757 42.1224 -1.08427 67.8694 24.6342Z" fill="#FCE5C4" opacity=".5"/>
</g>
<g style="mix-blend-mode:soft-light">
<path d="M119.804 24.6342C94.0574 50.3528 93.8373 93.7047 93.8373 93.7047C93.8373 93.7047 135.361 95.3588 161.108 69.6402C186.855 43.9217 187.076 0.569757 187.076 0.569757C187.076 0.569757 145.551 -1.08427 119.804 24.6342Z" fill="#FCE5C4" opacity=".5"/>
</g>
<g style="mix-blend-mode:soft-light">
<path d="M67.8694 162.739C93.6165 137.021 93.8365 93.6688 93.8365 93.6688C93.8365 93.6688 52.3125 92.0148 26.5654 117.733C0.818384 143.452 0.598289 186.804 0.598289 186.804C0.598289 186.804 42.1224 188.458 67.8694 162.739Z" fill="#FCE5C4" opacity=".5"/>
</g>
<g style="mix-blend-mode:soft-light">
<path d="M119.804 162.739C94.0574 137.021 93.8373 93.6688 93.8373 93.6688C93.8373 93.6688 135.361 92.0148 161.108 117.733C186.855 143.452 187.076 186.804 187.076 186.804C187.076 186.804 145.551 188.458 119.804 162.739Z" fill="#FCE5C4" opacity=".5"/>
</g>
</g>
</svg>
