<svg width="380" height="380" viewBox="0 0 380 380" fill="none" xmlns="http://www.w3.org/2000/svg">
<g clip-path="url(#clip0_368_12726)">
<g style="mix-blend-mode:soft-light" opacity="0.5">
<circle cx="325.842" cy="198.547" r="41.5741" transform="rotate(93.7816 325.842 198.547)" fill="#FCE5C4"/>
</g>
<g style="mix-blend-mode:soft-light" opacity="0.5">
<circle cx="86.787" cy="279.548" r="15.4418" transform="rotate(-131.218 86.787 279.548)" fill="#FCE5C4"/>
</g>
<g style="mix-blend-mode:soft-light" opacity="0.5">
<circle cx="53.2354" cy="180.529" r="41.5741" transform="rotate(93.7816 53.2354 180.529)" fill="#FCE5C4"/>
</g>
<g style="mix-blend-mode:soft-light" opacity="0.5">
<circle cx="180.529" cy="325.841" r="41.5741" transform="rotate(-176.218 180.529 325.841)" fill="#FCE5C4"/>
</g>
<g style="mix-blend-mode:soft-light" opacity="0.5">
<circle cx="198.547" cy="53.2349" r="41.5741" transform="rotate(-176.218 198.547 53.2349)" fill="#FCE5C4"/>
</g>
<g style="mix-blend-mode:soft-light" opacity="0.5">
<circle cx="292.29" cy="99.5279" r="15.4418" transform="rotate(-131.218 292.29 99.5279)" fill="#FCE5C4"/>
</g>
<g style="mix-blend-mode:soft-light" opacity="0.5">
<circle cx="15.4418" cy="15.4418" r="15.4418" transform="matrix(-0.752203 0.658931 0.658931 0.752203 100.968 64.9956)" fill="#FCE5C4"/>
</g>
<g style="mix-blend-mode:soft-light" opacity="0.5">
<circle cx="15.4418" cy="15.4418" r="15.4418" transform="matrix(-0.752203 0.658931 0.658931 0.752203 280.989 270.499)" fill="#FCE5C4"/>
</g>
<g style="mix-blend-mode:soft-light" opacity="0.5">
<path fill-rule="evenodd" clip-rule="evenodd" d="M326.783 273.617C323.356 279.211 316.043 280.968 310.449 277.541L289.179 264.51C283.585 261.083 281.828 253.77 285.255 248.176C288.682 242.582 295.995 240.826 301.589 244.253L322.86 257.283C328.453 260.71 330.21 268.023 326.783 273.617Z" fill="#FCE5C4"/>
</g>
<g style="mix-blend-mode:soft-light" opacity="0.5">
<path fill-rule="evenodd" clip-rule="evenodd" d="M93.8213 130.901C90.3944 136.495 83.0815 138.251 77.4875 134.824L56.2171 121.794C50.6232 118.367 48.8665 111.054 52.2934 105.46C55.7204 99.866 63.0333 98.1093 68.6272 101.536L89.8976 114.567C95.4916 117.994 97.2483 125.307 93.8213 130.901Z" fill="#FCE5C4"/>
</g>
<g style="mix-blend-mode:soft-light" opacity="0.5">
<path fill-rule="evenodd" clip-rule="evenodd" d="M336.656 124.255C333.995 118.259 326.977 115.555 320.98 118.216L298.18 128.333C292.184 130.994 289.48 138.012 292.141 144.008C294.801 150.005 301.82 152.709 307.816 150.048L330.616 139.93C336.613 137.269 339.317 130.251 336.656 124.255Z" fill="#FCE5C4"/>
</g>
<g style="mix-blend-mode:soft-light" opacity="0.5">
<path fill-rule="evenodd" clip-rule="evenodd" d="M86.936 235.067C84.2751 229.071 77.257 226.367 71.2607 229.028L48.4603 239.146C42.4639 241.807 39.76 248.825 42.4209 254.821C45.0817 260.817 52.0998 263.521 58.0961 260.86L80.8966 250.743C86.8929 248.082 89.5968 241.064 86.936 235.067Z" fill="#FCE5C4"/>
</g>
<g style="mix-blend-mode:soft-light" opacity="0.5">
<path fill-rule="evenodd" clip-rule="evenodd" d="M247.492 93.4059C241.874 90.0189 240.065 82.7187 243.452 77.1004L256.331 55.7377C259.718 50.1195 267.018 48.3107 272.636 51.6977C278.255 55.0847 280.063 62.3849 276.676 68.0031L263.798 89.3658C260.411 94.9841 253.111 96.7929 247.492 93.4059Z" fill="#FCE5C4"/>
</g>
<g style="mix-blend-mode:soft-light" opacity="0.5">
<path fill-rule="evenodd" clip-rule="evenodd" d="M255.868 336.186C261.845 333.483 264.499 326.446 261.795 320.468L251.515 297.741C248.812 291.763 241.775 289.11 235.797 291.813C229.82 294.517 227.166 301.554 229.87 307.531L240.15 330.259C242.853 336.236 249.89 338.89 255.868 336.186Z" fill="#FCE5C4"/>
</g>
<g style="mix-blend-mode:soft-light" opacity="0.5">
<path fill-rule="evenodd" clip-rule="evenodd" d="M144.741 86.6141C150.756 83.996 153.51 76.9974 150.892 70.9822L140.937 48.1103C138.319 42.0951 131.32 39.3412 125.305 41.9593C119.29 44.5774 116.536 51.576 119.154 57.5911L129.109 80.4631C131.727 86.4782 138.726 89.2321 144.741 86.6141Z" fill="#FCE5C4"/>
</g>
<g style="mix-blend-mode:soft-light" opacity="0.5">
<path fill-rule="evenodd" clip-rule="evenodd" d="M104.484 326.18C98.9147 322.714 97.2102 315.388 100.677 309.819L113.859 288.642C117.326 283.073 124.651 281.368 130.22 284.835C135.79 288.302 137.494 295.627 134.027 301.196L120.845 322.373C117.379 327.943 110.053 329.647 104.484 326.18Z" fill="#FCE5C4"/>
</g>
</g>
<defs>
<clipPath id="clip0_368_12726">
<rect width="356.35" height="356.35" fill="white" transform="translate(379.076 23.5024) rotate(93.7816)"/>
</clipPath>
</defs>
</svg>
