<svg width="396" height="198" viewBox="0 0 396 198" fill="none" xmlns="http://www.w3.org/2000/svg">
<g opacity="0.6">
<g style="mix-blend-mode:soft-light">
<path d="M90.5573 65.0125L34.1052 97.6051L44.099 114.915L101.788 81.6079C104.006 84.3728 106.341 87.04 108.785 89.6021L61.1939 137.193L75.3272 151.327L123.728 102.926C126.427 104.966 129.212 106.898 132.077 108.715L97.6057 168.421L114.915 178.415L149.786 118.018C152.794 119.298 155.863 120.461 158.988 121.503L140.859 189.161L160.166 194.335L178.408 126.255C181.569 126.76 184.77 127.144 188.007 127.404L188.007 198L207.994 198L207.994 127.404C211.231 127.144 214.432 126.76 217.593 126.255L235.835 194.335L255.142 189.161L237.013 121.503C240.138 120.461 243.207 119.298 246.215 118.018L281.086 178.415L298.395 168.421L263.924 108.715C266.789 106.898 269.574 104.966 272.273 102.926L320.674 151.327L334.807 137.193L287.216 89.6021C289.66 87.04 291.995 84.3728 294.213 81.6079L351.902 114.915L361.896 97.6051L305.444 65.0125C307.275 61.7669 308.963 58.4301 310.5 55.0105L372.642 71.6614L377.815 52.3549L317.194 36.1115C318.198 32.3143 319.025 28.4453 319.666 24.5138L381.48 24.5138L381.48 4.52621L14.5205 4.52618L14.5205 24.5138L76.3354 24.5138C76.9764 28.4453 77.8034 32.3142 78.8069 36.1114L18.1857 52.3548L23.3588 71.6614L85.5011 55.0104C87.038 58.43 88.7263 61.7669 90.5573 65.0125Z" fill="#FCE5C4" fill-opacity="0.6"/>
</g>
</g>
</svg>
