<svg width="152" height="25" viewBox="0 0 152 25" fill="none" xmlns="http://www.w3.org/2000/svg">
<path d="M2.06025 23.08C1.70825 23.08 1.43625 22.976 1.24425 22.768C1.05225 22.576 0.956248 22.088 0.956248 21.304C0.956248 20.584 1.08425 19.648 1.34025 18.496C1.59625 17.328 1.94025 16.032 2.37225 14.608C2.80425 13.184 3.29225 11.712 3.83625 10.192C4.38025 8.656 4.94825 7.152 5.54025 5.68C6.14825 4.192 6.73225 2.832 7.29225 1.6C7.50025 1.152 7.71625 0.839999 7.94025 0.663999C8.16425 0.487999 8.42825 0.399999 8.73225 0.399999C8.94025 0.399999 9.11625 0.463999 9.26025 0.592C9.42025 0.703999 9.50025 0.895999 9.50025 1.168C9.50025 1.264 9.39625 1.576 9.18825 2.104C8.99625 2.632 8.72425 3.328 8.37225 4.192C8.03625 5.056 7.66025 6.024 7.24425 7.096C6.82825 8.168 6.40425 9.296 5.97225 10.48C5.54025 11.664 5.13225 12.856 4.74825 14.056C4.36425 15.24 4.03625 16.376 3.76425 17.464C3.49225 18.552 3.30825 19.528 3.21225 20.392C3.59625 19.928 4.03625 19.336 4.53225 18.616C5.02825 17.896 5.55625 17.12 6.11625 16.288C6.67625 15.456 7.24425 14.632 7.82025 13.816C8.39625 13 8.96425 12.256 9.52425 11.584C10.0842 10.912 10.6042 10.376 11.0842 9.976C11.5802 9.56 12.0122 9.352 12.3802 9.352C12.9882 9.352 13.4762 9.544 13.8442 9.928C14.2282 10.296 14.4202 10.904 14.4202 11.752C14.4202 12.232 14.3242 12.808 14.1322 13.48C13.9562 14.152 13.7482 14.856 13.5082 15.592C13.2682 16.328 13.0522 17.032 12.8602 17.704C12.6842 18.376 12.5962 18.952 12.5962 19.432C12.5962 20.088 12.8442 20.416 13.3402 20.416C14.1082 20.416 14.8762 20.248 15.6442 19.912C16.4282 19.576 17.1722 19.16 17.8762 18.664C18.5802 18.152 19.2282 17.64 19.8202 17.128C20.4122 16.6 20.9162 16.152 21.3322 15.784C21.7802 15.384 22.1562 15.184 22.4602 15.184C22.8442 15.184 23.0362 15.384 23.0362 15.784C23.0362 15.896 23.0122 16.024 22.9643 16.168C22.9162 16.312 22.7882 16.496 22.5802 16.72C22.3242 17.008 21.9562 17.384 21.4762 17.848C21.0122 18.312 20.4682 18.808 19.8442 19.336C19.2362 19.864 18.5722 20.36 17.8522 20.824C17.1482 21.288 16.4202 21.672 15.6682 21.976C14.9322 22.264 14.2122 22.408 13.5082 22.408C12.5482 22.408 11.8042 22.136 11.2762 21.592C10.7642 21.032 10.5082 20.264 10.5082 19.288C10.5082 18.68 10.6042 17.944 10.7962 17.08C10.9882 16.216 11.2282 15.304 11.5162 14.344C11.8202 13.368 12.1242 12.416 12.4282 11.488C11.9162 11.84 11.3562 12.368 10.7482 13.072C10.1562 13.76 9.53225 14.544 8.87625 15.424C8.22025 16.288 7.56425 17.168 6.90825 18.064C6.26825 18.96 5.64425 19.792 5.03625 20.56C4.44425 21.312 3.89225 21.92 3.38025 22.384C2.86825 22.848 2.42825 23.08 2.06025 23.08ZM22.9322 22.624C22.3242 22.624 21.8202 22.344 21.4202 21.784C21.0362 21.208 20.8442 20.464 20.8442 19.552C20.8442 18.704 21.0522 17.864 21.4682 17.032C21.9002 16.2 22.4682 15.4 23.1722 14.632C23.8762 13.864 24.6442 13.16 25.4762 12.52C26.3082 11.864 27.1402 11.296 27.9722 10.816C28.8202 10.336 29.5962 9.96 30.3002 9.688C31.0042 9.416 31.5642 9.28 31.9802 9.28C32.2042 9.28 32.3882 9.328 32.5322 9.424C32.6762 9.504 32.7482 9.656 32.7482 9.88C32.7482 10.024 32.6922 10.16 32.5802 10.288C32.5962 10.288 32.6122 10.288 32.6282 10.288C32.9802 10.288 33.1562 10.496 33.1562 10.912C33.1562 11.056 33.1002 11.352 32.9882 11.8C32.8762 12.232 32.7482 12.776 32.6042 13.432C32.4602 14.088 32.3322 14.816 32.2202 15.616C32.1082 16.4 32.0522 17.2 32.0522 18.016C32.0522 18.704 32.3162 19.048 32.8442 19.048C33.4362 19.048 34.0362 18.912 34.6442 18.64C35.2522 18.368 35.8442 18.04 36.4202 17.656C36.9962 17.256 37.5242 16.864 38.0042 16.48C38.4842 16.08 38.8922 15.744 39.2282 15.472C39.5642 15.2 39.8042 15.064 39.9482 15.064C40.0762 15.064 40.1882 15.104 40.2842 15.184C40.3802 15.264 40.4282 15.392 40.4282 15.568C40.4282 15.728 40.2682 16.016 39.9482 16.432C39.6282 16.848 39.2042 17.32 38.6762 17.848C38.1482 18.376 37.5562 18.888 36.9002 19.384C36.2442 19.88 35.5722 20.288 34.8842 20.608C34.1962 20.928 33.5402 21.088 32.9162 21.088C32.4362 21.088 31.9962 20.944 31.5962 20.656C31.2122 20.352 30.9002 19.84 30.6602 19.12C30.4362 18.4 30.3242 17.408 30.3242 16.144V15.544C29.5402 16.84 28.7162 18.024 27.8522 19.096C27.0042 20.168 26.1562 21.024 25.3082 21.664C24.4762 22.304 23.6842 22.624 22.9322 22.624ZM31.5242 11.008C31.4442 11.04 31.3322 11.088 31.1882 11.152C30.4522 11.488 29.6842 11.904 28.8842 12.4C28.1002 12.896 27.3322 13.448 26.5802 14.056C25.8442 14.664 25.1802 15.296 24.5882 15.952C23.9962 16.608 23.5242 17.272 23.1722 17.944C22.8202 18.616 22.6442 19.272 22.6442 19.912C22.6442 20.12 22.6842 20.28 22.7642 20.392C22.8602 20.504 23.0202 20.56 23.2442 20.56C23.5642 20.56 23.9802 20.36 24.4922 19.96C25.0042 19.544 25.5642 19 26.1722 18.328C26.7962 17.656 27.4202 16.912 28.0442 16.096C28.6682 15.28 29.2602 14.456 29.8202 13.624C30.3962 12.792 30.8922 12.024 31.3082 11.32C31.3722 11.208 31.4442 11.104 31.5242 11.008ZM42.5917 22.528C42.2397 22.528 41.9677 22.424 41.7757 22.216C41.5997 22.024 41.5117 21.8 41.5117 21.544C41.5117 21.32 41.6077 21.112 41.7997 20.92C42.0077 20.712 42.2877 20.528 42.6397 20.368C43.2797 20.032 43.8797 19.696 44.4397 19.36C45.0157 19.024 45.4797 18.664 45.8317 18.28C46.1837 17.896 46.3597 17.488 46.3597 17.056C46.3597 16.688 46.2397 16.408 45.9997 16.216C45.7597 16.008 45.4317 15.904 45.0157 15.904C44.7757 15.904 44.4397 15.952 44.0077 16.048C43.5757 16.128 43.1037 16.224 42.5917 16.336C42.0957 16.432 41.6077 16.528 41.1277 16.624C40.6477 16.704 40.2397 16.744 39.9037 16.744C39.2957 16.744 38.8397 16.6 38.5357 16.312C38.2317 16.008 38.0797 15.6 38.0797 15.088C38.0797 14.832 38.2317 14.448 38.5357 13.936C38.8397 13.424 39.2397 12.856 39.7357 12.232C40.2477 11.592 40.8077 10.952 41.4157 10.312C42.0237 9.672 42.6397 9.08 43.2637 8.536C43.9037 7.992 44.4957 7.552 45.0397 7.216C45.5997 6.88 46.0637 6.712 46.4317 6.712C46.7997 6.712 47.0797 6.832 47.2717 7.072C47.4637 7.312 47.5597 7.616 47.5597 7.984C47.5597 8.272 47.5117 8.52 47.4157 8.728C47.3197 8.92 47.1197 9.072 46.8157 9.184C46.5277 9.296 46.0797 9.36 45.4717 9.376C44.8477 9.872 44.1837 10.44 43.4797 11.08C42.7917 11.704 42.1597 12.352 41.5837 13.024C41.0237 13.68 40.6157 14.312 40.3597 14.92C40.8877 14.744 41.5277 14.592 42.2797 14.464C43.0477 14.32 43.8237 14.248 44.6077 14.248C45.8397 14.248 46.7517 14.528 47.3437 15.088C47.9517 15.632 48.2557 16.352 48.2557 17.248C48.2557 17.824 48.0717 18.424 47.7037 19.048C47.3517 19.656 46.8877 20.224 46.3117 20.752C45.7357 21.28 45.1197 21.704 44.4637 22.024C43.8077 22.36 43.1837 22.528 42.5917 22.528ZM54.8139 22.528C54.4619 22.528 54.1899 22.424 53.9979 22.216C53.8219 22.024 53.7339 21.8 53.7339 21.544C53.7339 21.32 53.8299 21.112 54.0219 20.92C54.2299 20.712 54.5099 20.528 54.8619 20.368C55.5019 20.032 56.1019 19.696 56.6619 19.36C57.2379 19.024 57.7019 18.664 58.0539 18.28C58.4059 17.896 58.5819 17.488 58.5819 17.056C58.5819 16.688 58.4619 16.408 58.2219 16.216C57.9819 16.008 57.6539 15.904 57.2379 15.904C56.9979 15.904 56.6619 15.952 56.2299 16.048C55.7979 16.128 55.3259 16.224 54.8139 16.336C54.3179 16.432 53.8299 16.528 53.3499 16.624C52.8699 16.704 52.4619 16.744 52.1259 16.744C51.5179 16.744 51.0619 16.6 50.7579 16.312C50.4539 16.008 50.3019 15.6 50.3019 15.088C50.3019 14.832 50.4539 14.448 50.7579 13.936C51.0619 13.424 51.4619 12.856 51.9579 12.232C52.4699 11.592 53.0299 10.952 53.6379 10.312C54.2459 9.672 54.8619 9.08 55.4859 8.536C56.1259 7.992 56.7179 7.552 57.2619 7.216C57.8219 6.88 58.2859 6.712 58.6539 6.712C59.0219 6.712 59.3019 6.832 59.4939 7.072C59.6859 7.312 59.7819 7.616 59.7819 7.984C59.7819 8.272 59.7339 8.52 59.6379 8.728C59.5419 8.92 59.3419 9.072 59.0379 9.184C58.7499 9.296 58.3019 9.36 57.6939 9.376C57.0699 9.872 56.4059 10.44 55.7019 11.08C55.0139 11.704 54.3819 12.352 53.8059 13.024C53.2459 13.68 52.8379 14.312 52.5819 14.92C53.1099 14.744 53.7499 14.592 54.5019 14.464C55.2699 14.32 56.0459 14.248 56.8299 14.248C58.0619 14.248 58.9739 14.528 59.5659 15.088C60.1739 15.632 60.4779 16.352 60.4779 17.248C60.4779 17.824 60.2939 18.424 59.9259 19.048C59.5739 19.656 59.1099 20.224 58.5339 20.752C57.9579 21.28 57.3419 21.704 56.6859 22.024C56.0299 22.36 55.4059 22.528 54.8139 22.528ZM67.8677 22.96C66.6357 22.96 65.6677 22.56 64.9637 21.76C64.2757 20.944 63.9317 19.808 63.9317 18.352C63.9317 17.456 64.0517 16.408 64.2917 15.208C64.5477 13.992 64.8677 12.712 65.2517 11.368C65.6517 10.008 66.0837 8.664 66.5477 7.336C67.0117 6.008 67.4597 4.776 67.8917 3.64C68.3397 2.488 68.7317 1.528 69.0677 0.759999C69.2597 0.327999 69.5317 0.111999 69.8837 0.111999C70.3637 0.111999 70.6037 0.407999 70.6037 0.999999C70.6037 1.192 70.5157 1.584 70.3397 2.176C70.1637 2.768 69.9317 3.504 69.6437 4.384C69.3557 5.248 69.0437 6.208 68.7077 7.264C68.3717 8.32 68.0277 9.408 67.6757 10.528C67.3397 11.632 67.0277 12.728 66.7397 13.816C66.4517 14.888 66.2197 15.896 66.0437 16.84C65.8677 17.784 65.7797 18.592 65.7797 19.264C65.7797 19.696 65.8917 20.04 66.1157 20.296C66.3557 20.536 66.6757 20.656 67.0757 20.656C67.8117 20.656 68.5477 20.512 69.2837 20.224C70.0357 19.92 70.7557 19.552 71.4437 19.12C72.1317 18.672 72.7557 18.232 73.3157 17.8C73.8917 17.352 74.3797 16.984 74.7797 16.696C75.1797 16.392 75.4597 16.24 75.6197 16.24C75.9717 16.24 76.1477 16.432 76.1477 16.816C76.1477 16.944 76.0197 17.184 75.7637 17.536C75.5077 17.872 75.1637 18.272 74.7317 18.736C74.2997 19.2 73.7957 19.68 73.2197 20.176C72.6597 20.656 72.0677 21.112 71.4437 21.544C70.8357 21.96 70.2197 22.296 69.5957 22.552C68.9877 22.824 68.4117 22.96 67.8677 22.96ZM85.0999 11.656C85.0999 12.168 84.9399 12.672 84.6199 13.168C84.2999 13.648 83.8759 14.112 83.3479 14.56C82.8199 14.992 82.2359 15.4 81.5959 15.784C80.9559 16.168 80.3159 16.504 79.6759 16.792C79.0359 17.08 78.4519 17.312 77.9239 17.488C77.7959 18.112 77.7319 18.664 77.7319 19.144C77.7319 19.448 77.8039 19.664 77.9479 19.792C78.0919 19.92 78.3159 19.984 78.6199 19.984C79.2919 19.984 80.0039 19.864 80.7559 19.624C81.5079 19.384 82.2759 19.072 83.0599 18.688C83.8439 18.304 84.5959 17.896 85.3159 17.464C86.0359 17.032 86.6919 16.624 87.2839 16.24C87.8919 15.856 88.3959 15.544 88.7959 15.304C89.1959 15.064 89.4599 14.944 89.5879 14.944C89.7799 14.944 89.9239 15.008 90.0199 15.136C90.1319 15.248 90.1879 15.384 90.1879 15.544C90.1879 15.672 89.9879 15.92 89.5879 16.288C89.2039 16.656 88.6839 17.088 88.0279 17.584C87.3719 18.064 86.6359 18.56 85.8199 19.072C85.0039 19.584 84.1559 20.064 83.2759 20.512C82.4119 20.96 81.5719 21.32 80.7559 21.592C79.9559 21.864 79.2359 22 78.5959 22C77.7639 22 77.1159 21.688 76.6519 21.064C76.1879 20.44 75.9559 19.472 75.9559 18.16C75.9559 17.28 76.0679 16.392 76.2919 15.496C76.5319 14.6 76.8519 13.744 77.2519 12.928C77.6679 12.096 78.1239 11.36 78.6199 10.72C79.1319 10.064 79.6679 9.552 80.2279 9.184C80.7879 8.8 81.3319 8.608 81.8599 8.608C82.8679 8.608 83.6599 8.888 84.2359 9.448C84.8119 10.008 85.0999 10.744 85.0999 11.656ZM78.4279 15.64C78.9239 15.336 79.4359 15.016 79.9639 14.68C80.4919 14.344 80.9799 14 81.4279 13.648C81.8759 13.296 82.2359 12.928 82.5079 12.544C82.7959 12.144 82.9399 11.736 82.9399 11.32C82.9399 10.728 82.6199 10.432 81.9799 10.432C81.5799 10.432 81.1559 10.688 80.7079 11.2C80.2759 11.696 79.8599 12.344 79.4599 13.144C79.0599 13.944 78.7159 14.776 78.4279 15.64ZM101.673 24.136C101.401 24.136 101.185 24.04 101.025 23.848C100.865 23.656 100.785 23.336 100.785 22.888C100.785 22.088 100.825 21.264 100.905 20.416C101.001 19.552 101.049 18.752 101.049 18.016C101.049 16.336 100.897 14.952 100.593 13.864C100.305 12.76 99.6726 12.016 98.6966 11.632C98.4726 11.552 98.3126 11.464 98.2166 11.368C98.1046 11.272 98.0486 11.12 98.0486 10.912C98.0486 10.688 98.1366 10.504 98.3126 10.36C98.4726 10.216 98.7766 10.144 99.2246 10.144C99.5926 10.144 100.081 10.16 100.689 10.192C101.297 10.224 101.953 10.256 102.657 10.288C103.153 8.512 103.713 7.04 104.337 5.872C104.961 4.704 105.641 3.784 106.377 3.112C107.129 2.44 107.921 1.96 108.753 1.672C109.601 1.384 110.481 1.24 111.393 1.24C111.793 1.24 112.049 1.296 112.161 1.408C112.273 1.504 112.329 1.656 112.329 1.864C112.329 2.12 112.249 2.392 112.089 2.68C111.929 2.952 111.601 3.128 111.105 3.208C110.017 3.4 109.049 3.752 108.201 4.264C107.353 4.776 106.617 5.52 105.993 6.496C105.369 7.456 104.849 8.72 104.433 10.288C105.969 10.256 107.289 10.176 108.393 10.048C109.497 9.904 110.417 9.752 111.153 9.592C111.905 9.416 112.505 9.272 112.953 9.16C113.401 9.032 113.745 8.968 113.985 8.968C114.257 8.968 114.425 9.04 114.489 9.184C114.553 9.328 114.585 9.48 114.585 9.64C114.585 9.944 114.297 10.24 113.721 10.528C113.145 10.8 112.385 11.048 111.441 11.272C110.513 11.48 109.489 11.648 108.369 11.776C107.249 11.904 106.145 11.968 105.057 11.968C104.881 11.968 104.705 11.968 104.529 11.968C104.369 11.968 104.201 11.968 104.025 11.968C103.993 12.08 103.969 12.2 103.953 12.328C103.793 13.256 103.633 14.24 103.473 15.28C103.329 16.304 103.193 17.312 103.065 18.304C102.953 19.28 102.865 20.168 102.801 20.968C102.737 21.768 102.705 22.408 102.705 22.888C102.705 23.288 102.609 23.592 102.417 23.8C102.225 24.024 101.977 24.136 101.673 24.136ZM102.249 11.872C101.785 11.824 101.353 11.76 100.953 11.68C101.161 11.92 101.337 12.2 101.481 12.52C101.641 12.84 101.777 13.184 101.889 13.552C102.001 12.96 102.121 12.4 102.249 11.872ZM113.138 20.456C112.882 20.456 112.666 20.352 112.49 20.144C112.314 19.936 112.226 19.648 112.226 19.28C112.226 19.008 112.282 18.56 112.394 17.936C112.522 17.296 112.658 16.552 112.802 15.704C112.962 14.856 113.098 13.976 113.21 13.064C113.322 12.136 113.378 11.248 113.378 10.4C113.378 9.984 113.482 9.68 113.69 9.488C113.914 9.28 114.162 9.176 114.434 9.176C114.69 9.176 114.882 9.336 115.01 9.656C115.138 9.976 115.162 10.616 115.082 11.576C115.818 9.944 116.626 8.632 117.506 7.64C118.402 6.632 119.29 5.912 120.17 5.48C121.05 5.032 121.842 4.808 122.546 4.808C123.01 4.808 123.346 4.904 123.554 5.096C123.778 5.272 123.89 5.472 123.89 5.696C123.89 6 123.762 6.24 123.506 6.416C123.266 6.576 122.842 6.768 122.234 6.992C121.53 7.264 120.882 7.584 120.29 7.952C119.714 8.304 119.162 8.768 118.634 9.344C118.122 9.92 117.618 10.656 117.122 11.552C116.626 12.432 116.13 13.52 115.634 14.816C115.138 16.112 114.61 17.672 114.05 19.496C113.954 19.848 113.826 20.096 113.666 20.24C113.522 20.384 113.346 20.456 113.138 20.456ZM132.817 11.656C132.817 12.168 132.657 12.672 132.337 13.168C132.017 13.648 131.593 14.112 131.065 14.56C130.537 14.992 129.953 15.4 129.313 15.784C128.673 16.168 128.033 16.504 127.393 16.792C126.753 17.08 126.169 17.312 125.641 17.488C125.513 18.112 125.449 18.664 125.449 19.144C125.449 19.448 125.521 19.664 125.665 19.792C125.809 19.92 126.033 19.984 126.337 19.984C127.009 19.984 127.721 19.864 128.473 19.624C129.225 19.384 129.993 19.072 130.777 18.688C131.561 18.304 132.313 17.896 133.033 17.464C133.753 17.032 134.409 16.624 135.001 16.24C135.609 15.856 136.113 15.544 136.513 15.304C136.913 15.064 137.177 14.944 137.305 14.944C137.497 14.944 137.641 15.008 137.737 15.136C137.849 15.248 137.905 15.384 137.905 15.544C137.905 15.672 137.705 15.92 137.305 16.288C136.921 16.656 136.401 17.088 135.745 17.584C135.089 18.064 134.353 18.56 133.537 19.072C132.721 19.584 131.873 20.064 130.993 20.512C130.129 20.96 129.289 21.32 128.473 21.592C127.673 21.864 126.953 22 126.313 22C125.481 22 124.833 21.688 124.369 21.064C123.905 20.44 123.673 19.472 123.673 18.16C123.673 17.28 123.785 16.392 124.009 15.496C124.249 14.6 124.569 13.744 124.969 12.928C125.385 12.096 125.841 11.36 126.337 10.72C126.849 10.064 127.385 9.552 127.945 9.184C128.505 8.8 129.049 8.608 129.577 8.608C130.585 8.608 131.377 8.888 131.953 9.448C132.529 10.008 132.817 10.744 132.817 11.656ZM126.145 15.64C126.641 15.336 127.153 15.016 127.681 14.68C128.209 14.344 128.697 14 129.145 13.648C129.593 13.296 129.953 12.928 130.225 12.544C130.513 12.144 130.657 11.736 130.657 11.32C130.657 10.728 130.337 10.432 129.697 10.432C129.297 10.432 128.873 10.688 128.425 11.2C127.993 11.696 127.577 12.344 127.177 13.144C126.777 13.944 126.433 14.776 126.145 15.64ZM146.234 11.656C146.234 12.168 146.074 12.672 145.754 13.168C145.434 13.648 145.01 14.112 144.482 14.56C143.954 14.992 143.37 15.4 142.73 15.784C142.09 16.168 141.45 16.504 140.81 16.792C140.17 17.08 139.586 17.312 139.058 17.488C138.93 18.112 138.866 18.664 138.866 19.144C138.866 19.448 138.938 19.664 139.082 19.792C139.226 19.92 139.45 19.984 139.754 19.984C140.426 19.984 141.138 19.864 141.89 19.624C142.642 19.384 143.41 19.072 144.194 18.688C144.978 18.304 145.73 17.896 146.45 17.464C147.17 17.032 147.826 16.624 148.418 16.24C149.026 15.856 149.53 15.544 149.93 15.304C150.33 15.064 150.594 14.944 150.722 14.944C150.914 14.944 151.058 15.008 151.154 15.136C151.266 15.248 151.322 15.384 151.322 15.544C151.322 15.672 151.122 15.92 150.722 16.288C150.338 16.656 149.818 17.088 149.162 17.584C148.506 18.064 147.77 18.56 146.954 19.072C146.138 19.584 145.29 20.064 144.41 20.512C143.546 20.96 142.706 21.32 141.89 21.592C141.09 21.864 140.37 22 139.73 22C138.898 22 138.25 21.688 137.786 21.064C137.322 20.44 137.09 19.472 137.09 18.16C137.09 17.28 137.202 16.392 137.426 15.496C137.666 14.6 137.986 13.744 138.386 12.928C138.802 12.096 139.258 11.36 139.754 10.72C140.266 10.064 140.802 9.552 141.362 9.184C141.922 8.8 142.466 8.608 142.994 8.608C144.002 8.608 144.794 8.888 145.37 9.448C145.946 10.008 146.234 10.744 146.234 11.656ZM139.562 15.64C140.058 15.336 140.57 15.016 141.098 14.68C141.626 14.344 142.114 14 142.562 13.648C143.01 13.296 143.37 12.928 143.642 12.544C143.93 12.144 144.074 11.736 144.074 11.32C144.074 10.728 143.754 10.432 143.114 10.432C142.714 10.432 142.29 10.688 141.842 11.2C141.41 11.696 140.994 12.344 140.594 13.144C140.194 13.944 139.85 14.776 139.562 15.64Z" fill="#EB87AB"/>
</svg>
