<svg width="183" height="204" viewBox="0 0 183 204" fill="none" xmlns="http://www.w3.org/2000/svg">
<path d="M116.1 157.019C117.285 160.459 110.131 163.257 85.6458 169.048C59.7236 175.159 53.804 175.455 53.7292 171.037C53.6934 164.959 114.056 151.51 116.1 157.019Z" fill="#F7B24D"/>
<path d="M100.99 27.5994C110.447 24.4092 112.157 25.8074 124.647 46.8844C137.569 68.6389 139.235 73.1241 135.784 76.1537C129.505 81.6182 124.429 77.0765 107.244 51.0545C94.5757 31.8479 94.0098 29.9541 100.99 27.5994Z" fill="#F7B24D"/>
<path d="M58.6048 81.5063C65.3775 79.1119 68.2657 79.7836 78.7363 86.0715C109.732 104.856 133.205 115.535 119.937 119.901C114.533 121.724 108.449 118.894 71.5396 98.2642C51.1842 86.7525 49.5627 84.7759 58.6048 81.5063Z" fill="#F7B24D"/>
</svg>
