<svg width="183" height="204" viewBox="0 0 183 204" fill="none" xmlns="http://www.w3.org/2000/svg">
<path d="M67.504 157.022C66.3191 160.462 73.4736 163.26 97.9587 169.051C123.881 175.162 129.8 175.458 129.875 171.039C129.911 164.962 69.5488 151.512 67.504 157.022Z" fill="#F7B24D"/>
<path d="M82.6144 27.6024C73.1572 24.4121 71.4476 25.8103 58.9571 46.8873C46.0357 68.6419 44.3692 73.1271 47.8209 76.1566C54.0999 81.6212 59.1758 77.0794 76.3602 51.0574C89.0288 31.8509 89.5947 29.957 82.6144 27.6024Z" fill="#F7B24D"/>
<path d="M125 81.5092C118.227 79.1149 115.339 79.7865 104.868 86.0745C73.8723 104.859 50.3997 115.538 63.6671 119.904C69.0712 121.727 75.1554 118.897 112.065 98.2671C132.42 86.7554 134.042 84.7788 125 81.5092Z" fill="#F7B24D"/>
</svg>
