<svg width="84" height="29" viewBox="0 0 84 29" fill="none" xmlns="http://www.w3.org/2000/svg">
<path d="M3.27116 28.48C2.48716 28.48 1.83916 28.224 1.32716 27.712C0.815155 27.2 0.559155 26.584 0.559155 25.864C0.559155 25.304 0.839155 24.824 1.39916 24.424C1.95916 24.04 2.71916 23.664 3.67916 23.296C4.62316 22.944 5.66316 22.544 6.79916 22.096C7.05516 21.152 7.31116 20.016 7.56716 18.688C7.82316 17.344 8.10316 15.76 8.40716 13.936C8.51916 13.008 8.62316 12.288 8.71916 11.776C8.81516 11.248 8.91116 10.872 9.00716 10.648C9.10316 10.424 9.20716 10.288 9.31916 10.24C9.44716 10.192 9.58316 10.168 9.72716 10.168C9.87116 10.168 10.0552 10.24 10.2792 10.384C10.5192 10.528 10.7352 10.728 10.9272 10.984C11.1192 11.24 11.2152 11.528 11.2152 11.848C11.2152 12.056 11.1752 12.36 11.0952 12.76C11.0312 13.16 10.9112 13.6 10.7352 14.08C10.5752 14.56 10.3432 15.016 10.0392 15.448C9.81516 16.6 9.60716 17.656 9.41516 18.616C9.22316 19.576 9.03116 20.456 8.83916 21.256C9.79916 20.824 10.7432 20.352 11.6712 19.84C12.5992 19.328 13.4552 18.76 14.2392 18.136C15.0232 17.496 15.6872 16.784 16.2312 16C16.3912 15.776 16.5512 15.664 16.7112 15.664C16.7912 15.664 16.8712 15.712 16.9512 15.808C17.0472 15.904 17.0952 16.064 17.0952 16.288C17.0952 16.896 16.8472 17.512 16.3512 18.136C15.8552 18.744 15.1832 19.352 14.3352 19.96C13.4872 20.552 12.5432 21.136 11.5032 21.712C10.4632 22.272 9.39116 22.808 8.28716 23.32C7.87116 24.712 7.43116 25.776 6.96716 26.512C6.51916 27.264 5.99116 27.776 5.38316 28.048C4.79116 28.336 4.08716 28.48 3.27116 28.48ZM10.0872 7.456C9.78316 7.456 9.52716 7.36 9.31916 7.168C9.11116 6.976 9.00716 6.656 9.00716 6.208C9.00716 5.68 9.19916 5.216 9.58316 4.816C9.98316 4.4 10.4152 4.192 10.8792 4.192C11.3272 4.192 11.6952 4.328 11.9832 4.6C12.2872 4.872 12.4392 5.224 12.4392 5.656C12.4392 6.024 12.3272 6.336 12.1032 6.592C11.8792 6.832 11.5912 6.952 11.2392 6.952C11.1592 6.952 11.0952 6.944 11.0472 6.928C10.8232 7.152 10.6472 7.296 10.5192 7.36C10.3912 7.424 10.2472 7.456 10.0872 7.456ZM6.15116 24.232C5.43116 24.52 4.72716 24.776 4.03916 25C3.35116 25.24 2.75116 25.44 2.23916 25.6C2.36716 26 2.55116 26.272 2.79116 26.416C3.01516 26.576 3.31116 26.656 3.67916 26.656C4.17516 26.656 4.62316 26.496 5.02316 26.176C5.40716 25.856 5.78316 25.208 6.15116 24.232ZM18.9595 22.24C18.0155 22.24 17.2715 21.88 16.7275 21.16C16.1835 20.44 15.9115 19.504 15.9115 18.352C15.9115 17.936 15.9675 17.496 16.0795 17.032C16.2075 16.552 16.3675 16.12 16.5595 15.736C16.4475 15.624 16.3595 15.472 16.2955 15.28C16.2315 15.072 16.1995 14.816 16.1995 14.512C16.1995 13.568 16.3595 12.704 16.6795 11.92C16.9995 11.136 17.4235 10.456 17.9515 9.88C18.4795 9.288 19.0635 8.832 19.7035 8.512C20.3595 8.192 21.0235 8.032 21.6955 8.032C22.7995 8.032 23.6955 8.432 24.3835 9.232C25.0715 10.016 25.4155 11.216 25.4155 12.832C25.4155 13.68 25.2875 14.544 25.0315 15.424C24.7915 16.304 24.4555 17.152 24.0235 17.968C23.6075 18.784 23.1195 19.512 22.5595 20.152C22.0155 20.792 21.4315 21.304 20.8075 21.688C20.1995 22.056 19.5835 22.24 18.9595 22.24ZM18.1435 14.92C18.2395 15.048 18.2875 15.216 18.2875 15.424C18.2875 15.664 18.2395 15.904 18.1435 16.144C18.0635 16.384 17.9755 16.712 17.8795 17.128C17.7835 17.544 17.7355 18.136 17.7355 18.904C17.7355 19.672 18.0395 20.056 18.6475 20.056C19.3195 20.056 19.9435 19.792 20.5195 19.264C21.0955 18.72 21.6075 18.024 22.0555 17.176C22.5035 16.328 22.8475 15.424 23.0875 14.464C23.3435 13.488 23.4715 12.568 23.4715 11.704C23.4715 11.144 23.3675 10.752 23.1595 10.528C22.9515 10.288 22.5755 10.168 22.0315 10.168C21.4715 10.168 20.8875 10.36 20.2795 10.744C19.6875 11.112 19.1915 11.616 18.7915 12.256C18.3915 12.896 18.1915 13.616 18.1915 14.416C18.1915 14.592 18.1755 14.76 18.1435 14.92ZM32.1996 28.168C31.3996 28.168 30.6636 28.112 29.9916 28C29.3356 27.904 28.6876 27.744 28.0476 27.52C27.4076 27.312 26.7116 27.04 25.9596 26.704C25.7356 26.592 25.5356 26.456 25.3596 26.296C25.1836 26.152 25.0956 25.984 25.0956 25.792C25.0956 25.552 25.2476 25.296 25.5516 25.024C25.8396 24.768 26.1116 24.64 26.3676 24.64C26.6396 24.64 26.9756 24.736 27.3756 24.928C27.7916 25.12 28.2716 25.344 28.8156 25.6C29.3596 25.872 29.9596 26.104 30.6156 26.296C31.2876 26.488 32.0076 26.584 32.7756 26.584C33.6076 26.584 34.3916 26.24 35.1276 25.552C35.8636 24.864 36.4636 23.872 36.9276 22.576C37.3916 21.296 37.6236 19.752 37.6236 17.944C37.6236 17.4 37.6076 16.8 37.5756 16.144C37.5596 15.472 37.5276 14.768 37.4796 14.032C37.0956 14.864 36.6636 15.688 36.1836 16.504C35.7196 17.32 35.2316 18.056 34.7196 18.712C34.2236 19.368 33.7036 19.896 33.1596 20.296C32.6316 20.68 32.0956 20.872 31.5516 20.872C30.8636 20.872 30.3676 20.696 30.0636 20.344C29.7596 19.992 29.6076 19.448 29.6076 18.712C29.6076 17.944 29.6636 17.112 29.7756 16.216C29.8876 15.32 30.0316 14.416 30.2076 13.504C30.3996 12.576 30.6236 11.696 30.8796 10.864C31.1356 10.032 31.4076 9.312 31.6956 8.704C31.8556 8.384 32.0956 8.224 32.4156 8.224C32.6396 8.224 32.8556 8.344 33.0636 8.584C33.2876 8.808 33.3996 9.104 33.3996 9.472C33.3996 9.76 33.3356 10.168 33.2076 10.696C33.0796 11.224 32.9196 11.824 32.7276 12.496C32.5356 13.168 32.3436 13.872 32.1516 14.608C31.9596 15.328 31.7996 16.04 31.6716 16.744C31.5436 17.432 31.4796 18.064 31.4796 18.64C31.4796 18.88 31.6396 19 31.9596 19C32.1356 19 32.3836 18.84 32.7036 18.52C33.0396 18.184 33.4076 17.752 33.8076 17.224C34.2236 16.68 34.6396 16.088 35.0556 15.448C35.4876 14.792 35.9036 14.144 36.3036 13.504C36.7036 12.848 37.0476 12.248 37.3356 11.704C37.3196 11.576 37.3116 11.456 37.3116 11.344C37.3116 11.232 37.3116 11.128 37.3116 11.032C37.3116 10.248 37.3916 9.76 37.5516 9.568C37.7276 9.36 37.9516 9.256 38.2236 9.256C38.6876 9.256 39.0156 9.36 39.2076 9.568C39.3996 9.776 39.4956 10.136 39.4956 10.648C39.4956 10.84 39.4716 11.048 39.4236 11.272C39.3756 11.48 39.2956 11.784 39.1836 12.184C39.3116 13.448 39.4156 14.584 39.4956 15.592C39.5916 16.6 39.6396 17.616 39.6396 18.64C39.6396 20.576 39.3276 22.256 38.7036 23.68C38.0956 25.104 37.2316 26.208 36.1116 26.992C35.0076 27.776 33.7036 28.168 32.1996 28.168ZM46.1284 24.136C45.8564 24.136 45.6404 24.04 45.4804 23.848C45.3204 23.656 45.2404 23.336 45.2404 22.888C45.2404 22.088 45.2804 21.264 45.3604 20.416C45.4564 19.552 45.5044 18.752 45.5044 18.016C45.5044 16.336 45.3524 14.952 45.0484 13.864C44.7604 12.76 44.1284 12.016 43.1524 11.632C42.9284 11.552 42.7684 11.464 42.6724 11.368C42.5604 11.272 42.5044 11.12 42.5044 10.912C42.5044 10.688 42.5924 10.504 42.7684 10.36C42.9284 10.216 43.2324 10.144 43.6804 10.144C44.0484 10.144 44.5364 10.16 45.1444 10.192C45.7524 10.224 46.4084 10.256 47.1124 10.288C47.6084 8.512 48.1684 7.04 48.7924 5.872C49.4164 4.704 50.0964 3.784 50.8324 3.112C51.5844 2.44 52.3764 1.96 53.2084 1.672C54.0564 1.384 54.9364 1.24 55.8484 1.24C56.2484 1.24 56.5044 1.296 56.6164 1.408C56.7284 1.504 56.7844 1.656 56.7844 1.864C56.7844 2.12 56.7044 2.392 56.5444 2.68C56.3844 2.952 56.0564 3.128 55.5604 3.208C54.4724 3.4 53.5044 3.752 52.6564 4.264C51.8084 4.776 51.0724 5.52 50.4484 6.496C49.8244 7.456 49.3044 8.72 48.8884 10.288C50.4244 10.256 51.7444 10.176 52.8484 10.048C53.9524 9.904 54.8724 9.752 55.6084 9.592C56.3604 9.416 56.9604 9.272 57.4084 9.16C57.8564 9.032 58.2004 8.968 58.4404 8.968C58.7124 8.968 58.8804 9.04 58.9444 9.184C59.0084 9.328 59.0404 9.48 59.0404 9.64C59.0404 9.944 58.7524 10.24 58.1764 10.528C57.6004 10.8 56.8404 11.048 55.8964 11.272C54.9684 11.48 53.9444 11.648 52.8244 11.776C51.7044 11.904 50.6004 11.968 49.5124 11.968C49.3364 11.968 49.1604 11.968 48.9844 11.968C48.8244 11.968 48.6564 11.968 48.4804 11.968C48.4484 12.08 48.4244 12.2 48.4084 12.328C48.2484 13.256 48.0884 14.24 47.9284 15.28C47.7844 16.304 47.6484 17.312 47.5204 18.304C47.4084 19.28 47.3204 20.168 47.2564 20.968C47.1924 21.768 47.1604 22.408 47.1604 22.888C47.1604 23.288 47.0644 23.592 46.8724 23.8C46.6804 24.024 46.4324 24.136 46.1284 24.136ZM46.7044 11.872C46.2404 11.824 45.8084 11.76 45.4084 11.68C45.6164 11.92 45.7924 12.2 45.9364 12.52C46.0964 12.84 46.2324 13.184 46.3444 13.552C46.4564 12.96 46.5764 12.4 46.7044 11.872ZM63.5427 22.576C63.2707 22.576 63.0387 22.456 62.8467 22.216C62.6547 21.976 62.5587 21.624 62.5587 21.16C62.5587 20.616 62.6387 19.84 62.7987 18.832C62.9747 17.824 63.2307 16.488 63.5667 14.824C63.1347 15.848 62.6547 16.816 62.1267 17.728C61.6147 18.64 61.0707 19.384 60.4947 19.96C59.9187 20.536 59.3267 20.824 58.7187 20.824C58.1267 20.824 57.5987 20.592 57.1347 20.128C56.6867 19.664 56.4627 18.848 56.4627 17.68C56.4627 17.024 56.5187 16.288 56.6307 15.472C56.7427 14.64 56.8867 13.816 57.0627 13C57.2387 12.184 57.4147 11.456 57.5907 10.816C57.7667 10.16 57.9267 9.68 58.0707 9.376C58.1827 9.12 58.2947 8.952 58.4067 8.872C58.5187 8.776 58.6707 8.728 58.8627 8.728C59.0867 8.728 59.3267 8.824 59.5827 9.016C59.8387 9.208 59.9667 9.528 59.9667 9.976C59.9667 10.088 59.9107 10.352 59.7987 10.768C59.7027 11.168 59.5747 11.664 59.4147 12.256C59.2707 12.832 59.1187 13.456 58.9587 14.128C58.7987 14.8 58.6627 15.472 58.5507 16.144C58.4547 16.816 58.4067 17.432 58.4067 17.992C58.4067 18.296 58.4387 18.544 58.5027 18.736C58.5667 18.928 58.7267 19.024 58.9827 19.024C59.2067 19.024 59.4867 18.8 59.8227 18.352C60.1747 17.904 60.5507 17.312 60.9507 16.576C61.3667 15.824 61.7907 14.992 62.2227 14.08C62.6707 13.168 63.1027 12.232 63.5187 11.272C63.9507 10.312 64.3427 9.4 64.6947 8.536C64.8227 8.248 64.9587 8.072 65.1027 8.008C65.2467 7.928 65.4067 7.888 65.5827 7.888C65.8707 7.888 66.1267 8.008 66.3507 8.248C66.5907 8.472 66.7107 8.768 66.7107 9.136C66.7107 9.376 66.6627 9.792 66.5667 10.384C66.4867 10.976 66.3667 11.672 66.2067 12.472C66.0627 13.256 65.8947 14.088 65.7027 14.968C65.5267 15.848 65.3507 16.72 65.1747 17.584C64.9987 18.432 64.8307 19.208 64.6707 19.912C64.5267 20.616 64.4067 21.184 64.3107 21.616C64.2307 22.016 64.1187 22.272 63.9747 22.384C63.8467 22.512 63.7027 22.576 63.5427 22.576ZM74.8407 22.96C73.6087 22.96 72.6407 22.56 71.9367 21.76C71.2487 20.944 70.9047 19.808 70.9047 18.352C70.9047 17.456 71.0247 16.408 71.2647 15.208C71.5207 13.992 71.8407 12.712 72.2247 11.368C72.6247 10.008 73.0567 8.664 73.5207 7.336C73.9847 6.008 74.4327 4.776 74.8647 3.64C75.3127 2.488 75.7047 1.528 76.0407 0.759999C76.2327 0.327999 76.5047 0.111999 76.8567 0.111999C77.3367 0.111999 77.5767 0.407999 77.5767 0.999999C77.5767 1.192 77.4887 1.584 77.3127 2.176C77.1367 2.768 76.9047 3.504 76.6167 4.384C76.3287 5.248 76.0167 6.208 75.6807 7.264C75.3447 8.32 75.0007 9.408 74.6487 10.528C74.3127 11.632 74.0007 12.728 73.7127 13.816C73.4247 14.888 73.1927 15.896 73.0167 16.84C72.8407 17.784 72.7527 18.592 72.7527 19.264C72.7527 19.696 72.8647 20.04 73.0887 20.296C73.3287 20.536 73.6487 20.656 74.0487 20.656C74.7847 20.656 75.5207 20.512 76.2567 20.224C77.0087 19.92 77.7287 19.552 78.4167 19.12C79.1047 18.672 79.7287 18.232 80.2887 17.8C80.8647 17.352 81.3527 16.984 81.7527 16.696C82.1527 16.392 82.4327 16.24 82.5927 16.24C82.9447 16.24 83.1207 16.432 83.1207 16.816C83.1207 16.944 82.9927 17.184 82.7367 17.536C82.4807 17.872 82.1367 18.272 81.7047 18.736C81.2727 19.2 80.7687 19.68 80.1927 20.176C79.6327 20.656 79.0407 21.112 78.4167 21.544C77.8087 21.96 77.1927 22.296 76.5687 22.552C75.9607 22.824 75.3847 22.96 74.8407 22.96Z" fill="rgba(247, 178, 77, 1)"/>
</svg>
