<svg width="30" height="53" viewBox="0 0 30 53" fill="none" xmlns="http://www.w3.org/2000/svg">
<path d="M0.538717 48.1959C4.26587 49.0755 8.24696 47.6349 11.3817 45.6571C14.2905 43.7851 16.711 41.2351 18.5588 38.3C20.4066 35.365 21.7267 32.058 22.4185 28.643C23.2277 24.6514 23.2604 20.5579 22.8127 16.5212C22.3555 12.433 21.4114 8.42413 20.2253 4.49201C20.0718 4.00814 19.9247 3.50172 19.7712 3.01785C19.541 2.29204 18.4089 2.5761 18.6392 3.30191C19.8578 7.12129 20.8635 11.0014 21.4499 14.9804C22.0108 18.8787 22.1588 22.8534 21.5755 26.7392C21.0965 30.0934 20.0279 33.3753 18.3671 36.3398C16.7773 39.2271 14.6403 41.8101 11.989 43.8052C10.6779 44.7947 9.24799 45.6035 7.72831 46.2153C6.01179 46.917 4.12182 47.3732 2.27517 47.2558C1.79822 47.216 1.35033 47.16 0.892891 47.0525C0.129339 46.9056 -0.195786 48.0329 0.538717 48.1959Z" fill="#F7B24D"/>
<path d="M15.5886 12.9481C16.3615 10.6067 17.141 8.24272 17.9139 5.90132C18.2126 5.035 18.5438 4.05594 19.3863 3.59065C20.135 3.19605 21.0438 3.26277 21.82 3.53545C22.9954 3.94772 23.9247 4.8751 24.7832 5.70883C25.317 6.22911 26.1828 5.42866 25.6265 4.90189C24.0026 3.33457 21.9248 1.56306 19.4959 2.27905C18.3217 2.62425 17.6007 3.51531 17.1403 4.60364C16.6379 5.7531 16.3028 6.99968 15.9066 8.2042C15.4098 9.67278 14.942 11.1253 14.4452 12.5939C14.2306 13.3379 15.358 13.6631 15.5886 12.9481Z" fill="#F7B24D"/>
</svg>
