<svg width="145" height="24" viewBox="0 0 145 24" fill="none" xmlns="http://www.w3.org/2000/svg">
<path d="M15.3733 22.668C15.0853 22.668 14.8373 22.54 14.6293 22.284C14.4373 22.028 14.3413 21.58 14.3413 20.94C14.3413 20.572 14.4133 20.14 14.5573 19.644C14.8773 18.636 15.2053 17.556 15.5413 16.404C15.8933 15.252 16.2213 14.076 16.5253 12.876C16.8453 11.676 17.1013 10.516 17.2933 9.396C17.4853 8.26 17.5813 7.22 17.5813 6.276C17.5813 5.956 17.5653 5.644 17.5333 5.34C17.5173 5.036 17.4773 4.748 17.4133 4.476C15.7973 6.012 14.3013 8.1 12.9253 10.74C11.5653 13.364 10.3253 16.42 9.20535 19.908C9.01335 20.436 8.77335 20.804 8.48535 21.012C8.19735 21.22 7.92535 21.324 7.66935 21.324C7.44535 21.324 7.22935 21.236 7.02135 21.06C6.81335 20.868 6.70935 20.58 6.70935 20.196C6.70935 19.94 6.77335 19.58 6.90135 19.116C7.02935 18.636 7.25335 18.196 7.57335 17.796C7.74935 16.74 7.89335 15.62 8.00535 14.436C8.13335 13.252 8.19735 12.156 8.19735 11.148C8.19735 10.684 8.17335 10.252 8.12535 9.852C8.09335 9.436 8.03735 9.076 7.95735 8.772C7.12535 9.652 6.34935 10.756 5.62935 12.084C4.92535 13.396 4.30135 14.812 3.75735 16.332C3.21335 17.836 2.75735 19.308 2.38935 20.748C2.10135 21.788 1.63735 22.308 0.997346 22.308C0.741346 22.308 0.525346 22.172 0.349346 21.9C0.189346 21.628 0.109346 21.22 0.109346 20.676C0.109346 20.148 0.237346 19.436 0.493346 18.54C0.749346 17.644 1.09335 16.66 1.52535 15.588C1.97335 14.516 2.46935 13.452 3.01335 12.396C3.57335 11.324 4.14935 10.348 4.74135 9.468C5.34935 8.572 5.94135 7.852 6.51735 7.308C7.09335 6.764 7.61335 6.492 8.07735 6.492C8.38135 6.492 8.65335 6.548 8.89335 6.66C9.13335 6.772 9.34135 7.004 9.51735 7.356C9.69335 7.692 9.82135 8.212 9.90135 8.916C9.99735 9.604 10.0453 10.524 10.0453 11.676C10.0453 11.884 10.0453 12.124 10.0453 12.396C10.5093 11.116 11.0453 9.876 11.6533 8.676C12.2773 7.46 12.9333 6.372 13.6213 5.412C14.3093 4.452 14.9973 3.692 15.6853 3.132C16.3733 2.572 17.0213 2.292 17.6293 2.292C18.3173 2.292 18.8773 2.668 19.3093 3.42C19.7413 4.156 19.9573 5.316 19.9573 6.9C19.9573 8.404 19.8373 9.868 19.5973 11.292C19.3573 12.716 19.0533 14.06 18.6853 15.324C18.3333 16.588 17.9653 17.74 17.5813 18.78C17.2133 19.804 16.8933 20.684 16.6213 21.42C16.4453 21.868 16.2613 22.188 16.0693 22.38C15.8773 22.572 15.6453 22.668 15.3733 22.668ZM33.7575 12.156C33.7575 12.668 33.5975 13.172 33.2775 13.668C32.9575 14.148 32.5335 14.612 32.0055 15.06C31.4775 15.492 30.8935 15.9 30.2535 16.284C29.6135 16.668 28.9735 17.004 28.3335 17.292C27.6935 17.58 27.1095 17.812 26.5815 17.988C26.4535 18.612 26.3895 19.164 26.3895 19.644C26.3895 19.948 26.4615 20.164 26.6055 20.292C26.7495 20.42 26.9735 20.484 27.2775 20.484C27.9495 20.484 28.6615 20.364 29.4135 20.124C30.1655 19.884 30.9335 19.572 31.7175 19.188C32.5015 18.804 33.2535 18.396 33.9735 17.964C34.6935 17.532 35.3495 17.124 35.9415 16.74C36.5495 16.356 37.0535 16.044 37.4535 15.804C37.8535 15.564 38.1175 15.444 38.2455 15.444C38.4375 15.444 38.5815 15.508 38.6775 15.636C38.7895 15.748 38.8455 15.884 38.8455 16.044C38.8455 16.172 38.6455 16.42 38.2455 16.788C37.8615 17.156 37.3415 17.588 36.6855 18.084C36.0295 18.564 35.2935 19.06 34.4775 19.572C33.6615 20.084 32.8135 20.564 31.9335 21.012C31.0695 21.46 30.2295 21.82 29.4135 22.092C28.6135 22.364 27.8935 22.5 27.2535 22.5C26.4215 22.5 25.7735 22.188 25.3095 21.564C24.8455 20.94 24.6135 19.972 24.6135 18.66C24.6135 17.78 24.7255 16.892 24.9495 15.996C25.1895 15.1 25.5095 14.244 25.9095 13.428C26.3255 12.596 26.7815 11.86 27.2775 11.22C27.7895 10.564 28.3255 10.052 28.8855 9.684C29.4455 9.3 29.9895 9.108 30.5175 9.108C31.5255 9.108 32.3175 9.388 32.8935 9.948C33.4695 10.508 33.7575 11.244 33.7575 12.156ZM27.0855 16.14C27.5815 15.836 28.0935 15.516 28.6215 15.18C29.1495 14.844 29.6375 14.5 30.0855 14.148C30.5335 13.796 30.8935 13.428 31.1655 13.044C31.4535 12.644 31.5975 12.236 31.5975 11.82C31.5975 11.228 31.2775 10.932 30.6375 10.932C30.2375 10.932 29.8135 11.188 29.3655 11.7C28.9335 12.196 28.5175 12.844 28.1175 13.644C27.7175 14.444 27.3735 15.276 27.0855 16.14ZM56.5478 21.78C56.5318 22.036 56.4278 22.244 56.2358 22.404C56.0438 22.564 55.8198 22.644 55.5638 22.644C55.2758 22.644 55.0358 22.548 54.8438 22.356C54.6518 22.164 54.5558 21.868 54.5558 21.468C54.5558 20.428 54.6038 19.3 54.6998 18.084C54.7958 16.852 54.9158 15.636 55.0598 14.436C55.2038 13.22 55.3478 12.1 55.4918 11.076C54.9638 11.828 54.3878 12.66 53.7638 13.572C53.1558 14.484 52.5318 15.388 51.8918 16.284C51.2518 17.18 50.6278 18.004 50.0198 18.756C49.4118 19.492 48.8598 20.092 48.3638 20.556C47.8678 21.004 47.4598 21.228 47.1398 21.228C46.5478 21.228 46.0358 20.996 45.6038 20.532C45.1718 20.052 44.9558 19.452 44.9558 18.732C44.9558 18.444 44.9878 18.052 45.0518 17.556C45.1158 17.044 45.1878 16.508 45.2678 15.948C45.3478 15.388 45.4198 14.868 45.4838 14.388C45.5478 13.892 45.5798 13.524 45.5798 13.284C45.5798 13.06 45.5558 12.868 45.5078 12.708C45.4758 12.532 45.3958 12.444 45.2678 12.444C45.0758 12.444 44.8118 12.66 44.4758 13.092C44.1398 13.508 43.7638 14.044 43.3478 14.7C42.9478 15.356 42.5318 16.052 42.0998 16.788C41.6838 17.524 41.2918 18.22 40.9238 18.876C40.5558 19.516 40.2438 20.02 39.9878 20.388C39.7798 20.74 39.5878 20.996 39.4118 21.156C39.2358 21.316 39.0198 21.396 38.7638 21.396C38.4598 21.396 38.1798 21.236 37.9238 20.916C37.6838 20.596 37.5638 20.204 37.5638 19.74C37.5638 19.468 37.6118 19.044 37.7078 18.468C37.8038 17.876 37.9238 17.228 38.0678 16.524C38.2278 15.82 38.3798 15.132 38.5238 14.46C38.6838 13.772 38.8198 13.188 38.9318 12.708C39.0598 12.164 39.2198 11.796 39.4118 11.604C39.6038 11.412 39.8118 11.316 40.0358 11.316C40.3398 11.316 40.5798 11.428 40.7558 11.652C40.9478 11.86 41.0438 12.188 41.0438 12.636C41.0438 12.716 40.9958 12.932 40.8998 13.284C40.8038 13.62 40.6838 14.036 40.5398 14.532C40.4118 15.012 40.2678 15.516 40.1078 16.044C39.9638 16.572 39.8438 17.06 39.7478 17.508C40.0998 16.916 40.4678 16.276 40.8518 15.588C41.2518 14.9 41.6518 14.22 42.0518 13.548C42.4518 12.86 42.8518 12.236 43.2518 11.676C43.6518 11.1 44.0438 10.644 44.4278 10.308C44.8118 9.972 45.1798 9.804 45.5318 9.804C45.9478 9.804 46.3318 9.932 46.6838 10.188C47.0518 10.444 47.3478 10.788 47.5718 11.22C47.7958 11.652 47.9078 12.132 47.9078 12.66C47.9078 13.028 47.8438 13.548 47.7158 14.22C47.5878 14.876 47.4518 15.588 47.3078 16.356C47.1798 17.124 47.0998 17.852 47.0678 18.54C47.0678 18.7 47.1158 18.78 47.2118 18.78C47.2918 18.78 47.3878 18.724 47.4998 18.612C47.9638 18.1 48.4758 17.484 49.0358 16.764C49.5958 16.028 50.1638 15.252 50.7398 14.436C51.3318 13.62 51.9158 12.82 52.4918 12.036C53.0678 11.236 53.6038 10.516 54.0998 9.876C54.6118 9.22 55.0598 8.7 55.4438 8.316C55.8438 7.932 56.1558 7.74 56.3798 7.74C56.8598 7.74 57.2278 7.876 57.4838 8.148C57.7398 8.42 57.8678 8.876 57.8678 9.516C57.8678 10.028 57.8278 10.692 57.7478 11.508C57.6838 12.324 57.5958 13.212 57.4838 14.172C57.3878 15.132 57.2758 16.1 57.1478 17.076C57.0358 18.036 56.9238 18.932 56.8118 19.764C56.6998 20.58 56.6118 21.252 56.5478 21.78ZM65.0667 22.74C64.1227 22.74 63.3787 22.38 62.8347 21.66C62.2907 20.94 62.0187 20.004 62.0187 18.852C62.0187 18.436 62.0747 17.996 62.1867 17.532C62.3147 17.052 62.4747 16.62 62.6667 16.236C62.5547 16.124 62.4667 15.972 62.4027 15.78C62.3387 15.572 62.3067 15.316 62.3067 15.012C62.3067 14.068 62.4667 13.204 62.7867 12.42C63.1067 11.636 63.5307 10.956 64.0587 10.38C64.5867 9.788 65.1707 9.332 65.8107 9.012C66.4667 8.692 67.1307 8.532 67.8027 8.532C68.9067 8.532 69.8027 8.932 70.4907 9.732C71.1787 10.516 71.5227 11.716 71.5227 13.332C71.5227 14.18 71.3947 15.044 71.1387 15.924C70.8987 16.804 70.5627 17.652 70.1307 18.468C69.7147 19.284 69.2267 20.012 68.6667 20.652C68.1227 21.292 67.5387 21.804 66.9147 22.188C66.3067 22.556 65.6907 22.74 65.0667 22.74ZM64.2507 15.42C64.3467 15.548 64.3947 15.716 64.3947 15.924C64.3947 16.164 64.3467 16.404 64.2507 16.644C64.1707 16.884 64.0827 17.212 63.9867 17.628C63.8907 18.044 63.8427 18.636 63.8427 19.404C63.8427 20.172 64.1467 20.556 64.7547 20.556C65.4267 20.556 66.0507 20.292 66.6267 19.764C67.2027 19.22 67.7147 18.524 68.1627 17.676C68.6107 16.828 68.9547 15.924 69.1947 14.964C69.4507 13.988 69.5787 13.068 69.5787 12.204C69.5787 11.644 69.4747 11.252 69.2667 11.028C69.0587 10.788 68.6827 10.668 68.1387 10.668C67.5787 10.668 66.9947 10.86 66.3867 11.244C65.7947 11.612 65.2987 12.116 64.8987 12.756C64.4987 13.396 64.2987 14.116 64.2987 14.916C64.2987 15.092 64.2827 15.26 64.2507 15.42ZM75.4598 22.956C75.2038 22.956 74.9878 22.852 74.8118 22.644C74.6358 22.436 74.5478 22.148 74.5478 21.78C74.5478 21.508 74.6038 21.06 74.7158 20.436C74.8438 19.796 74.9798 19.052 75.1238 18.204C75.2838 17.356 75.4198 16.476 75.5318 15.564C75.6438 14.636 75.6998 13.748 75.6998 12.9C75.6998 12.484 75.8038 12.18 76.0118 11.988C76.2358 11.78 76.4838 11.676 76.7558 11.676C77.0118 11.676 77.2038 11.836 77.3318 12.156C77.4598 12.476 77.4838 13.116 77.4038 14.076C78.1398 12.444 78.9478 11.132 79.8278 10.14C80.7238 9.132 81.6118 8.412 82.4918 7.98C83.3718 7.532 84.1638 7.308 84.8678 7.308C85.3318 7.308 85.6678 7.404 85.8758 7.596C86.0998 7.772 86.2118 7.972 86.2118 8.196C86.2118 8.5 86.0838 8.74 85.8278 8.916C85.5878 9.076 85.1638 9.268 84.5558 9.492C83.8518 9.764 83.2038 10.084 82.6118 10.452C82.0358 10.804 81.4838 11.268 80.9558 11.844C80.4438 12.42 79.9398 13.156 79.4438 14.052C78.9478 14.932 78.4518 16.02 77.9558 17.316C77.4598 18.612 76.9318 20.172 76.3718 21.996C76.2758 22.348 76.1478 22.596 75.9878 22.74C75.8438 22.884 75.6678 22.956 75.4598 22.956ZM86.0783 23.124C85.4703 23.124 84.9663 22.844 84.5663 22.284C84.1823 21.708 83.9903 20.964 83.9903 20.052C83.9903 19.204 84.1983 18.364 84.6143 17.532C85.0463 16.7 85.6143 15.9 86.3183 15.132C87.0223 14.364 87.7903 13.66 88.6223 13.02C89.4543 12.364 90.2863 11.796 91.1183 11.316C91.9663 10.836 92.7423 10.46 93.4463 10.188C94.1503 9.916 94.7103 9.78 95.1263 9.78C95.3503 9.78 95.5343 9.828 95.6783 9.924C95.8223 10.004 95.8943 10.156 95.8943 10.38C95.8943 10.524 95.8383 10.66 95.7263 10.788C95.7423 10.788 95.7583 10.788 95.7743 10.788C96.1263 10.788 96.3023 10.996 96.3023 11.412C96.3023 11.556 96.2463 11.852 96.1343 12.3C96.0223 12.732 95.8943 13.276 95.7503 13.932C95.6063 14.588 95.4783 15.316 95.3663 16.116C95.2543 16.9 95.1983 17.7 95.1983 18.516C95.1983 19.204 95.4623 19.548 95.9903 19.548C96.5823 19.548 97.1823 19.412 97.7903 19.14C98.3983 18.868 98.9903 18.54 99.5663 18.156C100.142 17.756 100.67 17.364 101.15 16.98C101.63 16.58 102.038 16.244 102.374 15.972C102.71 15.7 102.95 15.564 103.094 15.564C103.222 15.564 103.334 15.604 103.43 15.684C103.526 15.764 103.574 15.892 103.574 16.068C103.574 16.228 103.414 16.516 103.094 16.932C102.774 17.348 102.35 17.82 101.822 18.348C101.294 18.876 100.702 19.388 100.046 19.884C99.3903 20.38 98.7183 20.788 98.0303 21.108C97.3423 21.428 96.6863 21.588 96.0623 21.588C95.5823 21.588 95.1423 21.444 94.7423 21.156C94.3583 20.852 94.0463 20.34 93.8063 19.62C93.5823 18.9 93.4703 17.908 93.4703 16.644V16.044C92.6863 17.34 91.8623 18.524 90.9983 19.596C90.1503 20.668 89.3023 21.524 88.4543 22.164C87.6223 22.804 86.8303 23.124 86.0783 23.124ZM94.6703 11.508C94.5903 11.54 94.4783 11.588 94.3343 11.652C93.5983 11.988 92.8303 12.404 92.0303 12.9C91.2463 13.396 90.4783 13.948 89.7263 14.556C88.9903 15.164 88.3263 15.796 87.7343 16.452C87.1423 17.108 86.6703 17.772 86.3183 18.444C85.9663 19.116 85.7903 19.772 85.7903 20.412C85.7903 20.62 85.8303 20.78 85.9103 20.892C86.0063 21.004 86.1663 21.06 86.3903 21.06C86.7103 21.06 87.1263 20.86 87.6383 20.46C88.1503 20.044 88.7103 19.5 89.3183 18.828C89.9423 18.156 90.5663 17.412 91.1903 16.596C91.8143 15.78 92.4063 14.956 92.9663 14.124C93.5423 13.292 94.0383 12.524 94.4543 11.82C94.5183 11.708 94.5903 11.604 94.6703 11.508ZM104.796 22.524C104.108 22.524 103.62 22.388 103.332 22.116C103.044 21.844 102.9 21.444 102.9 20.916C102.9 18.26 103.38 15.484 104.34 12.588C105.3 9.676 106.644 6.756 108.372 3.828C108.596 3.46 108.772 3.228 108.9 3.132C109.044 3.036 109.212 2.988 109.404 2.988C109.628 2.988 109.828 3.068 110.004 3.228C110.18 3.388 110.268 3.604 110.268 3.876C110.268 4.02 110.124 4.412 109.836 5.052C109.548 5.676 109.18 6.484 108.732 7.476C108.284 8.468 107.804 9.58 107.292 10.812C106.796 12.028 106.324 13.3 105.876 14.628C105.428 15.956 105.068 17.276 104.796 18.588C105.164 18.044 105.604 17.46 106.116 16.836C106.644 16.212 107.204 15.588 107.796 14.964C108.388 14.34 108.988 13.772 109.596 13.26C110.22 12.748 110.82 12.34 111.396 12.036C111.972 11.732 112.5 11.58 112.98 11.58C113.604 11.58 114.148 11.844 114.612 12.372C115.092 12.884 115.332 13.66 115.332 14.7C115.332 15.58 115.092 16.484 114.612 17.412C114.132 18.324 113.428 19.172 112.5 19.956C111.588 20.724 110.484 21.348 109.188 21.828C107.892 22.292 106.428 22.524 104.796 22.524ZM104.892 20.7C106.22 20.7 107.428 20.476 108.516 20.028C109.604 19.58 110.532 19.012 111.3 18.324C112.084 17.62 112.684 16.892 113.1 16.14C113.532 15.372 113.748 14.676 113.748 14.052C113.748 13.604 113.596 13.38 113.292 13.38C112.924 13.38 112.452 13.556 111.876 13.908C111.3 14.26 110.676 14.724 110.004 15.3C109.348 15.876 108.692 16.5 108.036 17.172C107.38 17.828 106.772 18.468 106.212 19.092C105.668 19.716 105.228 20.252 104.892 20.7ZM122.401 23.46C121.169 23.46 120.201 23.06 119.497 22.26C118.809 21.444 118.465 20.308 118.465 18.852C118.465 17.956 118.585 16.908 118.825 15.708C119.081 14.492 119.401 13.212 119.785 11.868C120.185 10.508 120.617 9.164 121.081 7.836C121.545 6.508 121.993 5.276 122.425 4.14C122.873 2.988 123.265 2.028 123.601 1.26C123.793 0.827999 124.065 0.611999 124.417 0.611999C124.897 0.611999 125.137 0.907999 125.137 1.5C125.137 1.692 125.049 2.084 124.873 2.676C124.697 3.268 124.465 4.004 124.177 4.884C123.889 5.748 123.577 6.708 123.241 7.764C122.905 8.82 122.561 9.908 122.209 11.028C121.873 12.132 121.561 13.228 121.273 14.316C120.985 15.388 120.753 16.396 120.577 17.34C120.401 18.284 120.313 19.092 120.313 19.764C120.313 20.196 120.425 20.54 120.649 20.796C120.889 21.036 121.209 21.156 121.609 21.156C122.345 21.156 123.081 21.012 123.817 20.724C124.569 20.42 125.289 20.052 125.977 19.62C126.665 19.172 127.289 18.732 127.849 18.3C128.425 17.852 128.913 17.484 129.313 17.196C129.713 16.892 129.993 16.74 130.153 16.74C130.505 16.74 130.681 16.932 130.681 17.316C130.681 17.444 130.553 17.684 130.297 18.036C130.041 18.372 129.697 18.772 129.265 19.236C128.833 19.7 128.329 20.18 127.753 20.676C127.193 21.156 126.601 21.612 125.977 22.044C125.369 22.46 124.753 22.796 124.129 23.052C123.521 23.324 122.945 23.46 122.401 23.46ZM139.633 12.156C139.633 12.668 139.473 13.172 139.153 13.668C138.833 14.148 138.409 14.612 137.881 15.06C137.353 15.492 136.769 15.9 136.129 16.284C135.489 16.668 134.849 17.004 134.209 17.292C133.569 17.58 132.985 17.812 132.457 17.988C132.329 18.612 132.265 19.164 132.265 19.644C132.265 19.948 132.337 20.164 132.481 20.292C132.625 20.42 132.849 20.484 133.153 20.484C133.825 20.484 134.537 20.364 135.289 20.124C136.041 19.884 136.809 19.572 137.593 19.188C138.377 18.804 139.129 18.396 139.849 17.964C140.569 17.532 141.225 17.124 141.817 16.74C142.425 16.356 142.929 16.044 143.329 15.804C143.729 15.564 143.993 15.444 144.121 15.444C144.313 15.444 144.457 15.508 144.553 15.636C144.665 15.748 144.721 15.884 144.721 16.044C144.721 16.172 144.521 16.42 144.121 16.788C143.737 17.156 143.217 17.588 142.561 18.084C141.905 18.564 141.169 19.06 140.353 19.572C139.537 20.084 138.689 20.564 137.809 21.012C136.945 21.46 136.105 21.82 135.289 22.092C134.489 22.364 133.769 22.5 133.129 22.5C132.297 22.5 131.649 22.188 131.185 21.564C130.721 20.94 130.489 19.972 130.489 18.66C130.489 17.78 130.601 16.892 130.825 15.996C131.065 15.1 131.385 14.244 131.785 13.428C132.201 12.596 132.657 11.86 133.153 11.22C133.665 10.564 134.201 10.052 134.761 9.684C135.321 9.3 135.865 9.108 136.393 9.108C137.401 9.108 138.193 9.388 138.769 9.948C139.345 10.508 139.633 11.244 139.633 12.156ZM132.961 16.14C133.457 15.836 133.969 15.516 134.497 15.18C135.025 14.844 135.513 14.5 135.961 14.148C136.409 13.796 136.769 13.428 137.041 13.044C137.329 12.644 137.473 12.236 137.473 11.82C137.473 11.228 137.153 10.932 136.513 10.932C136.113 10.932 135.689 11.188 135.241 11.7C134.809 12.196 134.393 12.844 133.993 13.644C133.593 14.444 133.249 15.276 132.961 16.14Z" fill="rgba(247, 178, 77, 1)"/>
</svg>
