<svg width="64" height="29" viewBox="0 0 64 29" fill="none" xmlns="http://www.w3.org/2000/svg">
<path d="M9.62473 6.8C9.44473 6.78667 9.36139 6.67 9.37473 6.45C9.38139 6.39667 9.41806 6.33333 9.48473 6.26C9.55139 6.18 9.62806 6.13667 9.71473 6.13C9.92139 6.11 10.1747 6.08 10.4747 6.04C10.7814 5.99333 11.1181 5.94 11.4847 5.88C11.5514 5.55333 11.6314 5.21 11.7247 4.85C11.8181 4.49 11.9214 4.14 12.0347 3.8C12.1481 3.45333 12.2681 3.14 12.3947 2.86C12.5214 2.58 12.6547 2.36 12.7947 2.2C12.8681 2.12667 12.9347 2.07667 12.9947 2.05C13.0547 2.01667 13.1081 2 13.1547 2C13.2481 2 13.3214 2.04 13.3747 2.12C13.4347 2.2 13.4647 2.29 13.4647 2.39C13.4647 2.44333 13.4547 2.49667 13.4347 2.55C13.3014 2.92333 13.1581 3.38333 13.0047 3.93C12.8514 4.47667 12.6881 5.07333 12.5147 5.72C13.1281 5.62 13.7414 5.51333 14.3547 5.4C14.9681 5.28667 15.4947 5.18333 15.9347 5.09C16.0614 5.03667 16.1581 5.04667 16.2247 5.12C16.2981 5.19333 16.3347 5.26667 16.3347 5.34C16.3347 5.43333 16.3081 5.50333 16.2547 5.55C16.2081 5.59667 16.1581 5.63667 16.1047 5.67L16.0947 5.68C15.9614 5.73333 15.7614 5.79667 15.4947 5.87C15.2281 5.93667 14.9214 6.01 14.5747 6.09C14.2281 6.16333 13.8581 6.23667 13.4647 6.31C13.0781 6.38333 12.6947 6.45 12.3147 6.51C12.1614 7.09667 12.0047 7.7 11.8447 8.32C11.6914 8.93333 11.5381 9.53667 11.3847 10.13C11.3181 10.37 11.2414 10.52 11.1547 10.58C11.0747 10.6467 10.9881 10.68 10.8947 10.68C10.7881 10.68 10.6947 10.64 10.6147 10.56C10.5414 10.48 10.5314 10.3167 10.5847 10.07L11.3147 6.66C10.9147 6.72 10.5614 6.76333 10.2547 6.79C9.95473 6.81667 9.74473 6.82 9.62473 6.8ZM15.9162 10.26C15.6629 10.26 15.4529 10.1433 15.2862 9.91C15.1262 9.67 15.0462 9.36 15.0462 8.98C15.0462 8.62667 15.1329 8.27667 15.3062 7.93C15.4862 7.58333 15.7229 7.25 16.0162 6.93C16.3095 6.61 16.6295 6.31667 16.9762 6.05C17.3229 5.77667 17.6695 5.54 18.0162 5.34C18.3695 5.14 18.6929 4.98333 18.9862 4.87C19.2795 4.75667 19.5129 4.7 19.6862 4.7C19.7795 4.7 19.8562 4.72 19.9162 4.76C19.9762 4.79333 20.0062 4.85667 20.0062 4.95C20.0062 5.01 19.9829 5.06667 19.9362 5.12C19.9429 5.12 19.9495 5.12 19.9562 5.12C20.1029 5.12 20.1762 5.20667 20.1762 5.38C20.1762 5.44 20.1529 5.56333 20.1062 5.75C20.0595 5.93 20.0062 6.15667 19.9462 6.43C19.8862 6.70333 19.8329 7.00667 19.7862 7.34C19.7395 7.66667 19.7162 8 19.7162 8.34C19.7162 8.62667 19.8262 8.77 20.0462 8.77C20.2929 8.77 20.5429 8.71333 20.7962 8.6C21.0495 8.48667 21.2962 8.35 21.5362 8.19C21.7762 8.02333 21.9962 7.86 22.1962 7.7C22.3962 7.53333 22.5662 7.39333 22.7062 7.28C22.8462 7.16667 22.9462 7.11 23.0062 7.11C23.0595 7.11 23.1062 7.12667 23.1462 7.16C23.1862 7.19333 23.2062 7.24667 23.2062 7.32C23.2062 7.38667 23.1395 7.50667 23.0062 7.68C22.8729 7.85333 22.6962 8.05 22.4762 8.27C22.2562 8.49 22.0095 8.70333 21.7362 8.91C21.4629 9.11667 21.1829 9.28667 20.8962 9.42C20.6095 9.55333 20.3362 9.62 20.0762 9.62C19.8762 9.62 19.6929 9.56 19.5262 9.44C19.3662 9.31333 19.2362 9.1 19.1362 8.8C19.0429 8.5 18.9962 8.08667 18.9962 7.56V7.31C18.6695 7.85 18.3262 8.34333 17.9662 8.79C17.6129 9.23667 17.2595 9.59333 16.9062 9.86C16.5595 10.1267 16.2295 10.26 15.9162 10.26ZM19.4962 5.42C19.4629 5.43333 19.4162 5.45333 19.3562 5.48C19.0495 5.62 18.7295 5.79333 18.3962 6C18.0695 6.20667 17.7495 6.43667 17.4362 6.69C17.1295 6.94333 16.8529 7.20667 16.6062 7.48C16.3595 7.75333 16.1629 8.03 16.0162 8.31C15.8695 8.59 15.7962 8.86333 15.7962 9.13C15.7962 9.21667 15.8129 9.28333 15.8462 9.33C15.8862 9.37667 15.9529 9.4 16.0462 9.4C16.1795 9.4 16.3529 9.31667 16.5662 9.15C16.7795 8.97667 17.0129 8.75 17.2662 8.47C17.5262 8.19 17.7862 7.88 18.0462 7.54C18.3062 7.2 18.5529 6.85667 18.7862 6.51C19.0262 6.16333 19.2329 5.84333 19.4062 5.55C19.4329 5.50333 19.4629 5.46 19.4962 5.42ZM23.1769 10.05C23.0502 10.05 22.9369 10.0033 22.8369 9.91C22.7369 9.81 22.6869 9.65667 22.6869 9.45C22.6869 9.30333 22.7069 9.1 22.7469 8.84C22.7869 8.57333 22.8402 8.28333 22.9069 7.97C22.9736 7.65667 23.0436 7.34667 23.1169 7.04C23.1969 6.72667 23.2769 6.44667 23.3569 6.2C23.4369 5.95333 23.5069 5.77 23.5669 5.65C23.6202 5.55667 23.6702 5.49667 23.7169 5.47C23.7702 5.44333 23.8202 5.43 23.8669 5.43C23.9602 5.43 24.0402 5.46 24.1069 5.52C24.1802 5.58 24.2169 5.69667 24.2169 5.87C24.2169 5.97 24.1969 6.13667 24.1569 6.37C24.1236 6.59667 24.0769 6.86333 24.0169 7.17C23.9636 7.47 23.9036 7.78 23.8369 8.1C23.7769 8.41333 23.7169 8.71333 23.6569 9C23.5969 9.28667 23.5502 9.52667 23.5169 9.72C23.4902 9.82667 23.4436 9.91 23.3769 9.97C23.3169 10.0233 23.2502 10.05 23.1769 10.05ZM24.1569 4.52C24.0036 4.52 23.8569 4.47333 23.7169 4.38C23.5836 4.28667 23.5169 4.13667 23.5169 3.93C23.5169 3.75667 23.5569 3.61667 23.6369 3.51C23.7236 3.40333 23.8236 3.32667 23.9369 3.28C24.0569 3.22667 24.1602 3.2 24.2469 3.2C24.3336 3.2 24.4302 3.22 24.5369 3.26C24.6502 3.29333 24.7469 3.36 24.8269 3.46C24.9069 3.55333 24.9469 3.69333 24.9469 3.88C24.9469 4.00667 24.9036 4.12 24.8169 4.22C24.7302 4.31333 24.6236 4.38667 24.4969 4.44C24.3769 4.49333 24.2636 4.52 24.1569 4.52ZM27.6913 10.4C27.178 10.4 26.7746 10.2333 26.4813 9.9C26.1946 9.56 26.0513 9.08667 26.0513 8.48C26.0513 8.10667 26.1013 7.67 26.2013 7.17C26.308 6.66333 26.4413 6.13 26.6013 5.57C26.768 5.00333 26.948 4.44333 27.1413 3.89C27.3346 3.33667 27.5213 2.82333 27.7013 2.35C27.888 1.87 28.0513 1.47 28.1913 1.15C28.2713 0.969999 28.3846 0.879999 28.5313 0.879999C28.7313 0.879999 28.8313 1.00333 28.8313 1.25C28.8313 1.33 28.7946 1.49333 28.7213 1.74C28.648 1.98667 28.5513 2.29333 28.4313 2.66C28.3113 3.02 28.1813 3.42 28.0413 3.86C27.9013 4.3 27.758 4.75333 27.6113 5.22C27.4713 5.68 27.3413 6.13667 27.2213 6.59C27.1013 7.03667 27.0046 7.45667 26.9313 7.85C26.858 8.24333 26.8213 8.58 26.8213 8.86C26.8213 9.04 26.868 9.18333 26.9613 9.29C27.0613 9.39 27.1946 9.44 27.3613 9.44C27.668 9.44 27.9746 9.38 28.2813 9.26C28.5946 9.13333 28.8946 8.98 29.1813 8.8C29.468 8.61333 29.728 8.43 29.9613 8.25C30.2013 8.06333 30.4046 7.91 30.5713 7.79C30.738 7.66333 30.8546 7.6 30.9213 7.6C31.068 7.6 31.1413 7.68 31.1413 7.84C31.1413 7.89333 31.088 7.99333 30.9813 8.14C30.8746 8.28 30.7313 8.44667 30.5513 8.64C30.3713 8.83333 30.1613 9.03333 29.9213 9.24C29.688 9.44 29.4413 9.63 29.1813 9.81C28.928 9.98333 28.6713 10.1233 28.4113 10.23C28.158 10.3433 27.918 10.4 27.6913 10.4ZM32.1067 10.1C31.7133 10.1 31.4033 9.95 31.1767 9.65C30.95 9.35 30.8367 8.96 30.8367 8.48C30.8367 8.30667 30.86 8.12333 30.9067 7.93C30.96 7.73 31.0267 7.55 31.1067 7.39C31.06 7.34333 31.0233 7.28 30.9967 7.2C30.97 7.11333 30.9567 7.00667 30.9567 6.88C30.9567 6.48667 31.0233 6.12667 31.1567 5.8C31.29 5.47333 31.4667 5.19 31.6867 4.95C31.9067 4.70333 32.15 4.51333 32.4167 4.38C32.69 4.24667 32.9667 4.18 33.2467 4.18C33.7067 4.18 34.08 4.34667 34.3667 4.68C34.6533 5.00667 34.7967 5.50667 34.7967 6.18C34.7967 6.53333 34.7433 6.89333 34.6367 7.26C34.5367 7.62667 34.3967 7.98 34.2167 8.32C34.0433 8.66 33.84 8.96333 33.6067 9.23C33.38 9.49667 33.1367 9.71 32.8767 9.87C32.6233 10.0233 32.3667 10.1 32.1067 10.1ZM31.7667 7.05C31.8067 7.10333 31.8267 7.17333 31.8267 7.26C31.8267 7.36 31.8067 7.46 31.7667 7.56C31.7333 7.66 31.6967 7.79667 31.6567 7.97C31.6167 8.14333 31.5967 8.39 31.5967 8.71C31.5967 9.03 31.7233 9.19 31.9767 9.19C32.2567 9.19 32.5167 9.08 32.7567 8.86C32.9967 8.63333 33.21 8.34333 33.3967 7.99C33.5833 7.63667 33.7267 7.26 33.8267 6.86C33.9333 6.45333 33.9867 6.07 33.9867 5.71C33.9867 5.47667 33.9433 5.31333 33.8567 5.22C33.77 5.12 33.6133 5.07 33.3867 5.07C33.1533 5.07 32.91 5.15 32.6567 5.31C32.41 5.46333 32.2033 5.67333 32.0367 5.94C31.87 6.20667 31.7867 6.50667 31.7867 6.84C31.7867 6.91333 31.78 6.98333 31.7667 7.05ZM36.4371 10.19C36.3305 10.19 36.2405 10.1467 36.1671 10.06C36.0938 9.97333 36.0571 9.85333 36.0571 9.7C36.0571 9.58667 36.0805 9.4 36.1271 9.14C36.1805 8.87333 36.2371 8.56333 36.2971 8.21C36.3638 7.85667 36.4205 7.49 36.4671 7.11C36.5138 6.72333 36.5371 6.35333 36.5371 6C36.5371 5.82667 36.5805 5.7 36.6671 5.62C36.7605 5.53333 36.8638 5.49 36.9771 5.49C37.0838 5.49 37.1638 5.55667 37.2171 5.69C37.2705 5.82333 37.2805 6.09 37.2471 6.49C37.5538 5.81 37.8905 5.26333 38.2571 4.85C38.6305 4.43 39.0005 4.13 39.3671 3.95C39.7338 3.76333 40.0638 3.67 40.3571 3.67C40.5505 3.67 40.6905 3.71 40.7771 3.79C40.8705 3.86333 40.9171 3.94667 40.9171 4.04C40.9171 4.16667 40.8638 4.26667 40.7571 4.34C40.6571 4.40667 40.4805 4.48667 40.2271 4.58C39.9338 4.69333 39.6638 4.82667 39.4171 4.98C39.1771 5.12667 38.9471 5.32 38.7271 5.56C38.5138 5.8 38.3038 6.10667 38.0971 6.48C37.8905 6.84667 37.6838 7.3 37.4771 7.84C37.2705 8.38 37.0505 9.03 36.8171 9.79C36.7771 9.93667 36.7238 10.04 36.6571 10.1C36.5971 10.16 36.5238 10.19 36.4371 10.19ZM44.6366 5.69C44.6366 5.90333 44.5699 6.11333 44.4366 6.32C44.3033 6.52 44.1266 6.71333 43.9066 6.9C43.6866 7.08 43.4433 7.25 43.1766 7.41C42.9099 7.57 42.6433 7.71 42.3766 7.83C42.1099 7.95 41.8666 8.04667 41.6466 8.12C41.5933 8.38 41.5666 8.61 41.5666 8.81C41.5666 8.93667 41.5966 9.02667 41.6566 9.08C41.7166 9.13333 41.8099 9.16 41.9366 9.16C42.2166 9.16 42.5133 9.11 42.8266 9.01C43.1399 8.91 43.4599 8.78 43.7866 8.62C44.1133 8.46 44.4266 8.29 44.7266 8.11C45.0266 7.93 45.2999 7.76 45.5466 7.6C45.7999 7.44 46.0099 7.31 46.1766 7.21C46.3433 7.11 46.4533 7.06 46.5066 7.06C46.5866 7.06 46.6466 7.08667 46.6866 7.14C46.7333 7.18667 46.7566 7.24333 46.7566 7.31C46.7566 7.36333 46.6733 7.46667 46.5066 7.62C46.3466 7.77333 46.1299 7.95333 45.8566 8.16C45.5833 8.36 45.2766 8.56667 44.9366 8.78C44.5966 8.99333 44.2433 9.19333 43.8766 9.38C43.5166 9.56667 43.1666 9.71667 42.8266 9.83C42.4933 9.94333 42.1933 10 41.9266 10C41.5799 10 41.3099 9.87 41.1166 9.61C40.9233 9.35 40.8266 8.94667 40.8266 8.4C40.8266 8.03333 40.8733 7.66333 40.9666 7.29C41.0666 6.91667 41.1999 6.56 41.3666 6.22C41.5399 5.87333 41.7299 5.56667 41.9366 5.3C42.1499 5.02667 42.3733 4.81333 42.6066 4.66C42.8399 4.5 43.0666 4.42 43.2866 4.42C43.7066 4.42 44.0366 4.53667 44.2766 4.77C44.5166 5.00333 44.6366 5.31 44.6366 5.69ZM41.8566 7.35C42.0633 7.22333 42.2766 7.09 42.4966 6.95C42.7166 6.81 42.9199 6.66667 43.1066 6.52C43.2933 6.37333 43.4433 6.22 43.5566 6.06C43.6766 5.89333 43.7366 5.72333 43.7366 5.55C43.7366 5.30333 43.6033 5.18 43.3366 5.18C43.1699 5.18 42.9933 5.28667 42.8066 5.5C42.6266 5.70667 42.4533 5.97667 42.2866 6.31C42.1199 6.64333 41.9766 6.99 41.8566 7.35ZM50.3276 4.97C50.5076 4.53667 50.6776 4.09 50.8376 3.63C51.0043 3.17 51.1543 2.7 51.2876 2.22C51.3276 2.08667 51.3876 1.98 51.4676 1.9C51.5543 1.81333 51.6543 1.77 51.7676 1.77C51.8476 1.77 51.9143 1.8 51.9676 1.86C52.0276 1.92 52.0576 2 52.0576 2.1C52.0576 2.22667 52.0076 2.44667 51.9076 2.76C51.8143 3.07333 51.6943 3.47 51.5476 3.95C51.4076 4.43 51.2643 4.98333 51.1176 5.61C50.9776 6.23 50.8576 6.91667 50.7576 7.67C50.6643 8.42333 50.6176 9.22667 50.6176 10.08C50.6176 10.2667 50.5776 10.42 50.4976 10.54C50.4176 10.6667 50.321 10.73 50.2076 10.73C50.141 10.73 50.0776 10.7133 50.0176 10.68C49.9576 10.6467 49.9043 10.5667 49.8576 10.44C49.8176 10.32 49.7843 10.13 49.7576 9.87C49.731 9.60333 49.7176 9.24333 49.7176 8.79C49.7176 8.44333 49.7376 8.06667 49.7776 7.66C49.471 8.21333 49.1376 8.69667 48.7776 9.11C48.4243 9.51667 48.081 9.83 47.7476 10.05C47.421 10.27 47.141 10.38 46.9076 10.38C46.621 10.38 46.3876 10.2833 46.2076 10.09C46.0343 9.90333 45.9476 9.62333 45.9476 9.25C45.9476 8.92333 46.0243 8.58667 46.1776 8.24C46.331 7.89333 46.5343 7.55333 46.7876 7.22C47.041 6.88 47.321 6.56 47.6276 6.26C47.9343 5.96 48.241 5.69667 48.5476 5.47C48.861 5.23667 49.151 5.05667 49.4176 4.93C49.6843 4.79667 49.901 4.73 50.0676 4.73C50.1343 4.73 50.1943 4.75333 50.2476 4.8C50.301 4.84667 50.3276 4.90333 50.3276 4.97ZM50.1976 5.28C50.151 5.32667 50.0943 5.37333 50.0276 5.42C49.961 5.46667 49.8876 5.51667 49.8076 5.57C49.5143 5.77667 49.191 6.01667 48.8376 6.29C48.491 6.55667 48.1576 6.85 47.8376 7.17C47.5243 7.48333 47.2676 7.81333 47.0676 8.16C46.8676 8.50667 46.7676 8.86333 46.7676 9.23C46.7676 9.39 46.8476 9.47 47.0076 9.47C47.2276 9.47 47.4676 9.36667 47.7276 9.16C47.9943 8.94667 48.2676 8.65333 48.5476 8.28C48.8276 7.9 49.1076 7.45667 49.3876 6.95C49.6676 6.43667 49.9376 5.88 50.1976 5.28ZM1.45699 28.7C1.13033 28.7 0.860325 28.5933 0.646992 28.38C0.433658 28.1667 0.326992 27.91 0.326992 27.61C0.326992 27.3767 0.443658 27.1767 0.676992 27.01C0.910325 26.85 1.22699 26.6933 1.62699 26.54C2.02033 26.3933 2.45366 26.2267 2.92699 26.04C3.03366 25.6467 3.14033 25.1733 3.24699 24.62C3.35366 24.06 3.47033 23.4 3.59699 22.64C3.64366 22.2533 3.68699 21.9533 3.72699 21.74C3.76699 21.52 3.80699 21.3633 3.84699 21.27C3.88699 21.1767 3.93033 21.12 3.97699 21.1C4.03033 21.08 4.08699 21.07 4.14699 21.07C4.20699 21.07 4.28366 21.1 4.37699 21.16C4.47699 21.22 4.56699 21.3033 4.64699 21.41C4.72699 21.5167 4.76699 21.6367 4.76699 21.77C4.76699 21.8567 4.75033 21.9833 4.71699 22.15C4.69033 22.3167 4.64033 22.5 4.56699 22.7C4.50033 22.9 4.40366 23.09 4.27699 23.27C4.18366 23.75 4.09699 24.19 4.01699 24.59C3.93699 24.99 3.85699 25.3567 3.77699 25.69C4.17699 25.51 4.57033 25.3133 4.95699 25.1C5.34366 24.8867 5.70033 24.65 6.02699 24.39C6.35366 24.1233 6.63033 23.8267 6.85699 23.5C6.92366 23.4067 6.99033 23.36 7.05699 23.36C7.09033 23.36 7.12366 23.38 7.15699 23.42C7.19699 23.46 7.21699 23.5267 7.21699 23.62C7.21699 23.8733 7.11366 24.13 6.90699 24.39C6.70033 24.6433 6.42033 24.8967 6.06699 25.15C5.71366 25.3967 5.32033 25.64 4.88699 25.88C4.45366 26.1133 4.00699 26.3367 3.54699 26.55C3.37366 27.13 3.19033 27.5733 2.99699 27.88C2.81033 28.1933 2.59033 28.4067 2.33699 28.52C2.09033 28.64 1.79699 28.7 1.45699 28.7ZM4.29699 19.94C4.17033 19.94 4.06366 19.9 3.97699 19.82C3.89033 19.74 3.84699 19.6067 3.84699 19.42C3.84699 19.2 3.92699 19.0067 4.08699 18.84C4.25366 18.6667 4.43366 18.58 4.62699 18.58C4.81366 18.58 4.96699 18.6367 5.08699 18.75C5.21366 18.8633 5.27699 19.01 5.27699 19.19C5.27699 19.3433 5.23033 19.4733 5.13699 19.58C5.04366 19.68 4.92366 19.73 4.77699 19.73C4.74366 19.73 4.71699 19.7267 4.69699 19.72C4.60366 19.8133 4.53033 19.8733 4.47699 19.9C4.42366 19.9267 4.36366 19.94 4.29699 19.94ZM2.65699 26.93C2.35699 27.05 2.06366 27.1567 1.77699 27.25C1.49033 27.35 1.24033 27.4333 1.02699 27.5C1.08033 27.6667 1.15699 27.78 1.25699 27.84C1.35033 27.9067 1.47366 27.94 1.62699 27.94C1.83366 27.94 2.02033 27.8733 2.18699 27.74C2.34699 27.6067 2.50366 27.3367 2.65699 26.93ZM9.8373 26.24C9.72397 26.24 9.6273 26.19 9.5473 26.09C9.4673 25.99 9.4273 25.8433 9.4273 25.65C9.4273 25.4233 9.46064 25.1 9.5273 24.68C9.60064 24.26 9.7073 23.7033 9.8473 23.01C9.6673 23.4367 9.4673 23.84 9.2473 24.22C9.03397 24.6 8.8073 24.91 8.5673 25.15C8.3273 25.39 8.08064 25.51 7.8273 25.51C7.58064 25.51 7.36064 25.4133 7.1673 25.22C6.98064 25.0267 6.8873 24.6867 6.8873 24.2C6.8873 23.9267 6.91064 23.62 6.9573 23.28C7.00397 22.9333 7.06397 22.59 7.1373 22.25C7.21064 21.91 7.28397 21.6067 7.3573 21.34C7.43064 21.0667 7.4973 20.8667 7.5573 20.74C7.60397 20.6333 7.65064 20.5633 7.6973 20.53C7.74397 20.49 7.8073 20.47 7.8873 20.47C7.98064 20.47 8.08064 20.51 8.1873 20.59C8.29397 20.67 8.3473 20.8033 8.3473 20.99C8.3473 21.0367 8.32397 21.1467 8.2773 21.32C8.2373 21.4867 8.18397 21.6933 8.1173 21.94C8.0573 22.18 7.99397 22.44 7.9273 22.72C7.86064 23 7.80397 23.28 7.7573 23.56C7.7173 23.84 7.6973 24.0967 7.6973 24.33C7.6973 24.4567 7.71064 24.56 7.7373 24.64C7.76397 24.72 7.83064 24.76 7.9373 24.76C8.03064 24.76 8.1473 24.6667 8.2873 24.48C8.43397 24.2933 8.59064 24.0467 8.7573 23.74C8.93064 23.4267 9.1073 23.08 9.2873 22.7C9.47397 22.32 9.65397 21.93 9.8273 21.53C10.0073 21.13 10.1706 20.75 10.3173 20.39C10.3706 20.27 10.4273 20.1967 10.4873 20.17C10.5473 20.1367 10.614 20.12 10.6873 20.12C10.8073 20.12 10.914 20.17 11.0073 20.27C11.1073 20.3633 11.1573 20.4867 11.1573 20.64C11.1573 20.74 11.1373 20.9133 11.0973 21.16C11.064 21.4067 11.014 21.6967 10.9473 22.03C10.8873 22.3567 10.8173 22.7033 10.7373 23.07C10.664 23.4367 10.5906 23.8 10.5173 24.16C10.444 24.5133 10.374 24.8367 10.3073 25.13C10.2473 25.4233 10.1973 25.66 10.1573 25.84C10.124 26.0067 10.0773 26.1133 10.0173 26.16C9.96397 26.2133 9.90397 26.24 9.8373 26.24ZM14.0909 26.22C13.9442 26.22 13.8309 26.1767 13.7509 26.09C13.6776 26.01 13.6409 25.9167 13.6409 25.81C13.6409 25.7167 13.6809 25.63 13.7609 25.55C13.8476 25.4633 13.9642 25.3867 14.1109 25.32C14.3776 25.18 14.6276 25.04 14.8609 24.9C15.1009 24.76 15.2942 24.61 15.4409 24.45C15.5876 24.29 15.6609 24.12 15.6609 23.94C15.6609 23.7867 15.6109 23.67 15.5109 23.59C15.4109 23.5033 15.2742 23.46 15.1009 23.46C15.0009 23.46 14.8609 23.48 14.6809 23.52C14.5009 23.5533 14.3042 23.5933 14.0909 23.64C13.8842 23.68 13.6809 23.72 13.4809 23.76C13.2809 23.7933 13.1109 23.81 12.9709 23.81C12.7176 23.81 12.5276 23.75 12.4009 23.63C12.2742 23.5033 12.2109 23.3333 12.2109 23.12C12.2109 23.0133 12.2742 22.8533 12.4009 22.64C12.5276 22.4267 12.6942 22.19 12.9009 21.93C13.1142 21.6633 13.3476 21.3967 13.6009 21.13C13.8542 20.8633 14.1109 20.6167 14.3709 20.39C14.6376 20.1633 14.8842 19.98 15.1109 19.84C15.3442 19.7 15.5376 19.63 15.6909 19.63C15.8442 19.63 15.9609 19.68 16.0409 19.78C16.1209 19.88 16.1609 20.0067 16.1609 20.16C16.1609 20.28 16.1409 20.3833 16.1009 20.47C16.0609 20.55 15.9776 20.6133 15.8509 20.66C15.7309 20.7067 15.5442 20.7333 15.2909 20.74C15.0309 20.9467 14.7542 21.1833 14.4609 21.45C14.1742 21.71 13.9109 21.98 13.6709 22.26C13.4376 22.5333 13.2676 22.7967 13.1609 23.05C13.3809 22.9767 13.6476 22.9133 13.9609 22.86C14.2809 22.8 14.6042 22.77 14.9309 22.77C15.4442 22.77 15.8242 22.8867 16.0709 23.12C16.3242 23.3467 16.4509 23.6467 16.4509 24.02C16.4509 24.26 16.3742 24.51 16.2209 24.77C16.0742 25.0233 15.8809 25.26 15.6409 25.48C15.4009 25.7 15.1442 25.8767 14.8709 26.01C14.5976 26.15 14.3376 26.22 14.0909 26.22ZM17.0439 22.8C16.8639 22.7867 16.7805 22.67 16.7939 22.45C16.8005 22.3967 16.8372 22.3333 16.9039 22.26C16.9705 22.18 17.0472 22.1367 17.1339 22.13C17.3405 22.11 17.5939 22.08 17.8939 22.04C18.2005 21.9933 18.5372 21.94 18.9039 21.88C18.9705 21.5533 19.0505 21.21 19.1439 20.85C19.2372 20.49 19.3405 20.14 19.4539 19.8C19.5672 19.4533 19.6872 19.14 19.8139 18.86C19.9405 18.58 20.0739 18.36 20.2139 18.2C20.2872 18.1267 20.3539 18.0767 20.4139 18.05C20.4739 18.0167 20.5272 18 20.5739 18C20.6672 18 20.7405 18.04 20.7939 18.12C20.8539 18.2 20.8839 18.29 20.8839 18.39C20.8839 18.4433 20.8739 18.4967 20.8539 18.55C20.7205 18.9233 20.5772 19.3833 20.4239 19.93C20.2705 20.4767 20.1072 21.0733 19.9339 21.72C20.5472 21.62 21.1605 21.5133 21.7739 21.4C22.3872 21.2867 22.9139 21.1833 23.3539 21.09C23.4805 21.0367 23.5772 21.0467 23.6439 21.12C23.7172 21.1933 23.7539 21.2667 23.7539 21.34C23.7539 21.4333 23.7272 21.5033 23.6739 21.55C23.6272 21.5967 23.5772 21.6367 23.5239 21.67L23.5139 21.68C23.3805 21.7333 23.1805 21.7967 22.9139 21.87C22.6472 21.9367 22.3405 22.01 21.9939 22.09C21.6472 22.1633 21.2772 22.2367 20.8839 22.31C20.4972 22.3833 20.1139 22.45 19.7339 22.51C19.5805 23.0967 19.4239 23.7 19.2639 24.32C19.1105 24.9333 18.9572 25.5367 18.8039 26.13C18.7372 26.37 18.6605 26.52 18.5739 26.58C18.4939 26.6467 18.4072 26.68 18.3139 26.68C18.2072 26.68 18.1139 26.64 18.0339 26.56C17.9605 26.48 17.9505 26.3167 18.0039 26.07L18.7339 22.66C18.3339 22.72 17.9805 22.7633 17.6739 22.79C17.3739 22.8167 17.1639 22.82 17.0439 22.8ZM28.4739 26.89C28.3606 26.89 28.2706 26.85 28.2039 26.77C28.1373 26.69 28.1039 26.5567 28.1039 26.37C28.1039 26.0367 28.1206 25.6933 28.1539 25.34C28.1939 24.98 28.2139 24.6467 28.2139 24.34C28.2139 23.64 28.1506 23.0633 28.0239 22.61C27.9039 22.15 27.6406 21.84 27.2339 21.68C27.1406 21.6467 27.0739 21.61 27.0339 21.57C26.9873 21.53 26.9639 21.4667 26.9639 21.38C26.9639 21.2867 27.0006 21.21 27.0739 21.15C27.1406 21.09 27.2673 21.06 27.4539 21.06C27.6073 21.06 27.8106 21.0667 28.0639 21.08C28.3173 21.0933 28.5906 21.1067 28.8839 21.12C29.0906 20.38 29.3239 19.7667 29.5839 19.28C29.8439 18.7933 30.1273 18.41 30.4339 18.13C30.7473 17.85 31.0773 17.65 31.4239 17.53C31.7773 17.41 32.1439 17.35 32.5239 17.35C32.6906 17.35 32.7973 17.3733 32.8439 17.42C32.8906 17.46 32.9139 17.5233 32.9139 17.61C32.9139 17.7167 32.8806 17.83 32.8139 17.95C32.7473 18.0633 32.6106 18.1367 32.4039 18.17C31.9506 18.25 31.5473 18.3967 31.1939 18.61C30.8406 18.8233 30.5339 19.1333 30.2739 19.54C30.0139 19.94 29.7973 20.4667 29.6239 21.12C30.2639 21.1067 30.8139 21.0733 31.2739 21.02C31.7339 20.96 32.1173 20.8967 32.4239 20.83C32.7373 20.7567 32.9873 20.6967 33.1739 20.65C33.3606 20.5967 33.5039 20.57 33.6039 20.57C33.7173 20.57 33.7873 20.6 33.8139 20.66C33.8406 20.72 33.8539 20.7833 33.8539 20.85C33.8539 20.9767 33.7339 21.1 33.4939 21.22C33.2539 21.3333 32.9373 21.4367 32.5439 21.53C32.1573 21.6167 31.7306 21.6867 31.2639 21.74C30.7973 21.7933 30.3373 21.82 29.8839 21.82C29.8106 21.82 29.7373 21.82 29.6639 21.82C29.5973 21.82 29.5273 21.82 29.4539 21.82C29.4406 21.8667 29.4306 21.9167 29.4239 21.97C29.3573 22.3567 29.2906 22.7667 29.2239 23.2C29.1639 23.6267 29.1073 24.0467 29.0539 24.46C29.0073 24.8667 28.9706 25.2367 28.9439 25.57C28.9173 25.9033 28.9039 26.17 28.9039 26.37C28.9039 26.5367 28.8639 26.6633 28.7839 26.75C28.7039 26.8433 28.6006 26.89 28.4739 26.89ZM28.7139 21.78C28.5206 21.76 28.3406 21.7333 28.1739 21.7C28.2606 21.8 28.3339 21.9167 28.3939 22.05C28.4606 22.1833 28.5173 22.3267 28.5639 22.48C28.6106 22.2333 28.6606 22 28.7139 21.78ZM33.7887 26.1C33.3954 26.1 33.0854 25.95 32.8587 25.65C32.632 25.35 32.5187 24.96 32.5187 24.48C32.5187 24.3067 32.542 24.1233 32.5887 23.93C32.642 23.73 32.7087 23.55 32.7887 23.39C32.742 23.3433 32.7054 23.28 32.6787 23.2C32.652 23.1133 32.6387 23.0067 32.6387 22.88C32.6387 22.4867 32.7054 22.1267 32.8387 21.8C32.972 21.4733 33.1487 21.19 33.3687 20.95C33.5887 20.7033 33.832 20.5133 34.0987 20.38C34.372 20.2467 34.6487 20.18 34.9287 20.18C35.3887 20.18 35.762 20.3467 36.0487 20.68C36.3354 21.0067 36.4787 21.5067 36.4787 22.18C36.4787 22.5333 36.4254 22.8933 36.3187 23.26C36.2187 23.6267 36.0787 23.98 35.8987 24.32C35.7254 24.66 35.522 24.9633 35.2887 25.23C35.062 25.4967 34.8187 25.71 34.5587 25.87C34.3054 26.0233 34.0487 26.1 33.7887 26.1ZM33.4487 23.05C33.4887 23.1033 33.5087 23.1733 33.5087 23.26C33.5087 23.36 33.4887 23.46 33.4487 23.56C33.4154 23.66 33.3787 23.7967 33.3387 23.97C33.2987 24.1433 33.2787 24.39 33.2787 24.71C33.2787 25.03 33.4054 25.19 33.6587 25.19C33.9387 25.19 34.1987 25.08 34.4387 24.86C34.6787 24.6333 34.892 24.3433 35.0787 23.99C35.2654 23.6367 35.4087 23.26 35.5087 22.86C35.6154 22.4533 35.6687 22.07 35.6687 21.71C35.6687 21.4767 35.6254 21.3133 35.5387 21.22C35.452 21.12 35.2954 21.07 35.0687 21.07C34.8354 21.07 34.592 21.15 34.3387 21.31C34.092 21.4633 33.8854 21.6733 33.7187 21.94C33.552 22.2067 33.4687 22.5067 33.4687 22.84C33.4687 22.9133 33.462 22.9833 33.4487 23.05ZM38.1192 26.19C38.0125 26.19 37.9225 26.1467 37.8492 26.06C37.7758 25.9733 37.7392 25.8533 37.7392 25.7C37.7392 25.5867 37.7625 25.4 37.8092 25.14C37.8625 24.8733 37.9192 24.5633 37.9792 24.21C38.0458 23.8567 38.1025 23.49 38.1492 23.11C38.1958 22.7233 38.2192 22.3533 38.2192 22C38.2192 21.8267 38.2625 21.7 38.3492 21.62C38.4425 21.5333 38.5458 21.49 38.6592 21.49C38.7658 21.49 38.8458 21.5567 38.8992 21.69C38.9525 21.8233 38.9625 22.09 38.9292 22.49C39.2358 21.81 39.5725 21.2633 39.9392 20.85C40.3125 20.43 40.6825 20.13 41.0492 19.95C41.4158 19.7633 41.7458 19.67 42.0392 19.67C42.2325 19.67 42.3725 19.71 42.4592 19.79C42.5525 19.8633 42.5992 19.9467 42.5992 20.04C42.5992 20.1667 42.5458 20.2667 42.4392 20.34C42.3392 20.4067 42.1625 20.4867 41.9092 20.58C41.6158 20.6933 41.3458 20.8267 41.0992 20.98C40.8592 21.1267 40.6292 21.32 40.4092 21.56C40.1958 21.8 39.9858 22.1067 39.7792 22.48C39.5725 22.8467 39.3658 23.3 39.1592 23.84C38.9525 24.38 38.7325 25.03 38.4992 25.79C38.4592 25.9367 38.4058 26.04 38.3392 26.1C38.2792 26.16 38.2058 26.19 38.1192 26.19ZM49.0902 28.57C48.7569 28.57 48.4502 28.5467 48.1702 28.5C47.8969 28.46 47.6269 28.3933 47.3602 28.3C47.0935 28.2133 46.8035 28.1 46.4902 27.96C46.3969 27.9133 46.3135 27.8567 46.2402 27.79C46.1669 27.73 46.1302 27.66 46.1302 27.58C46.1302 27.48 46.1935 27.3733 46.3202 27.26C46.4402 27.1533 46.5535 27.1 46.6602 27.1C46.7735 27.1 46.9135 27.14 47.0802 27.22C47.2535 27.3 47.4535 27.3933 47.6802 27.5C47.9069 27.6133 48.1569 27.71 48.4302 27.79C48.7102 27.87 49.0102 27.91 49.3302 27.91C49.6769 27.91 50.0035 27.7667 50.3102 27.48C50.6169 27.1933 50.8669 26.78 51.0602 26.24C51.2535 25.7067 51.3502 25.0633 51.3502 24.31C51.3502 24.0833 51.3435 23.8333 51.3302 23.56C51.3235 23.28 51.3102 22.9867 51.2902 22.68C51.1302 23.0267 50.9502 23.37 50.7502 23.71C50.5569 24.05 50.3535 24.3567 50.1402 24.63C49.9335 24.9033 49.7169 25.1233 49.4902 25.29C49.2702 25.45 49.0469 25.53 48.8202 25.53C48.5335 25.53 48.3269 25.4567 48.2002 25.31C48.0735 25.1633 48.0102 24.9367 48.0102 24.63C48.0102 24.31 48.0335 23.9633 48.0802 23.59C48.1269 23.2167 48.1869 22.84 48.2602 22.46C48.3402 22.0733 48.4335 21.7067 48.5402 21.36C48.6469 21.0133 48.7602 20.7133 48.8802 20.46C48.9469 20.3267 49.0469 20.26 49.1802 20.26C49.2735 20.26 49.3635 20.31 49.4502 20.41C49.5435 20.5033 49.5902 20.6267 49.5902 20.78C49.5902 20.9 49.5635 21.07 49.5102 21.29C49.4569 21.51 49.3902 21.76 49.3102 22.04C49.2302 22.32 49.1502 22.6133 49.0702 22.92C48.9902 23.22 48.9235 23.5167 48.8702 23.81C48.8169 24.0967 48.7902 24.36 48.7902 24.6C48.7902 24.7 48.8569 24.75 48.9902 24.75C49.0635 24.75 49.1669 24.6833 49.3002 24.55C49.4402 24.41 49.5935 24.23 49.7602 24.01C49.9335 23.7833 50.1069 23.5367 50.2802 23.27C50.4602 22.9967 50.6335 22.7267 50.8002 22.46C50.9669 22.1867 51.1102 21.9367 51.2302 21.71C51.2235 21.6567 51.2202 21.6067 51.2202 21.56C51.2202 21.5133 51.2202 21.47 51.2202 21.43C51.2202 21.1033 51.2535 20.9 51.3202 20.82C51.3935 20.7333 51.4869 20.69 51.6002 20.69C51.7935 20.69 51.9302 20.7333 52.0102 20.82C52.0902 20.9067 52.1302 21.0567 52.1302 21.27C52.1302 21.35 52.1202 21.4367 52.1002 21.53C52.0802 21.6167 52.0469 21.7433 52.0002 21.91C52.0535 22.4367 52.0969 22.91 52.1302 23.33C52.1702 23.75 52.1902 24.1733 52.1902 24.6C52.1902 25.4067 52.0602 26.1067 51.8002 26.7C51.5469 27.2933 51.1869 27.7533 50.7202 28.08C50.2602 28.4067 49.7169 28.57 49.0902 28.57ZM55.4286 26.1C55.0352 26.1 54.7252 25.95 54.4986 25.65C54.2719 25.35 54.1586 24.96 54.1586 24.48C54.1586 24.3067 54.1819 24.1233 54.2286 23.93C54.2819 23.73 54.3486 23.55 54.4286 23.39C54.3819 23.3433 54.3452 23.28 54.3186 23.2C54.2919 23.1133 54.2786 23.0067 54.2786 22.88C54.2786 22.4867 54.3452 22.1267 54.4786 21.8C54.6119 21.4733 54.7886 21.19 55.0086 20.95C55.2286 20.7033 55.4719 20.5133 55.7386 20.38C56.0119 20.2467 56.2886 20.18 56.5686 20.18C57.0286 20.18 57.4019 20.3467 57.6886 20.68C57.9752 21.0067 58.1186 21.5067 58.1186 22.18C58.1186 22.5333 58.0652 22.8933 57.9586 23.26C57.8586 23.6267 57.7186 23.98 57.5386 24.32C57.3652 24.66 57.1619 24.9633 56.9286 25.23C56.7019 25.4967 56.4586 25.71 56.1986 25.87C55.9452 26.0233 55.6886 26.1 55.4286 26.1ZM55.0886 23.05C55.1286 23.1033 55.1486 23.1733 55.1486 23.26C55.1486 23.36 55.1286 23.46 55.0886 23.56C55.0552 23.66 55.0186 23.7967 54.9786 23.97C54.9386 24.1433 54.9186 24.39 54.9186 24.71C54.9186 25.03 55.0452 25.19 55.2986 25.19C55.5786 25.19 55.8386 25.08 56.0786 24.86C56.3186 24.6333 56.5319 24.3433 56.7186 23.99C56.9052 23.6367 57.0486 23.26 57.1486 22.86C57.2552 22.4533 57.3086 22.07 57.3086 21.71C57.3086 21.4767 57.2652 21.3133 57.1786 21.22C57.0919 21.12 56.9352 21.07 56.7086 21.07C56.4752 21.07 56.2319 21.15 55.9786 21.31C55.7319 21.4633 55.5252 21.6733 55.3586 21.94C55.1919 22.2067 55.1086 22.5067 55.1086 22.84C55.1086 22.9133 55.1019 22.9833 55.0886 23.05ZM62.599 26.24C62.4857 26.24 62.389 26.19 62.309 26.09C62.229 25.99 62.189 25.8433 62.189 25.65C62.189 25.4233 62.2224 25.1 62.289 24.68C62.3624 24.26 62.469 23.7033 62.609 23.01C62.429 23.4367 62.229 23.84 62.009 24.22C61.7957 24.6 61.569 24.91 61.329 25.15C61.089 25.39 60.8424 25.51 60.589 25.51C60.3424 25.51 60.1224 25.4133 59.929 25.22C59.7424 25.0267 59.649 24.6867 59.649 24.2C59.649 23.9267 59.6724 23.62 59.719 23.28C59.7657 22.9333 59.8257 22.59 59.899 22.25C59.9724 21.91 60.0457 21.6067 60.119 21.34C60.1924 21.0667 60.259 20.8667 60.319 20.74C60.3657 20.6333 60.4124 20.5633 60.459 20.53C60.5057 20.49 60.569 20.47 60.649 20.47C60.7424 20.47 60.8424 20.51 60.949 20.59C61.0557 20.67 61.109 20.8033 61.109 20.99C61.109 21.0367 61.0857 21.1467 61.039 21.32C60.999 21.4867 60.9457 21.6933 60.879 21.94C60.819 22.18 60.7557 22.44 60.689 22.72C60.6224 23 60.5657 23.28 60.519 23.56C60.479 23.84 60.459 24.0967 60.459 24.33C60.459 24.4567 60.4724 24.56 60.499 24.64C60.5257 24.72 60.5924 24.76 60.699 24.76C60.7924 24.76 60.909 24.6667 61.049 24.48C61.1957 24.2933 61.3524 24.0467 61.519 23.74C61.6924 23.4267 61.869 23.08 62.049 22.7C62.2357 22.32 62.4157 21.93 62.589 21.53C62.769 21.13 62.9324 20.75 63.079 20.39C63.1324 20.27 63.189 20.1967 63.249 20.17C63.309 20.1367 63.3757 20.12 63.449 20.12C63.569 20.12 63.6757 20.17 63.769 20.27C63.869 20.3633 63.919 20.4867 63.919 20.64C63.919 20.74 63.899 20.9133 63.859 21.16C63.8257 21.4067 63.7757 21.6967 63.709 22.03C63.649 22.3567 63.579 22.7033 63.499 23.07C63.4257 23.4367 63.3524 23.8 63.279 24.16C63.2057 24.5133 63.1357 24.8367 63.069 25.13C63.009 25.4233 62.959 25.66 62.919 25.84C62.8857 26.0067 62.839 26.1133 62.779 26.16C62.7257 26.2133 62.6657 26.24 62.599 26.24Z" fill="#F7B24D"/>
</svg>
