<svg width="265" height="29" viewBox="0 0 265 29" fill="none" xmlns="http://www.w3.org/2000/svg">
<path d="M1.62012 14.32C1.18812 14.288 0.988122 14.008 1.02012 13.48C1.03612 13.352 1.12412 13.2 1.28412 13.024C1.44412 12.832 1.62812 12.728 1.83612 12.712C2.33212 12.664 2.94012 12.592 3.66012 12.496C4.39612 12.384 5.20412 12.256 6.08412 12.112C6.24412 11.328 6.43612 10.504 6.66012 9.64C6.88412 8.776 7.13212 7.936 7.40412 7.12C7.67612 6.288 7.96412 5.536 8.26812 4.864C8.57212 4.192 8.89212 3.664 9.22812 3.28C9.40412 3.104 9.56412 2.984 9.70812 2.92C9.85212 2.84 9.98012 2.8 10.0921 2.8C10.3161 2.8 10.4921 2.896 10.6201 3.088C10.7641 3.28 10.8361 3.496 10.8361 3.736C10.8361 3.864 10.8121 3.992 10.7641 4.12C10.4441 5.016 10.1001 6.12 9.73212 7.432C9.36412 8.744 8.97212 10.176 8.55612 11.728C10.0281 11.488 11.5001 11.232 12.9721 10.96C14.4441 10.688 15.7081 10.44 16.7641 10.216C17.0681 10.088 17.3001 10.112 17.4601 10.288C17.6361 10.464 17.7241 10.64 17.7241 10.816C17.7241 11.04 17.6601 11.208 17.5321 11.32C17.4201 11.432 17.3001 11.528 17.1721 11.608L17.1481 11.632C16.8281 11.76 16.3481 11.912 15.7081 12.088C15.0681 12.248 14.3321 12.424 13.5001 12.616C12.6681 12.792 11.7801 12.968 10.8361 13.144C9.90812 13.32 8.98812 13.48 8.07612 13.624C7.70812 15.032 7.33212 16.48 6.94812 17.968C6.58012 19.44 6.21212 20.888 5.84412 22.312C5.68412 22.888 5.50012 23.248 5.29212 23.392C5.10012 23.552 4.89212 23.632 4.66812 23.632C4.41212 23.632 4.18812 23.536 3.99612 23.344C3.82012 23.152 3.79612 22.76 3.92412 22.168L5.67612 13.984C4.71612 14.128 3.86812 14.232 3.13212 14.296C2.41212 14.36 1.90812 14.368 1.62012 14.32ZM16.7197 22.624C16.1117 22.624 15.6077 22.344 15.2077 21.784C14.8237 21.208 14.6317 20.464 14.6317 19.552C14.6317 18.704 14.8397 17.864 15.2557 17.032C15.6877 16.2 16.2557 15.4 16.9597 14.632C17.6637 13.864 18.4317 13.16 19.2637 12.52C20.0957 11.864 20.9277 11.296 21.7597 10.816C22.6077 10.336 23.3837 9.96 24.0877 9.688C24.7917 9.416 25.3517 9.28 25.7677 9.28C25.9917 9.28 26.1757 9.328 26.3197 9.424C26.4637 9.504 26.5357 9.656 26.5357 9.88C26.5357 10.024 26.4797 10.16 26.3677 10.288C26.3837 10.288 26.3997 10.288 26.4157 10.288C26.7677 10.288 26.9437 10.496 26.9437 10.912C26.9437 11.056 26.8877 11.352 26.7757 11.8C26.6637 12.232 26.5357 12.776 26.3917 13.432C26.2477 14.088 26.1197 14.816 26.0077 15.616C25.8957 16.4 25.8397 17.2 25.8397 18.016C25.8397 18.704 26.1037 19.048 26.6317 19.048C27.2237 19.048 27.8237 18.912 28.4317 18.64C29.0397 18.368 29.6317 18.04 30.2077 17.656C30.7837 17.256 31.3117 16.864 31.7917 16.48C32.2717 16.08 32.6797 15.744 33.0157 15.472C33.3517 15.2 33.5917 15.064 33.7357 15.064C33.8637 15.064 33.9757 15.104 34.0717 15.184C34.1677 15.264 34.2157 15.392 34.2157 15.568C34.2157 15.728 34.0557 16.016 33.7357 16.432C33.4157 16.848 32.9917 17.32 32.4637 17.848C31.9357 18.376 31.3437 18.888 30.6877 19.384C30.0317 19.88 29.3597 20.288 28.6717 20.608C27.9837 20.928 27.3277 21.088 26.7037 21.088C26.2237 21.088 25.7837 20.944 25.3837 20.656C24.9997 20.352 24.6877 19.84 24.4477 19.12C24.2237 18.4 24.1117 17.408 24.1117 16.144V15.544C23.3277 16.84 22.5037 18.024 21.6397 19.096C20.7917 20.168 19.9437 21.024 19.0957 21.664C18.2637 22.304 17.4717 22.624 16.7197 22.624ZM25.3117 11.008C25.2317 11.04 25.1197 11.088 24.9757 11.152C24.2397 11.488 23.4717 11.904 22.6717 12.4C21.8877 12.896 21.1197 13.448 20.3677 14.056C19.6317 14.664 18.9677 15.296 18.3757 15.952C17.7837 16.608 17.3117 17.272 16.9597 17.944C16.6077 18.616 16.4317 19.272 16.4317 19.912C16.4317 20.12 16.4717 20.28 16.5517 20.392C16.6477 20.504 16.8077 20.56 17.0317 20.56C17.3517 20.56 17.7677 20.36 18.2797 19.96C18.7917 19.544 19.3517 19 19.9597 18.328C20.5837 17.656 21.2077 16.912 21.8317 16.096C22.4557 15.28 23.0477 14.456 23.6077 13.624C24.1837 12.792 24.6797 12.024 25.0957 11.32C25.1597 11.208 25.2317 11.104 25.3117 11.008ZM34.1454 22.12C33.8414 22.12 33.5694 22.008 33.3294 21.784C33.0894 21.544 32.9694 21.176 32.9694 20.68C32.9694 20.328 33.0174 19.84 33.1134 19.216C33.2094 18.576 33.3374 17.88 33.4974 17.128C33.6574 16.376 33.8254 15.632 34.0014 14.896C34.1934 14.144 34.3854 13.472 34.5774 12.88C34.7694 12.288 34.9374 11.848 35.0814 11.56C35.2094 11.336 35.3294 11.192 35.4414 11.128C35.5694 11.064 35.6894 11.032 35.8014 11.032C36.0254 11.032 36.2174 11.104 36.3774 11.248C36.5534 11.392 36.6414 11.672 36.6414 12.088C36.6414 12.328 36.5934 12.728 36.4974 13.288C36.4174 13.832 36.3054 14.472 36.1614 15.208C36.0334 15.928 35.8894 16.672 35.7294 17.44C35.5854 18.192 35.4414 18.912 35.2974 19.6C35.1534 20.288 35.0414 20.864 34.9614 21.328C34.8974 21.584 34.7854 21.784 34.6254 21.928C34.4814 22.056 34.3214 22.12 34.1454 22.12ZM36.4974 8.848C36.1294 8.848 35.7774 8.736 35.4414 8.512C35.1214 8.288 34.9614 7.928 34.9614 7.432C34.9614 7.016 35.0574 6.68 35.2494 6.424C35.4574 6.168 35.6974 5.984 35.9694 5.872C36.2574 5.744 36.5054 5.68 36.7134 5.68C36.9214 5.68 37.1534 5.728 37.4094 5.824C37.6814 5.904 37.9134 6.064 38.1054 6.304C38.2974 6.528 38.3934 6.864 38.3934 7.312C38.3934 7.616 38.2894 7.888 38.0814 8.128C37.8734 8.352 37.6174 8.528 37.3134 8.656C37.0254 8.784 36.7534 8.848 36.4974 8.848ZM44.9799 22.96C43.7479 22.96 42.7799 22.56 42.0759 21.76C41.3879 20.944 41.0439 19.808 41.0439 18.352C41.0439 17.456 41.1639 16.408 41.4039 15.208C41.6599 13.992 41.9799 12.712 42.3639 11.368C42.7639 10.008 43.1959 8.664 43.6599 7.336C44.1239 6.008 44.5719 4.776 45.0039 3.64C45.4519 2.488 45.8439 1.528 46.1799 0.759999C46.3719 0.327999 46.6439 0.111999 46.9959 0.111999C47.4759 0.111999 47.7159 0.407999 47.7159 0.999999C47.7159 1.192 47.6279 1.584 47.4519 2.176C47.2759 2.768 47.0439 3.504 46.7559 4.384C46.4679 5.248 46.1559 6.208 45.8199 7.264C45.4839 8.32 45.1399 9.408 44.7879 10.528C44.4519 11.632 44.1399 12.728 43.8519 13.816C43.5639 14.888 43.3319 15.896 43.1559 16.84C42.9799 17.784 42.8919 18.592 42.8919 19.264C42.8919 19.696 43.0039 20.04 43.2279 20.296C43.4679 20.536 43.7879 20.656 44.1879 20.656C44.9239 20.656 45.6599 20.512 46.3959 20.224C47.1479 19.92 47.8679 19.552 48.5559 19.12C49.2439 18.672 49.8679 18.232 50.4279 17.8C51.0039 17.352 51.4919 16.984 51.8919 16.696C52.2919 16.392 52.5719 16.24 52.7319 16.24C53.0839 16.24 53.2599 16.432 53.2599 16.816C53.2599 16.944 53.1319 17.184 52.8759 17.536C52.6199 17.872 52.2759 18.272 51.8439 18.736C51.4119 19.2 50.9079 19.68 50.3319 20.176C49.7719 20.656 49.1799 21.112 48.5559 21.544C47.9479 21.96 47.3319 22.296 46.7079 22.552C46.0999 22.824 45.5239 22.96 44.9799 22.96ZM55.5768 22.24C54.6328 22.24 53.8888 21.88 53.3448 21.16C52.8008 20.44 52.5288 19.504 52.5288 18.352C52.5288 17.936 52.5848 17.496 52.6968 17.032C52.8248 16.552 52.9848 16.12 53.1768 15.736C53.0648 15.624 52.9768 15.472 52.9128 15.28C52.8488 15.072 52.8168 14.816 52.8168 14.512C52.8168 13.568 52.9768 12.704 53.2968 11.92C53.6168 11.136 54.0408 10.456 54.5688 9.88C55.0968 9.288 55.6808 8.832 56.3208 8.512C56.9768 8.192 57.6408 8.032 58.3128 8.032C59.4168 8.032 60.3128 8.432 61.0008 9.232C61.6888 10.016 62.0328 11.216 62.0328 12.832C62.0328 13.68 61.9048 14.544 61.6488 15.424C61.4088 16.304 61.0728 17.152 60.6408 17.968C60.2248 18.784 59.7368 19.512 59.1768 20.152C58.6328 20.792 58.0488 21.304 57.4248 21.688C56.8168 22.056 56.2008 22.24 55.5768 22.24ZM54.7608 14.92C54.8568 15.048 54.9048 15.216 54.9048 15.424C54.9048 15.664 54.8568 15.904 54.7608 16.144C54.6808 16.384 54.5928 16.712 54.4968 17.128C54.4008 17.544 54.3528 18.136 54.3528 18.904C54.3528 19.672 54.6568 20.056 55.2648 20.056C55.9368 20.056 56.5608 19.792 57.1368 19.264C57.7128 18.72 58.2248 18.024 58.6728 17.176C59.1208 16.328 59.4648 15.424 59.7048 14.464C59.9608 13.488 60.0888 12.568 60.0888 11.704C60.0888 11.144 59.9848 10.752 59.7768 10.528C59.5688 10.288 59.1928 10.168 58.6488 10.168C58.0888 10.168 57.5048 10.36 56.8968 10.744C56.3048 11.112 55.8088 11.616 55.4088 12.256C55.0088 12.896 54.8088 13.616 54.8088 14.416C54.8088 14.592 54.7928 14.76 54.7608 14.92ZM65.9699 22.456C65.7139 22.456 65.4979 22.352 65.3219 22.144C65.1459 21.936 65.0579 21.648 65.0579 21.28C65.0579 21.008 65.1139 20.56 65.2259 19.936C65.3539 19.296 65.4899 18.552 65.6339 17.704C65.7939 16.856 65.9299 15.976 66.0419 15.064C66.1539 14.136 66.2099 13.248 66.2099 12.4C66.2099 11.984 66.3139 11.68 66.5219 11.488C66.7459 11.28 66.9939 11.176 67.2659 11.176C67.5219 11.176 67.7139 11.336 67.8419 11.656C67.9699 11.976 67.9939 12.616 67.9139 13.576C68.6499 11.944 69.4579 10.632 70.3379 9.64C71.2339 8.632 72.1219 7.912 73.0019 7.48C73.8819 7.032 74.6739 6.808 75.3779 6.808C75.8419 6.808 76.1779 6.904 76.3859 7.096C76.6099 7.272 76.7219 7.472 76.7219 7.696C76.7219 8 76.5939 8.24 76.3379 8.416C76.0979 8.576 75.6739 8.768 75.0659 8.992C74.3619 9.264 73.7139 9.584 73.1219 9.952C72.5459 10.304 71.9939 10.768 71.4659 11.344C70.9539 11.92 70.4499 12.656 69.9539 13.552C69.4579 14.432 68.9619 15.52 68.4659 16.816C67.9699 18.112 67.4419 19.672 66.8819 21.496C66.7859 21.848 66.6579 22.096 66.4979 22.24C66.3539 22.384 66.1779 22.456 65.9699 22.456ZM85.6486 11.656C85.6486 12.168 85.4886 12.672 85.1686 13.168C84.8486 13.648 84.4246 14.112 83.8966 14.56C83.3686 14.992 82.7846 15.4 82.1446 15.784C81.5046 16.168 80.8646 16.504 80.2246 16.792C79.5846 17.08 79.0006 17.312 78.4726 17.488C78.3446 18.112 78.2806 18.664 78.2806 19.144C78.2806 19.448 78.3526 19.664 78.4966 19.792C78.6406 19.92 78.8646 19.984 79.1686 19.984C79.8406 19.984 80.5526 19.864 81.3046 19.624C82.0566 19.384 82.8246 19.072 83.6086 18.688C84.3926 18.304 85.1446 17.896 85.8646 17.464C86.5846 17.032 87.2406 16.624 87.8326 16.24C88.4406 15.856 88.9446 15.544 89.3446 15.304C89.7446 15.064 90.0086 14.944 90.1366 14.944C90.3286 14.944 90.4726 15.008 90.5686 15.136C90.6806 15.248 90.7366 15.384 90.7366 15.544C90.7366 15.672 90.5366 15.92 90.1366 16.288C89.7526 16.656 89.2326 17.088 88.5766 17.584C87.9206 18.064 87.1846 18.56 86.3686 19.072C85.5526 19.584 84.7046 20.064 83.8246 20.512C82.9606 20.96 82.1206 21.32 81.3046 21.592C80.5046 21.864 79.7846 22 79.1446 22C78.3126 22 77.6646 21.688 77.2006 21.064C76.7366 20.44 76.5046 19.472 76.5046 18.16C76.5046 17.28 76.6166 16.392 76.8406 15.496C77.0806 14.6 77.4006 13.744 77.8006 12.928C78.2166 12.096 78.6726 11.36 79.1686 10.72C79.6806 10.064 80.2166 9.552 80.7766 9.184C81.3366 8.8 81.8806 8.608 82.4086 8.608C83.4166 8.608 84.2086 8.888 84.7846 9.448C85.3606 10.008 85.6486 10.744 85.6486 11.656ZM78.9766 15.64C79.4726 15.336 79.9846 15.016 80.5126 14.68C81.0406 14.344 81.5286 14 81.9766 13.648C82.4246 13.296 82.7846 12.928 83.0566 12.544C83.3446 12.144 83.4886 11.736 83.4886 11.32C83.4886 10.728 83.1686 10.432 82.5286 10.432C82.1286 10.432 81.7046 10.688 81.2566 11.2C80.8246 11.696 80.4086 12.344 80.0086 13.144C79.6086 13.944 79.2646 14.776 78.9766 15.64ZM99.3071 9.928C99.7391 8.888 100.147 7.816 100.531 6.712C100.931 5.608 101.291 4.48 101.611 3.328C101.707 3.008 101.851 2.752 102.043 2.56C102.251 2.352 102.491 2.248 102.763 2.248C102.955 2.248 103.115 2.32 103.243 2.464C103.387 2.608 103.459 2.8 103.459 3.04C103.459 3.344 103.339 3.872 103.099 4.624C102.875 5.376 102.587 6.328 102.235 7.48C101.899 8.632 101.555 9.96 101.203 11.464C100.867 12.952 100.579 14.6 100.339 16.408C100.115 18.216 100.003 20.144 100.003 22.192C100.003 22.64 99.9071 23.008 99.7151 23.296C99.5231 23.6 99.2911 23.752 99.0191 23.752C98.8591 23.752 98.7071 23.712 98.5631 23.632C98.4191 23.552 98.2911 23.36 98.1791 23.056C98.0831 22.768 98.0031 22.312 97.9391 21.688C97.8751 21.048 97.8431 20.184 97.8431 19.096C97.8431 18.264 97.8911 17.36 97.9871 16.384C97.2511 17.712 96.4511 18.872 95.5871 19.864C94.7391 20.84 93.9151 21.592 93.1151 22.12C92.3311 22.648 91.6591 22.912 91.0991 22.912C90.4111 22.912 89.8511 22.68 89.4191 22.216C89.0031 21.768 88.7951 21.096 88.7951 20.2C88.7951 19.416 88.9791 18.608 89.3471 17.776C89.7151 16.944 90.2031 16.128 90.8111 15.328C91.4191 14.512 92.0911 13.744 92.8271 13.024C93.5631 12.304 94.2991 11.672 95.0351 11.128C95.7871 10.568 96.4831 10.136 97.1231 9.832C97.7631 9.512 98.2831 9.352 98.6831 9.352C98.8431 9.352 98.9871 9.408 99.1151 9.52C99.2431 9.632 99.3071 9.768 99.3071 9.928ZM98.9951 10.672C98.8831 10.784 98.7471 10.896 98.5871 11.008C98.4271 11.12 98.2511 11.24 98.0591 11.368C97.3551 11.864 96.5791 12.44 95.7311 13.096C94.8991 13.736 94.0991 14.44 93.3311 15.208C92.5791 15.96 91.9631 16.752 91.4831 17.584C91.0031 18.416 90.7631 19.272 90.7631 20.152C90.7631 20.536 90.9551 20.728 91.3391 20.728C91.8671 20.728 92.4431 20.48 93.0671 19.984C93.7071 19.472 94.3631 18.768 95.0351 17.872C95.7071 16.96 96.3791 15.896 97.0511 14.68C97.7231 13.448 98.3711 12.112 98.9951 10.672ZM114.229 28.48C113.445 28.48 112.797 28.224 112.285 27.712C111.773 27.2 111.517 26.584 111.517 25.864C111.517 25.304 111.797 24.824 112.357 24.424C112.917 24.04 113.677 23.664 114.637 23.296C115.581 22.944 116.621 22.544 117.757 22.096C118.013 21.152 118.269 20.016 118.525 18.688C118.781 17.344 119.061 15.76 119.365 13.936C119.477 13.008 119.581 12.288 119.677 11.776C119.773 11.248 119.869 10.872 119.965 10.648C120.061 10.424 120.165 10.288 120.277 10.24C120.405 10.192 120.541 10.168 120.685 10.168C120.829 10.168 121.013 10.24 121.237 10.384C121.477 10.528 121.693 10.728 121.885 10.984C122.077 11.24 122.173 11.528 122.173 11.848C122.173 12.056 122.133 12.36 122.053 12.76C121.989 13.16 121.869 13.6 121.693 14.08C121.533 14.56 121.301 15.016 120.997 15.448C120.773 16.6 120.565 17.656 120.373 18.616C120.181 19.576 119.989 20.456 119.797 21.256C120.757 20.824 121.701 20.352 122.629 19.84C123.557 19.328 124.413 18.76 125.197 18.136C125.981 17.496 126.645 16.784 127.189 16C127.349 15.776 127.509 15.664 127.669 15.664C127.749 15.664 127.829 15.712 127.909 15.808C128.005 15.904 128.053 16.064 128.053 16.288C128.053 16.896 127.805 17.512 127.309 18.136C126.813 18.744 126.141 19.352 125.293 19.96C124.445 20.552 123.501 21.136 122.461 21.712C121.421 22.272 120.349 22.808 119.245 23.32C118.829 24.712 118.389 25.776 117.925 26.512C117.477 27.264 116.949 27.776 116.341 28.048C115.749 28.336 115.045 28.48 114.229 28.48ZM121.045 7.456C120.741 7.456 120.485 7.36 120.277 7.168C120.069 6.976 119.965 6.656 119.965 6.208C119.965 5.68 120.157 5.216 120.541 4.816C120.941 4.4 121.373 4.192 121.837 4.192C122.285 4.192 122.653 4.328 122.941 4.6C123.245 4.872 123.397 5.224 123.397 5.656C123.397 6.024 123.285 6.336 123.061 6.592C122.837 6.832 122.549 6.952 122.197 6.952C122.117 6.952 122.053 6.944 122.005 6.928C121.781 7.152 121.605 7.296 121.477 7.36C121.349 7.424 121.205 7.456 121.045 7.456ZM117.109 24.232C116.389 24.52 115.685 24.776 114.997 25C114.309 25.24 113.709 25.44 113.197 25.6C113.325 26 113.509 26.272 113.749 26.416C113.973 26.576 114.269 26.656 114.637 26.656C115.133 26.656 115.581 26.496 115.981 26.176C116.365 25.856 116.741 25.208 117.109 24.232ZM134.342 22.576C134.07 22.576 133.838 22.456 133.646 22.216C133.454 21.976 133.358 21.624 133.358 21.16C133.358 20.616 133.438 19.84 133.598 18.832C133.774 17.824 134.03 16.488 134.366 14.824C133.934 15.848 133.454 16.816 132.926 17.728C132.414 18.64 131.87 19.384 131.294 19.96C130.718 20.536 130.126 20.824 129.518 20.824C128.926 20.824 128.398 20.592 127.934 20.128C127.486 19.664 127.262 18.848 127.262 17.68C127.262 17.024 127.318 16.288 127.43 15.472C127.542 14.64 127.686 13.816 127.862 13C128.038 12.184 128.214 11.456 128.39 10.816C128.566 10.16 128.726 9.68 128.87 9.376C128.982 9.12 129.094 8.952 129.206 8.872C129.318 8.776 129.47 8.728 129.662 8.728C129.886 8.728 130.126 8.824 130.382 9.016C130.638 9.208 130.766 9.528 130.766 9.976C130.766 10.088 130.71 10.352 130.598 10.768C130.502 11.168 130.374 11.664 130.214 12.256C130.07 12.832 129.918 13.456 129.758 14.128C129.598 14.8 129.462 15.472 129.35 16.144C129.254 16.816 129.206 17.432 129.206 17.992C129.206 18.296 129.238 18.544 129.302 18.736C129.366 18.928 129.526 19.024 129.782 19.024C130.006 19.024 130.286 18.8 130.622 18.352C130.974 17.904 131.35 17.312 131.75 16.576C132.166 15.824 132.59 14.992 133.022 14.08C133.47 13.168 133.902 12.232 134.318 11.272C134.75 10.312 135.142 9.4 135.494 8.536C135.622 8.248 135.758 8.072 135.902 8.008C136.046 7.928 136.206 7.888 136.382 7.888C136.67 7.888 136.926 8.008 137.15 8.248C137.39 8.472 137.51 8.768 137.51 9.136C137.51 9.376 137.462 9.792 137.366 10.384C137.286 10.976 137.166 11.672 137.006 12.472C136.862 13.256 136.694 14.088 136.502 14.968C136.326 15.848 136.15 16.72 135.974 17.584C135.798 18.432 135.63 19.208 135.47 19.912C135.326 20.616 135.206 21.184 135.11 21.616C135.03 22.016 134.918 22.272 134.774 22.384C134.646 22.512 134.502 22.576 134.342 22.576ZM144.551 22.528C144.199 22.528 143.927 22.424 143.735 22.216C143.559 22.024 143.471 21.8 143.471 21.544C143.471 21.32 143.567 21.112 143.759 20.92C143.967 20.712 144.247 20.528 144.599 20.368C145.239 20.032 145.839 19.696 146.399 19.36C146.975 19.024 147.439 18.664 147.791 18.28C148.143 17.896 148.319 17.488 148.319 17.056C148.319 16.688 148.199 16.408 147.959 16.216C147.719 16.008 147.391 15.904 146.975 15.904C146.735 15.904 146.399 15.952 145.967 16.048C145.535 16.128 145.063 16.224 144.551 16.336C144.055 16.432 143.567 16.528 143.087 16.624C142.607 16.704 142.199 16.744 141.863 16.744C141.255 16.744 140.799 16.6 140.495 16.312C140.191 16.008 140.039 15.6 140.039 15.088C140.039 14.832 140.191 14.448 140.495 13.936C140.799 13.424 141.199 12.856 141.695 12.232C142.207 11.592 142.767 10.952 143.375 10.312C143.983 9.672 144.599 9.08 145.223 8.536C145.863 7.992 146.455 7.552 146.999 7.216C147.559 6.88 148.023 6.712 148.391 6.712C148.759 6.712 149.039 6.832 149.231 7.072C149.423 7.312 149.519 7.616 149.519 7.984C149.519 8.272 149.471 8.52 149.375 8.728C149.279 8.92 149.079 9.072 148.775 9.184C148.487 9.296 148.039 9.36 147.431 9.376C146.807 9.872 146.143 10.44 145.439 11.08C144.751 11.704 144.119 12.352 143.543 13.024C142.983 13.68 142.575 14.312 142.319 14.92C142.847 14.744 143.487 14.592 144.239 14.464C145.007 14.32 145.783 14.248 146.567 14.248C147.799 14.248 148.711 14.528 149.303 15.088C149.911 15.632 150.215 16.352 150.215 17.248C150.215 17.824 150.031 18.424 149.663 19.048C149.311 19.656 148.847 20.224 148.271 20.752C147.695 21.28 147.079 21.704 146.423 22.024C145.767 22.36 145.143 22.528 144.551 22.528ZM151.638 14.32C151.206 14.288 151.006 14.008 151.038 13.48C151.054 13.352 151.142 13.2 151.302 13.024C151.462 12.832 151.646 12.728 151.854 12.712C152.35 12.664 152.958 12.592 153.678 12.496C154.414 12.384 155.222 12.256 156.102 12.112C156.262 11.328 156.454 10.504 156.678 9.64C156.902 8.776 157.15 7.936 157.422 7.12C157.694 6.288 157.982 5.536 158.286 4.864C158.59 4.192 158.91 3.664 159.246 3.28C159.422 3.104 159.582 2.984 159.726 2.92C159.87 2.84 159.998 2.8 160.11 2.8C160.334 2.8 160.51 2.896 160.638 3.088C160.782 3.28 160.854 3.496 160.854 3.736C160.854 3.864 160.83 3.992 160.782 4.12C160.462 5.016 160.118 6.12 159.75 7.432C159.382 8.744 158.99 10.176 158.574 11.728C160.046 11.488 161.518 11.232 162.99 10.96C164.462 10.688 165.726 10.44 166.782 10.216C167.086 10.088 167.318 10.112 167.478 10.288C167.654 10.464 167.742 10.64 167.742 10.816C167.742 11.04 167.678 11.208 167.55 11.32C167.438 11.432 167.318 11.528 167.19 11.608L167.166 11.632C166.846 11.76 166.366 11.912 165.726 12.088C165.086 12.248 164.35 12.424 163.518 12.616C162.686 12.792 161.798 12.968 160.854 13.144C159.926 13.32 159.006 13.48 158.094 13.624C157.726 15.032 157.35 16.48 156.966 17.968C156.598 19.44 156.23 20.888 155.862 22.312C155.702 22.888 155.518 23.248 155.31 23.392C155.118 23.552 154.91 23.632 154.686 23.632C154.43 23.632 154.206 23.536 154.014 23.344C153.838 23.152 153.814 22.76 153.942 22.168L155.694 13.984C154.734 14.128 153.886 14.232 153.15 14.296C152.43 14.36 151.926 14.368 151.638 14.32ZM179.07 24.136C178.798 24.136 178.582 24.04 178.422 23.848C178.262 23.656 178.182 23.336 178.182 22.888C178.182 22.088 178.222 21.264 178.302 20.416C178.398 19.552 178.446 18.752 178.446 18.016C178.446 16.336 178.294 14.952 177.99 13.864C177.702 12.76 177.07 12.016 176.094 11.632C175.87 11.552 175.71 11.464 175.614 11.368C175.502 11.272 175.446 11.12 175.446 10.912C175.446 10.688 175.534 10.504 175.71 10.36C175.87 10.216 176.174 10.144 176.622 10.144C176.99 10.144 177.478 10.16 178.086 10.192C178.694 10.224 179.35 10.256 180.054 10.288C180.55 8.512 181.11 7.04 181.734 5.872C182.358 4.704 183.038 3.784 183.774 3.112C184.526 2.44 185.318 1.96 186.15 1.672C186.998 1.384 187.878 1.24 188.79 1.24C189.19 1.24 189.446 1.296 189.558 1.408C189.67 1.504 189.726 1.656 189.726 1.864C189.726 2.12 189.646 2.392 189.486 2.68C189.326 2.952 188.998 3.128 188.502 3.208C187.414 3.4 186.446 3.752 185.598 4.264C184.75 4.776 184.014 5.52 183.39 6.496C182.766 7.456 182.246 8.72 181.83 10.288C183.366 10.256 184.686 10.176 185.79 10.048C186.894 9.904 187.814 9.752 188.55 9.592C189.302 9.416 189.902 9.272 190.35 9.16C190.798 9.032 191.142 8.968 191.382 8.968C191.654 8.968 191.822 9.04 191.886 9.184C191.95 9.328 191.982 9.48 191.982 9.64C191.982 9.944 191.694 10.24 191.118 10.528C190.542 10.8 189.782 11.048 188.838 11.272C187.91 11.48 186.886 11.648 185.766 11.776C184.646 11.904 183.542 11.968 182.454 11.968C182.278 11.968 182.102 11.968 181.926 11.968C181.766 11.968 181.598 11.968 181.422 11.968C181.39 12.08 181.366 12.2 181.35 12.328C181.19 13.256 181.03 14.24 180.87 15.28C180.726 16.304 180.59 17.312 180.462 18.304C180.35 19.28 180.262 20.168 180.198 20.968C180.134 21.768 180.102 22.408 180.102 22.888C180.102 23.288 180.006 23.592 179.814 23.8C179.622 24.024 179.374 24.136 179.07 24.136ZM179.646 11.872C179.182 11.824 178.75 11.76 178.35 11.68C178.558 11.92 178.734 12.2 178.878 12.52C179.038 12.84 179.174 13.184 179.286 13.552C179.398 12.96 179.518 12.4 179.646 11.872ZM191.826 22.24C190.882 22.24 190.138 21.88 189.594 21.16C189.05 20.44 188.778 19.504 188.778 18.352C188.778 17.936 188.834 17.496 188.946 17.032C189.074 16.552 189.234 16.12 189.426 15.736C189.314 15.624 189.226 15.472 189.162 15.28C189.098 15.072 189.066 14.816 189.066 14.512C189.066 13.568 189.226 12.704 189.546 11.92C189.866 11.136 190.29 10.456 190.818 9.88C191.346 9.288 191.93 8.832 192.57 8.512C193.226 8.192 193.89 8.032 194.562 8.032C195.666 8.032 196.562 8.432 197.25 9.232C197.938 10.016 198.282 11.216 198.282 12.832C198.282 13.68 198.154 14.544 197.898 15.424C197.658 16.304 197.322 17.152 196.89 17.968C196.474 18.784 195.986 19.512 195.426 20.152C194.882 20.792 194.298 21.304 193.674 21.688C193.066 22.056 192.45 22.24 191.826 22.24ZM191.01 14.92C191.106 15.048 191.154 15.216 191.154 15.424C191.154 15.664 191.106 15.904 191.01 16.144C190.93 16.384 190.842 16.712 190.746 17.128C190.65 17.544 190.602 18.136 190.602 18.904C190.602 19.672 190.906 20.056 191.514 20.056C192.186 20.056 192.81 19.792 193.386 19.264C193.962 18.72 194.474 18.024 194.922 17.176C195.37 16.328 195.714 15.424 195.954 14.464C196.21 13.488 196.338 12.568 196.338 11.704C196.338 11.144 196.234 10.752 196.026 10.528C195.818 10.288 195.442 10.168 194.898 10.168C194.338 10.168 193.754 10.36 193.146 10.744C192.554 11.112 192.058 11.616 191.658 12.256C191.258 12.896 191.058 13.616 191.058 14.416C191.058 14.592 191.042 14.76 191.01 14.92ZM202.219 22.456C201.963 22.456 201.747 22.352 201.571 22.144C201.395 21.936 201.307 21.648 201.307 21.28C201.307 21.008 201.363 20.56 201.475 19.936C201.603 19.296 201.739 18.552 201.883 17.704C202.043 16.856 202.179 15.976 202.291 15.064C202.403 14.136 202.459 13.248 202.459 12.4C202.459 11.984 202.563 11.68 202.771 11.488C202.995 11.28 203.243 11.176 203.515 11.176C203.771 11.176 203.963 11.336 204.091 11.656C204.219 11.976 204.243 12.616 204.163 13.576C204.899 11.944 205.707 10.632 206.587 9.64C207.483 8.632 208.371 7.912 209.251 7.48C210.131 7.032 210.923 6.808 211.627 6.808C212.091 6.808 212.427 6.904 212.635 7.096C212.859 7.272 212.971 7.472 212.971 7.696C212.971 8 212.843 8.24 212.587 8.416C212.347 8.576 211.923 8.768 211.315 8.992C210.611 9.264 209.963 9.584 209.371 9.952C208.795 10.304 208.243 10.768 207.715 11.344C207.203 11.92 206.699 12.656 206.203 13.552C205.707 14.432 205.211 15.52 204.715 16.816C204.219 18.112 203.691 19.672 203.131 21.496C203.035 21.848 202.907 22.096 202.747 22.24C202.603 22.384 202.427 22.456 202.219 22.456ZM228.549 28.168C227.749 28.168 227.013 28.112 226.341 28C225.685 27.904 225.037 27.744 224.397 27.52C223.757 27.312 223.061 27.04 222.309 26.704C222.085 26.592 221.885 26.456 221.709 26.296C221.533 26.152 221.445 25.984 221.445 25.792C221.445 25.552 221.597 25.296 221.901 25.024C222.189 24.768 222.461 24.64 222.717 24.64C222.989 24.64 223.325 24.736 223.725 24.928C224.141 25.12 224.621 25.344 225.165 25.6C225.709 25.872 226.309 26.104 226.965 26.296C227.637 26.488 228.357 26.584 229.125 26.584C229.957 26.584 230.741 26.24 231.477 25.552C232.213 24.864 232.813 23.872 233.277 22.576C233.741 21.296 233.973 19.752 233.973 17.944C233.973 17.4 233.957 16.8 233.925 16.144C233.909 15.472 233.877 14.768 233.829 14.032C233.445 14.864 233.013 15.688 232.533 16.504C232.069 17.32 231.581 18.056 231.069 18.712C230.573 19.368 230.053 19.896 229.509 20.296C228.981 20.68 228.445 20.872 227.901 20.872C227.213 20.872 226.717 20.696 226.413 20.344C226.109 19.992 225.957 19.448 225.957 18.712C225.957 17.944 226.013 17.112 226.125 16.216C226.237 15.32 226.381 14.416 226.557 13.504C226.749 12.576 226.973 11.696 227.229 10.864C227.485 10.032 227.757 9.312 228.045 8.704C228.205 8.384 228.445 8.224 228.765 8.224C228.989 8.224 229.205 8.344 229.413 8.584C229.637 8.808 229.749 9.104 229.749 9.472C229.749 9.76 229.685 10.168 229.557 10.696C229.429 11.224 229.269 11.824 229.077 12.496C228.885 13.168 228.693 13.872 228.501 14.608C228.309 15.328 228.149 16.04 228.021 16.744C227.893 17.432 227.829 18.064 227.829 18.64C227.829 18.88 227.989 19 228.309 19C228.485 19 228.733 18.84 229.053 18.52C229.389 18.184 229.757 17.752 230.157 17.224C230.573 16.68 230.989 16.088 231.405 15.448C231.837 14.792 232.253 14.144 232.653 13.504C233.053 12.848 233.397 12.248 233.685 11.704C233.669 11.576 233.661 11.456 233.661 11.344C233.661 11.232 233.661 11.128 233.661 11.032C233.661 10.248 233.741 9.76 233.901 9.568C234.077 9.36 234.301 9.256 234.573 9.256C235.037 9.256 235.365 9.36 235.557 9.568C235.749 9.776 235.845 10.136 235.845 10.648C235.845 10.84 235.821 11.048 235.773 11.272C235.725 11.48 235.645 11.784 235.533 12.184C235.661 13.448 235.765 14.584 235.845 15.592C235.941 16.6 235.989 17.616 235.989 18.64C235.989 20.576 235.677 22.256 235.053 23.68C234.445 25.104 233.581 26.208 232.461 26.992C231.357 27.776 230.053 28.168 228.549 28.168ZM243.761 22.24C242.817 22.24 242.073 21.88 241.529 21.16C240.985 20.44 240.713 19.504 240.713 18.352C240.713 17.936 240.769 17.496 240.881 17.032C241.009 16.552 241.169 16.12 241.361 15.736C241.249 15.624 241.161 15.472 241.097 15.28C241.033 15.072 241.001 14.816 241.001 14.512C241.001 13.568 241.161 12.704 241.481 11.92C241.801 11.136 242.225 10.456 242.753 9.88C243.281 9.288 243.865 8.832 244.505 8.512C245.161 8.192 245.825 8.032 246.497 8.032C247.601 8.032 248.497 8.432 249.185 9.232C249.873 10.016 250.217 11.216 250.217 12.832C250.217 13.68 250.089 14.544 249.833 15.424C249.593 16.304 249.257 17.152 248.825 17.968C248.409 18.784 247.921 19.512 247.361 20.152C246.817 20.792 246.233 21.304 245.609 21.688C245.001 22.056 244.385 22.24 243.761 22.24ZM242.945 14.92C243.041 15.048 243.089 15.216 243.089 15.424C243.089 15.664 243.041 15.904 242.945 16.144C242.865 16.384 242.777 16.712 242.681 17.128C242.585 17.544 242.537 18.136 242.537 18.904C242.537 19.672 242.841 20.056 243.449 20.056C244.121 20.056 244.745 19.792 245.321 19.264C245.897 18.72 246.409 18.024 246.857 17.176C247.305 16.328 247.649 15.424 247.889 14.464C248.145 13.488 248.273 12.568 248.273 11.704C248.273 11.144 248.169 10.752 247.961 10.528C247.753 10.288 247.377 10.168 246.833 10.168C246.273 10.168 245.689 10.36 245.081 10.744C244.489 11.112 243.993 11.616 243.593 12.256C243.193 12.896 242.993 13.616 242.993 14.416C242.993 14.592 242.977 14.76 242.945 14.92ZM260.97 22.576C260.698 22.576 260.466 22.456 260.274 22.216C260.082 21.976 259.986 21.624 259.986 21.16C259.986 20.616 260.066 19.84 260.226 18.832C260.402 17.824 260.658 16.488 260.994 14.824C260.562 15.848 260.082 16.816 259.554 17.728C259.042 18.64 258.498 19.384 257.922 19.96C257.346 20.536 256.754 20.824 256.146 20.824C255.554 20.824 255.026 20.592 254.562 20.128C254.114 19.664 253.89 18.848 253.89 17.68C253.89 17.024 253.946 16.288 254.058 15.472C254.17 14.64 254.314 13.816 254.49 13C254.666 12.184 254.842 11.456 255.018 10.816C255.194 10.16 255.354 9.68 255.498 9.376C255.61 9.12 255.722 8.952 255.834 8.872C255.946 8.776 256.098 8.728 256.29 8.728C256.514 8.728 256.754 8.824 257.01 9.016C257.266 9.208 257.394 9.528 257.394 9.976C257.394 10.088 257.338 10.352 257.226 10.768C257.13 11.168 257.002 11.664 256.842 12.256C256.698 12.832 256.546 13.456 256.386 14.128C256.226 14.8 256.09 15.472 255.978 16.144C255.882 16.816 255.834 17.432 255.834 17.992C255.834 18.296 255.866 18.544 255.93 18.736C255.994 18.928 256.154 19.024 256.41 19.024C256.634 19.024 256.914 18.8 257.25 18.352C257.602 17.904 257.978 17.312 258.378 16.576C258.794 15.824 259.218 14.992 259.65 14.08C260.098 13.168 260.53 12.232 260.946 11.272C261.378 10.312 261.77 9.4 262.122 8.536C262.25 8.248 262.386 8.072 262.53 8.008C262.674 7.928 262.834 7.888 263.01 7.888C263.298 7.888 263.554 8.008 263.778 8.248C264.018 8.472 264.138 8.768 264.138 9.136C264.138 9.376 264.09 9.792 263.994 10.384C263.914 10.976 263.794 11.672 263.634 12.472C263.49 13.256 263.322 14.088 263.13 14.968C262.954 15.848 262.778 16.72 262.602 17.584C262.426 18.432 262.258 19.208 262.098 19.912C261.954 20.616 261.834 21.184 261.738 21.616C261.658 22.016 261.546 22.272 261.402 22.384C261.274 22.512 261.13 22.576 260.97 22.576Z" fill="#EB87AB"/>
</svg>
