<svg width="1728" height="1520" viewBox="0 0 1728 1520" fill="none" xmlns="http://www.w3.org/2000/svg">
<g style="mix-blend-mode:screen" opacity="0.08">
<path fill-rule="evenodd" clip-rule="evenodd" d="M414.674 890.109C446.584 983.723 397.412 1088.1 304.935 1123.06C212.458 1158.01 163.286 1262.39 195.196 1356.01C225.931 1446.17 182.993 1545.74 97.1552 1584.19C90.6116 1587.12 83.451 1588.33 76.2808 1588.33H-40L-39.9999 -40L854.206 -39.9999C859.282 -25.1078 862.292 -9.98607 863.392 5.05616C864.606 -9.32571 867.573 -23.7677 872.43 -37.9999L1767.57 -38L1767.57 1590.33H1651.16C1643.99 1590.33 1636.83 1589.12 1630.28 1586.19C1544.35 1547.75 1501.36 1448.18 1532.13 1358.01C1564.07 1264.39 1514.85 1160.01 1422.28 1125.06C1329.7 1090.1 1280.48 985.723 1312.42 892.109C1344.37 798.495 1295.14 694.115 1202.57 659.16C1109.99 624.204 1060.77 519.824 1092.71 426.21C1124.66 332.596 1075.43 228.217 982.86 193.261C913.635 167.122 868.328 103.106 863.234 33.3337C857.435 102.327 812.383 165.372 743.891 191.261C651.414 226.217 602.242 330.596 634.152 424.21C666.062 517.824 616.89 622.204 524.413 657.16C431.936 692.115 382.764 796.495 414.674 890.109Z" fill="#EB87AB"/>
</g>
</svg>
